<svg xmlns="http://www.w3.org/2000/svg" xmlns:xlink="http://www.w3.org/1999/xlink" width="500" zoomAndPan="magnify" viewBox="0 0 375 374.999991" height="500" preserveAspectRatio="xMidYMid meet" version="1.0"><defs><filter x="0%" y="0%" width="100%" height="100%" id="25a15072b2"><feColorMatrix values="0 0 0 0 1 0 0 0 0 1 0 0 0 0 1 0 0 0 1 0" color-interpolation-filters="sRGB"/></filter><mask id="9b7fd33ab3"><g filter="url(#25a15072b2)"><rect x="-37.5" width="450" fill="#000000" y="-37.499999" height="449.999989" fill-opacity="0.7"/></g></mask><clipPath id="afc10da371"><path d="M 0 0.953125 L 300 0.953125 L 300 139.703125 L 0 139.703125 Z M 0 0.953125 " clip-rule="nonzero"/></clipPath><clipPath id="24b5783600"><rect x="0" width="300" y="0" height="141"/></clipPath></defs><g mask="url(#9b7fd33ab3)"><g transform="matrix(1, 0, 0, 1, 0, 117)"><g clip-path="url(#24b5783600)"><g clip-path="url(#afc10da371)"><path fill="#000000" d="M 297.90625 80.398438 C 297.144531 78.691406 296.570312 76.886719 296.285156 74.984375 C 296.09375 73.65625 295.714844 72.230469 295.332031 71.089844 C 294.761719 69.191406 294.570312 67.097656 294.476562 65.105469 C 294.285156 60.070312 288.191406 57.597656 288.191406 57.597656 C 269.429688 48.953125 237.144531 47.625 237.144531 47.625 C 226.191406 46.484375 223.332031 44.011719 220.285156 40.78125 C 217.523438 37.933594 201.238281 21.875 197.617188 18.265625 C 197.144531 17.792969 196.667969 17.316406 196.191406 16.9375 C 194.09375 15.226562 192.09375 13.421875 190.382812 11.996094 C 188.570312 10.476562 187.332031 9.335938 187.332031 9.335938 C 187.90625 8.386719 187.523438 7.152344 186.476562 6.675781 C 186.285156 6.582031 186.09375 6.484375 185.90625 6.390625 C 181.429688 4.394531 176.667969 3.160156 171.808594 2.589844 C 157.714844 1.355469 132.285156 0.976562 132.285156 0.976562 L 73.617188 1.832031 C 66.570312 1.832031 60.285156 7.246094 60.285156 7.246094 L 40.570312 25.582031 L 20.953125 44.296875 L 5.046875 60.164062 C 1.617188 63.585938 0 68.335938 0.667969 73.085938 L 1.617188 80.304688 C 1.808594 81.824219 1.90625 83.34375 2 84.867188 C 2.570312 94.554688 8 102.632812 9.144531 104.246094 C 9.238281 104.4375 9.429688 104.53125 9.617188 104.722656 C 9.714844 104.816406 9.90625 104.910156 10 105.007812 C 17.046875 109.472656 26.285156 107 30.285156 99.6875 C 31.144531 97.976562 32.191406 96.457031 32.855469 95.507812 C 33.332031 94.839844 33.714844 94.082031 34 93.320312 C 39.144531 81.730469 55.046875 81.921875 55.046875 81.921875 C 73.046875 80.683594 80.285156 89.425781 80.285156 89.425781 C 82.285156 91.515625 85.238281 97.027344 86.855469 100.351562 C 87.714844 102.0625 88.476562 103.867188 88.953125 105.765625 C 90.382812 111.085938 91.714844 116.976562 91.714844 116.976562 L 212.667969 118.878906 C 221.429688 118.6875 222.09375 115.265625 222 113.84375 C 221.90625 112.988281 221.808594 112.132812 221.90625 111.183594 C 222.476562 95.601562 233.046875 86.289062 233.046875 86.289062 C 243.714844 74.792969 260.570312 80.304688 260.570312 80.304688 C 271.046875 83.058594 277.714844 95.410156 277.714844 95.410156 C 283.238281 103.582031 283.808594 111.941406 283.808594 111.941406 C 283.808594 116.976562 285.238281 118.308594 285.238281 118.308594 C 285.808594 118.402344 286.382812 118.496094 286.953125 118.59375 C 290.855469 118.972656 294.285156 116.121094 294.855469 112.226562 C 295.429688 108.523438 297.808594 104.722656 297.808594 104.722656 C 299.332031 99.304688 299.714844 91.230469 299.714844 91.230469 C 300 86.386719 298.855469 82.679688 297.90625 80.398438 Z M 112 13.230469 L 109.714844 41.542969 C 108.855469 47.148438 105.332031 47.339844 105.332031 47.339844 L 55.238281 45.4375 C 48.191406 44.773438 50.476562 37.363281 50.476562 37.363281 L 72.953125 10.949219 L 109.144531 10.097656 C 112.09375 10.476562 112 13.230469 112 13.230469 Z M 126.570312 60.355469 C 126.191406 60.734375 125.714844 60.925781 125.046875 60.925781 L 116.382812 60.925781 C 115.144531 60.925781 114.09375 59.972656 114.191406 58.738281 C 114.191406 58.167969 114.476562 57.695312 114.761719 57.410156 C 115.144531 57.027344 115.617188 56.839844 116.285156 56.839844 L 124.953125 56.839844 C 126.191406 56.839844 127.238281 57.789062 127.144531 59.023438 C 127.144531 59.5 126.855469 59.972656 126.570312 60.355469 Z M 202.855469 48.574219 L 122.570312 47.433594 C 116.855469 47.339844 117.429688 44.679688 117.429688 44.679688 L 119.332031 13.042969 C 119.429688 10.949219 123.617188 10.667969 123.617188 10.667969 L 175.714844 13.042969 L 200.855469 41.921875 C 206.09375 47.910156 202.855469 48.574219 202.855469 48.574219 Z M 57.90625 85.339844 C 42.855469 85.339844 30.667969 97.5 30.667969 112.511719 C 30.667969 127.523438 42.855469 139.683594 57.90625 139.683594 C 72.953125 139.683594 85.144531 127.523438 85.144531 112.511719 C 85.144531 97.5 72.953125 85.339844 57.90625 85.339844 Z M 57.90625 125.8125 C 50.570312 125.8125 44.570312 119.828125 44.570312 112.511719 C 44.570312 105.195312 50.570312 99.210938 57.90625 99.210938 C 65.238281 99.210938 71.238281 105.195312 71.238281 112.511719 C 71.332031 119.828125 65.332031 125.8125 57.90625 125.8125 Z M 252.667969 85.339844 C 237.617188 85.339844 225.429688 97.5 225.429688 112.511719 C 225.429688 127.523438 237.617188 139.683594 252.667969 139.683594 C 267.714844 139.683594 279.90625 127.523438 279.90625 112.511719 C 279.90625 97.5 267.714844 85.339844 252.667969 85.339844 Z M 252.667969 125.8125 C 245.332031 125.8125 239.332031 119.828125 239.332031 112.511719 C 239.332031 105.195312 245.332031 99.210938 252.667969 99.210938 C 260 99.210938 266 105.195312 266 112.511719 C 266.09375 119.828125 260.09375 125.8125 252.667969 125.8125 Z M 252.667969 125.8125 " fill-opacity="1" fill-rule="nonzero"/></g></g></g></g></svg>