<svg xmlns="http://www.w3.org/2000/svg" xmlns:xlink="http://www.w3.org/1999/xlink" width="500" zoomAndPan="magnify" viewBox="0 0 375 374.999991" height="500" preserveAspectRatio="xMidYMid meet" version="1.0"><defs><filter x="0%" y="0%" width="100%" height="100%" id="ffd00da147"><feColorMatrix values="0 0 0 0 1 0 0 0 0 1 0 0 0 0 1 0 0 0 1 0" color-interpolation-filters="sRGB"/></filter><mask id="72ff9a83d0"><g filter="url(#ffd00da147)"><rect x="-37.5" width="450" fill="#000000" y="-37.499999" height="449.999989" fill-opacity="0.7"/></g></mask><clipPath id="d6e198f53e"><path d="M 1 0.203125 L 364.5 0.203125 L 364.5 96.953125 L 1 96.953125 Z M 1 0.203125 " clip-rule="nonzero"/></clipPath><clipPath id="b71d15307e"><rect x="0" width="365" y="0" height="98"/></clipPath></defs><g mask="url(#72ff9a83d0)"><g transform="matrix(1, 0, 0, 1, 0, 139)"><g clip-path="url(#b71d15307e)"><g clip-path="url(#d6e198f53e)"><path fill="#231f20" d="M 142.078125 4.304688 C 109.398438 13.480469 80.515625 24.703125 50.683594 41.875 C 23.78125 44.15625 9.464844 57.117188 1.523438 69.570312 C 0.0429688 79.382812 4.785156 84.734375 18.613281 95.347656 C 20.65625 96.917969 323.949219 95.347656 323.949219 95.347656 C 332.210938 91.949219 337.472656 88.4375 340.988281 82.609375 L 364.378906 82.457031 C 364.394531 81.152344 364.394531 79.941406 364.390625 78.777344 L 343.535156 78.777344 L 343.535156 74.835938 L 364.3125 74.835938 C 363.886719 62.972656 361.6875 59.71875 355.441406 59.46875 C 358.636719 55.578125 358.507812 50.257812 358.273438 42.347656 L 354.671875 40.136719 L 352.464844 33.59375 C 348.910156 32.339844 339.023438 32.917969 337.769531 31.679688 C 336.9375 30.714844 337.105469 29.613281 336.03125 28.539062 C 333.460938 25.964844 330.957031 23.554688 276.566406 23.554688 C 268.433594 23.554688 256.789062 23.628906 246.265625 23.777344 C 240.886719 17.957031 234.039062 10.8125 225.140625 3.507812 C 223.363281 2.046875 221.175781 1.222656 218.882812 1.132812 C 197.992188 0.328125 175.511719 0.1875 158.972656 1.347656 C 153.261719 1.761719 147.59375 2.75 142.078125 4.304688 Z M 11.03125 85.828125 C 5.15625 81.097656 2.425781 76.777344 3.273438 70.492188 L 11.03125 70.226562 Z M 99.847656 93.066406 C 94.929688 92.382812 91.007812 89.125 89.230469 84.847656 L 114.210938 84.847656 C 111.914062 90.414062 106.078125 93.945312 99.847656 93.066406 Z M 281.828125 70.21875 L 148.265625 70.21875 C 148.265625 74.449219 137.222656 89.9375 126.085938 90.515625 C 128.28125 82.707031 127.867188 77.199219 118.710938 70.21875 L 19.703125 70.21875 L 281.828125 66.183594 Z M 311.515625 91.605469 C 300.316406 91.605469 291.238281 83.199219 291.238281 72.835938 C 291.238281 65.953125 295.238281 59.941406 301.191406 56.675781 C 297.089844 59.886719 294.433594 64.96875 294.433594 70.6875 C 294.433594 80.398438 302.078125 88.277344 311.507812 88.277344 C 320.945312 88.277344 328.589844 80.398438 328.589844 70.6875 C 328.589844 64.96875 325.933594 59.886719 321.828125 56.675781 C 327.789062 59.941406 331.785156 65.953125 331.785156 72.835938 C 331.792969 83.207031 322.714844 91.605469 311.515625 91.605469 Z M 334.585938 71.152344 C 333.5625 59.957031 322.335938 51.613281 309.511719 52.507812 C 297.511719 53.34375 288.375 61.96875 288.078125 72.242188 C 287.824219 61.5625 297.152344 52.433594 309.511719 51.570312 C 322.335938 50.679688 333.566406 59.023438 334.585938 70.214844 C 334.648438 70.886719 334.664062 71.5625 334.65625 72.226562 C 334.640625 71.863281 334.617188 71.503906 334.585938 71.152344 Z M 350.25 35.886719 L 350.296875 36.027344 L 351.539062 36.46875 L 350.441406 36.453125 L 350.300781 36.027344 L 349.59375 35.777344 C 349.824219 35.808594 350.039062 35.84375 350.25 35.886719 Z M 187.457031 3.1875 C 197.152344 3.1875 207.550781 3.398438 218.359375 3.816406 C 220.164062 3.882812 221.855469 4.527344 223.246094 5.664062 C 231.882812 12.753906 238.652344 19.78125 244.140625 25.722656 L 244.839844 26.476562 L 245.867188 26.460938 C 257.203125 26.292969 268.9375 26.234375 276.132812 26.234375 C 322.511719 26.234375 317.503906 28.382812 323.585938 28.902344 L 323.597656 28.933594 C 323.996094 30 323.851562 31.191406 323.207031 32.132812 C 322.570312 33.074219 321.511719 33.644531 320.375 33.671875 L 181.363281 36.269531 L 346.234375 36.390625 C 347.042969 38.78125 349.261719 40.402344 351.785156 40.433594 L 349.445312 44.921875 L 136.746094 44.921875 C 145.570312 51.417969 147.308594 54.632812 145.964844 61.851562 C 143.753906 54.539062 132.582031 49.773438 115.523438 44.921875 L 63.136719 44.921875 C 77.859375 40.804688 90.359375 36.730469 91.617188 33.765625 C 88.28125 33.246094 79.269531 33.023438 72.609375 32.921875 C 93.777344 22.53125 116.054688 14.238281 142.269531 6.882812 C 147.648438 5.367188 153.179688 4.40625 158.703125 4.019531 C 166.640625 3.46875 176.316406 3.1875 187.457031 3.1875 Z M 187.457031 3.1875 " fill-opacity="1" fill-rule="nonzero"/></g><path fill="#231f20" d="M 239.390625 32.039062 L 239.390625 30.886719 L 221.914062 13.382812 C 221.238281 12.328125 160.042969 11.914062 159.886719 13.382812 C 159.3125 13.382812 126.285156 18.769531 110.726562 33 Z M 239.390625 32.039062 " fill-opacity="1" fill-rule="nonzero"/><path fill="#231f20" d="M 350.25 35.886719 C 350.039062 35.84375 349.824219 35.808594 349.589844 35.777344 L 350.296875 36.027344 Z M 350.25 35.886719 " fill-opacity="1" fill-rule="nonzero"/><path fill="#231f20" d="M 351.539062 36.460938 L 350.296875 36.027344 L 350.441406 36.445312 Z M 351.539062 36.460938 " fill-opacity="1" fill-rule="nonzero"/></g></g></g></svg>