<svg xmlns="http://www.w3.org/2000/svg" xmlns:xlink="http://www.w3.org/1999/xlink" width="500" zoomAndPan="magnify" viewBox="0 0 375 374.999991" height="500" preserveAspectRatio="xMidYMid meet" version="1.0"><defs><filter x="0%" y="0%" width="100%" height="100%" id="1e55d4a382"><feColorMatrix values="0 0 0 0 1 0 0 0 0 1 0 0 0 0 1 0 0 0 1 0" color-interpolation-filters="sRGB"/></filter><mask id="4ff10e29a9"><g filter="url(#1e55d4a382)"><rect x="-37.5" width="450" fill="#000000" y="-37.499999" height="449.999989" fill-opacity="0.7"/></g></mask><clipPath id="270eadc6ba"><path d="M 0 0.585938 L 178.5 0.585938 L 178.5 116.085938 L 0 116.085938 Z M 0 0.585938 " clip-rule="nonzero"/></clipPath><clipPath id="a900125acf"><rect x="0" width="179" y="0" height="117"/></clipPath></defs><g mask="url(#4ff10e29a9)"><g transform="matrix(1, 0, 0, 1, 0, 129)"><g clip-path="url(#a900125acf)"><g clip-path="url(#270eadc6ba)"><path fill="#100f0d" d="M 151.726562 110.160156 C 140.242188 110.160156 130.898438 100.859375 130.898438 89.429688 C 130.898438 81.019531 135.96875 73.777344 143.207031 70.527344 L 148.9375 90.484375 L 154.652344 88.863281 L 148.925781 68.910156 C 149.84375 68.792969 150.773438 68.699219 151.726562 68.699219 C 163.207031 68.699219 172.550781 78 172.550781 89.429688 C 172.550781 100.859375 163.207031 110.160156 151.726562 110.160156 Z M 68.425781 92.390625 L 68.425781 86.46875 L 89.25 86.46875 C 90.886719 86.46875 92.226562 85.140625 92.226562 83.507812 L 92.226562 73.222656 L 97.476562 69.625 L 103.824219 77.515625 C 104.335938 78.152344 104.554688 78.960938 104.449219 79.769531 C 104.335938 80.582031 103.902344 81.296875 103.230469 81.773438 M 60.90625 80.546875 C 60.152344 78.453125 59.140625 76.460938 57.894531 74.621094 L 86.273438 74.621094 L 86.273438 80.546875 Z M 35.699219 110.160156 C 24.21875 110.160156 14.875 100.859375 14.875 89.429688 C 14.875 78 24.21875 68.699219 35.699219 68.699219 C 37.5 68.699219 39.269531 68.953125 40.964844 69.394531 L 36.257812 80.546875 L 29.25 80.546875 C 25.9375 80.546875 23.207031 83 22.195312 86.46875 L 17.851562 86.46875 L 17.851562 92.390625 L 22.195312 92.390625 C 23.207031 95.863281 25.9375 98.316406 29.25 98.316406 L 54.492188 98.316406 C 51.097656 105.441406 43.859375 110.160156 35.699219 110.160156 Z M 52.503906 68.699219 C 51.34375 67.761719 50.109375 66.917969 48.808594 66.191406 L 51.75 59.25 L 61.242188 68.699219 Z M 46.449219 71.695312 C 48.019531 72.632812 49.472656 73.753906 50.714844 75.074219 C 52.273438 76.683594 53.515625 78.542969 54.46875 80.546875 L 42.707031 80.546875 Z M 146.542969 28.070312 C 147.15625 27.992188 147.621094 28.140625 147.867188 28.28125 L 146.308594 36.125 L 139.511719 36.101562 L 137.699219 29.773438 Z M 151.726562 62.777344 C 150.203125 62.777344 148.726562 62.925781 147.285156 63.171875 L 145.648438 57.457031 C 147.632812 57.074219 149.667969 56.855469 151.726562 56.855469 C 156.488281 56.855469 161.035156 57.941406 165.242188 60.082031 L 167.960938 54.804688 C 162.972656 52.273438 157.359375 50.929688 151.726562 50.929688 C 149.097656 50.929688 146.507812 51.207031 143.996094 51.71875 L 141.21875 42.035156 L 148.738281 42.046875 C 148.75 42.046875 148.75 42.046875 148.75 42.046875 C 150.167969 42.046875 151.386719 41.050781 151.667969 39.664062 L 153.699219 29.402344 C 154.175781 27.667969 153.722656 25.863281 152.46875 24.460938 C 150.886719 22.691406 148.296875 21.835938 145.542969 22.242188 L 136.90625 23.894531 L 136.851562 3.535156 C 136.851562 2.667969 136.464844 1.847656 135.792969 1.28125 C 135.128906 0.722656 134.246094 0.480469 133.386719 0.632812 L 115.535156 3.59375 L 116.511719 9.421875 L 130.910156 7.039062 L 130.96875 25.921875 L 85.355469 56.855469 L 72.632812 56.855469 L 58.640625 43.007812 L 62.8125 33.160156 L 71.398438 33.160156 C 73.039062 33.160156 74.375 31.832031 74.375 30.199219 L 74.375 27.238281 C 74.375 22.332031 70.378906 18.355469 65.449219 18.355469 L 58.953125 18.355469 L 53.492188 15.300781 C 51.632812 14.246094 49.414062 14.269531 47.566406 15.347656 C 45.730469 16.421875 44.625 18.332031 44.625 20.460938 L 44.625 27.238281 C 44.625 28.359375 45.265625 29.390625 46.261719 29.886719 L 52.214844 32.847656 C 52.632812 33.058594 53.085938 33.160156 53.550781 33.160156 L 56.363281 33.160156 L 53.816406 39.15625 C 53.691406 39.144531 53.585938 39.085938 53.457031 39.085938 L 8.925781 39.085938 L 8.925781 45.007812 L 20.824219 45.007812 L 20.824219 52.296875 C 8.773438 56.078125 0 67.3125 0 80.546875 L 5.949219 80.546875 C 5.949219 67.484375 16.628906 56.855469 29.75 56.855469 L 46.308594 56.855469 L 43.335938 63.875 C 40.871094 63.148438 38.328125 62.777344 35.699219 62.777344 C 20.941406 62.777344 8.925781 74.738281 8.925781 89.429688 C 8.925781 104.121094 20.941406 116.085938 35.699219 116.085938 C 47.136719 116.085938 57.210938 108.886719 60.953125 98.316406 L 89.25 98.316406 C 89.867188 98.316406 90.46875 98.117188 90.980469 97.761719 L 106.683594 86.597656 C 108.667969 85.183594 110.003906 82.988281 110.34375 80.582031 C 110.679688 78.175781 109.992188 75.699219 108.460938 73.8125 L 102.394531 66.257812 L 135.480469 43.621094 L 138.28125 53.371094 C 123.871094 58.625 113.050781 71.835938 113.050781 86.46875 L 119 86.46875 C 119 74.667969 128.054688 63.691406 139.929688 59.109375 L 141.554688 64.789062 C 131.816406 68.78125 124.949219 78.3125 124.949219 89.429688 C 124.949219 104.121094 136.964844 116.085938 151.726562 116.085938 C 166.484375 116.085938 178.5 104.121094 178.5 89.429688 C 178.5 74.738281 166.484375 62.777344 151.726562 62.777344 " fill-opacity="1" fill-rule="nonzero"/></g></g></g></g></svg>