<svg xmlns="http://www.w3.org/2000/svg" xmlns:xlink="http://www.w3.org/1999/xlink" width="500" zoomAndPan="magnify" viewBox="0 0 375 374.999991" height="500" preserveAspectRatio="xMidYMid meet" version="1.0"><defs><filter x="0%" y="0%" width="100%" height="100%" id="94ef4b91ed"><feColorMatrix values="0 0 0 0 1 0 0 0 0 1 0 0 0 0 1 0 0 0 1 0" color-interpolation-filters="sRGB"/></filter><mask id="fbb9a101b6"><g filter="url(#94ef4b91ed)"><rect x="-37.5" width="450" fill="#000000" y="-37.499999" height="449.999989" fill-opacity="0.7"/></g></mask><clipPath id="c39b035588"><path d="M 0 0.25 L 187 0.25 L 187 112.75 L 0 112.75 Z M 0 0.25 " clip-rule="nonzero"/></clipPath><clipPath id="eb667bb300"><rect x="0" width="188" y="0" height="113"/></clipPath></defs><g mask="url(#fbb9a101b6)"><g transform="matrix(1, 0, 0, 1, 0, 131)"><g clip-path="url(#eb667bb300)"><g clip-path="url(#c39b035588)"><path fill="#000000" d="M 105.878906 23.691406 C 93.238281 28.652344 79.914062 33.046875 51.566406 26.445312 C 46.871094 25.355469 41.996094 24.421875 37.214844 23.785156 C 37.773438 32.773438 73.632812 41.191406 82.300781 42.976562 C 98.371094 35.125 107.769531 31.03125 105.878906 23.691406 Z M 0.625 83.574219 C 0.625 99.625 13.679688 112.679688 29.722656 112.679688 C 45.765625 112.679688 58.820312 99.625 58.820312 83.574219 C 58.820312 82.640625 58.765625 81.722656 58.679688 80.8125 L 64.902344 79.414062 C 65.351562 82.914062 65.144531 86.476562 65.144531 86.476562 C 65.144531 86.476562 75.28125 86.476562 86.15625 86.476562 C 97.03125 86.476562 106.152344 82.109375 111.019531 69.613281 C 113.9375 62.09375 117.542969 55.277344 122.96875 49.511719 C 131.902344 40.421875 144.246094 35.039062 157.558594 35.039062 C 162.90625 35.039062 168.160156 35.90625 173.179688 37.605469 C 175.300781 38.335938 177.589844 37.191406 178.3125 35.074219 C 179.023438 32.953125 177.898438 30.660156 175.78125 29.941406 C 169.925781 27.949219 163.789062 26.945312 157.558594 26.945312 C 150.605469 26.945312 143.894531 28.214844 137.664062 30.542969 C 134.503906 23.941406 130.796875 18.226562 123.507812 18.394531 C 119.628906 18.492188 115.871094 19.753906 111.726562 21.410156 L 111.914062 22.136719 C 114.960938 33.992188 103.503906 39.578125 87.648438 47.304688 L 83.125 49.511719 L 81.046875 49.082031 C 48.449219 42.386719 31.609375 34 30.992188 24.171875 L 30.921875 23.066406 C 26.8125 22.679688 22.914062 22.4375 19.492188 22.320312 L 2.597656 22.320312 C 2.597656 24.6875 9.6875 28.628906 17.121094 32.101562 L 14.574219 37.460938 L 45.925781 52.375 C 55.273438 56.804688 61.222656 65.65625 63.03125 71.527344 L 56.785156 72.941406 C 52.519531 62.144531 42.011719 54.472656 29.722656 54.472656 C 13.679688 54.472656 0.625 67.527344 0.625 83.574219 Z M 9.964844 83.574219 C 9.964844 72.683594 18.832031 63.816406 29.722656 63.816406 C 37.550781 63.816406 44.3125 68.410156 47.507812 75.035156 L 37.285156 77.34375 C 35.472656 75.15625 32.777344 73.730469 29.722656 73.730469 C 24.289062 73.730469 19.878906 78.132812 19.878906 83.574219 C 19.878906 89.007812 24.289062 93.421875 29.722656 93.421875 C 34.613281 93.421875 38.640625 89.839844 39.402344 85.164062 L 49.445312 82.898438 C 49.453125 83.121094 49.480469 83.34375 49.480469 83.574219 C 49.480469 94.46875 40.613281 103.335938 29.722656 103.335938 C 18.832031 103.335938 9.964844 94.46875 9.964844 83.574219 Z M 123.355469 12.164062 C 120.761719 12.234375 118.273438 12.707031 115.820312 13.390625 L 113.253906 8.484375 L 105.183594 8.507812 C 105.183594 8.507812 105.175781 8.507812 105.175781 8.507812 C 103.460938 8.507812 102.070312 7.125 102.058594 5.410156 C 102.058594 3.683594 103.441406 2.285156 105.160156 2.285156 L 112.753906 2.261719 C 113.089844 1.847656 113.511719 1.488281 114.015625 1.222656 C 116 0.191406 118.445312 0.957031 119.484375 2.9375 L 124.332031 12.191406 C 124.160156 12.191406 124.007812 12.164062 123.828125 12.164062 Z M 128.453125 83.574219 C 128.453125 99.625 141.507812 112.679688 157.558594 112.679688 C 173.601562 112.679688 186.65625 99.625 186.65625 83.574219 C 186.65625 67.527344 173.601562 54.472656 157.558594 54.472656 C 153.996094 54.472656 150.597656 55.148438 147.4375 56.324219 L 141.128906 44.265625 C 138.496094 45.449219 136.152344 46.761719 134.050781 48.195312 L 140.316406 60.179688 C 133.140625 65.484375 128.453125 73.980469 128.453125 83.574219 Z M 137.800781 83.574219 C 137.800781 77.578125 140.496094 72.203125 144.71875 68.582031 L 149.574219 77.84375 C 148.410156 79.464844 147.703125 81.429688 147.703125 83.574219 C 147.703125 89.007812 152.117188 93.421875 157.558594 93.421875 C 162.984375 93.421875 167.394531 89.007812 167.394531 83.574219 C 167.394531 78.132812 162.984375 73.730469 157.558594 73.730469 C 157.230469 73.730469 156.921875 73.800781 156.613281 73.824219 L 151.816406 64.667969 C 153.628906 64.117188 155.558594 63.816406 157.558594 63.816406 C 168.441406 63.816406 177.316406 72.683594 177.316406 83.574219 C 177.316406 94.46875 168.441406 103.335938 157.558594 103.335938 C 146.65625 103.335938 137.800781 94.46875 137.800781 83.574219 " fill-opacity="1" fill-rule="nonzero"/></g></g></g></g></svg>