<svg xmlns="http://www.w3.org/2000/svg" xmlns:xlink="http://www.w3.org/1999/xlink" width="500" zoomAndPan="magnify" viewBox="0 0 375 374.999991" height="500" preserveAspectRatio="xMidYMid meet" version="1.0"><defs><filter x="0%" y="0%" width="100%" height="100%" id="b386c3175c"><feColorMatrix values="0 0 0 0 1 0 0 0 0 1 0 0 0 0 1 0 0 0 1 0" color-interpolation-filters="sRGB"/></filter><mask id="82cde5b239"><g filter="url(#b386c3175c)"><rect x="-37.5" width="450" fill="#000000" y="-37.499999" height="449.999989" fill-opacity="0.7"/></g></mask><clipPath id="d70b6d6019"><path d="M 1 0.53125 L 150 0.53125 L 150 112.28125 L 1 112.28125 Z M 1 0.53125 " clip-rule="nonzero"/></clipPath><clipPath id="66da59ff31"><rect x="0" width="150" y="0" height="114"/></clipPath></defs><g mask="url(#82cde5b239)"><g transform="matrix(1, 0, 0, 1, 0, 131)"><g clip-path="url(#66da59ff31)"><g clip-path="url(#d70b6d6019)"><path fill="#000000" d="M 47.074219 90.449219 C 47.085938 96.515625 42.152344 101.445312 36.074219 101.445312 C 29.992188 101.445312 25.070312 96.515625 25.070312 90.449219 Z M 126.417969 79.460938 C 132.5 79.460938 137.425781 84.386719 137.425781 90.445312 C 137.425781 96.515625 132.5 101.441406 126.417969 101.441406 C 120.339844 101.441406 115.417969 96.511719 115.417969 90.445312 C 115.417969 88.21875 116.09375 86.046875 117.367188 84.210938 L 123.132812 91.503906 C 124.191406 92.96875 126.039062 93.613281 127.613281 92.707031 C 129.175781 91.800781 129.472656 89.914062 128.808594 88.230469 L 124.417969 79.65625 C 125.074219 79.53125 125.757812 79.476562 126.417969 79.460938 Z M 100.6875 0.542969 C 94.035156 0.542969 91.34375 5.140625 89.578125 7.542969 C 88.382812 9.152344 88.1875 10.023438 86.269531 10.492188 L 79.109375 12.261719 C 75.566406 13.132812 76.386719 18.265625 80.683594 17.972656 L 87.300781 17.523438 C 90.195312 17.324219 91.882812 18.449219 92.441406 20.699219 L 101.453125 56.1875 C 104.425781 67.902344 105.113281 77.894531 89.070312 77.894531 L 74.402344 77.894531 C 64.605469 77.894531 59.378906 69.597656 62.570312 62.414062 L 67.230469 51.953125 C 69.558594 46.734375 68.160156 42.242188 62.59375 42.242188 L 29.476562 42.242188 C 26.738281 42.242188 24.550781 44.441406 24.550781 47.160156 C 24.550781 48.152344 24.847656 49.070312 25.351562 49.847656 C 10.578125 54.332031 0.320312 70.742188 1.71875 84.808594 C 2.222656 89.851562 5.152344 90.460938 7.316406 90.453125 L 14.304688 90.453125 C 14.304688 102.460938 24.050781 112.1875 36.070312 112.1875 C 48.101562 112.1875 57.84375 102.457031 57.84375 90.453125 L 104.652344 90.453125 C 104.652344 102.460938 114.398438 112.1875 126.414062 112.1875 C 138.4375 112.1875 148.191406 102.457031 148.191406 90.453125 C 148.179688 86.640625 147.175781 82.894531 145.261719 79.597656 L 146.597656 79.808594 C 149.035156 80.1875 149.671875 77.183594 148.46875 74.554688 C 144.453125 65.816406 135.921875 60.089844 126.460938 59.617188 C 125.542969 59.570312 124.6875 59.039062 124.6875 57.925781 L 124.6875 56.175781 C 124.6875 54.066406 124.710938 52.34375 123.035156 50.058594 L 103.667969 23.628906 C 102.039062 21.398438 103.371094 20.035156 105.4375 20.035156 L 108.964844 20.035156 C 111.652344 20.035156 113.589844 19.46875 113.207031 16.355469 L 111.761719 4.640625 C 111.457031 2.203125 110.425781 0.542969 106.914062 0.542969 Z M 100.6875 0.542969 " fill-opacity="1" fill-rule="evenodd"/></g></g></g></g></svg>