<svg xmlns="http://www.w3.org/2000/svg" xmlns:xlink="http://www.w3.org/1999/xlink" width="500" zoomAndPan="magnify" viewBox="0 0 375 374.999991" height="500" preserveAspectRatio="xMidYMid meet" version="1.0"><defs><filter x="0%" y="0%" width="100%" height="100%" id="29babf3256"><feColorMatrix values="0 0 0 0 1 0 0 0 0 1 0 0 0 0 1 0 0 0 1 0" color-interpolation-filters="sRGB"/></filter><mask id="a2a32014b2"><g filter="url(#29babf3256)"><rect x="-37.5" width="450" fill="#000000" y="-37.499999" height="449.999989" fill-opacity="0.7"/></g></mask><clipPath id="337ac69253"><path d="M 62 0.839844 L 176 0.839844 L 176 100 L 62 100 Z M 62 0.839844 " clip-rule="nonzero"/></clipPath><clipPath id="69d7a5111a"><path d="M 0 49 L 61 49 L 61 110.339844 L 0 110.339844 Z M 0 49 " clip-rule="nonzero"/></clipPath><clipPath id="821b5b4092"><path d="M 140 58 L 192.75 58 L 192.75 110.339844 L 140 110.339844 Z M 140 58 " clip-rule="nonzero"/></clipPath><clipPath id="df9959d0b9"><rect x="0" width="194" y="0" height="111"/></clipPath></defs><g mask="url(#a2a32014b2)"><g transform="matrix(1, 0, 0, 1, 0, 132)"><g clip-path="url(#df9959d0b9)"><g clip-path="url(#337ac69253)"><path fill="#000000" d="M 141.742188 0.867188 C 152.355469 6.648438 174.1875 29.769531 175.851562 41.785156 C 177.519531 53.800781 153.105469 38.667969 136.503906 61.898438 C 128.507812 73.085938 127.46875 89.140625 132.039062 99.128906 C 119.609375 99.128906 62.984375 99.128906 62.984375 99.128906 C 62.984375 99.128906 86.632812 87.871094 89.132812 77.148438 C 91.632812 66.425781 87.769531 44.523438 105.277344 41.328125 C 122.789062 38.132812 150.988281 37.675781 151.898438 33.113281 C 152.808594 28.550781 152.808594 20.109375 134.84375 10.527344 C 136.207031 4.824219 141.742188 0.867188 141.742188 0.867188 Z M 141.742188 0.867188 " fill-opacity="1" fill-rule="nonzero"/></g><path fill="#000000" d="M 77.65625 82.265625 C 80.519531 79.800781 82.511719 77.46875 82.925781 75.6875 C 83.414062 73.605469 83.628906 70.609375 83.859375 67.441406 C 84.652344 56.558594 85.972656 38.34375 104.144531 35.027344 C 110.628906 33.847656 118.300781 33.046875 125.71875 32.277344 C 127.269531 32.113281 128.988281 31.9375 130.753906 31.746094 L 125.507812 25.804688 C 121.734375 21.53125 116.085938 19.4375 110.449219 20.214844 L 89.96875 23.058594 C 87.296875 23.425781 84.964844 25.042969 83.671875 27.414062 L 78.449219 36.992188 L 51.613281 29.917969 L 44.566406 18.96875 L 13.410156 21.933594 L 71.171875 55.703125 Z M 77.65625 82.265625 " fill-opacity="1" fill-rule="nonzero"/><g clip-path="url(#69d7a5111a)"><path fill="#000000" d="M 45.878906 88.816406 C 42.824219 94.007812 37.210938 97.511719 30.773438 97.511719 C 21.085938 97.511719 13.207031 89.605469 13.207031 79.886719 C 13.207031 70.167969 21.085938 62.261719 30.773438 62.261719 C 35.035156 62.261719 38.941406 63.796875 41.980469 66.339844 L 56.023438 63.109375 C 50.601562 54.894531 41.328125 49.46875 30.773438 49.46875 C 14.027344 49.46875 0.453125 63.089844 0.453125 79.886719 C 0.453125 96.6875 14.027344 110.308594 30.773438 110.308594 C 44.828125 110.308594 56.601562 100.695312 60.027344 87.675781 Z M 45.878906 88.816406 " fill-opacity="1" fill-rule="nonzero"/></g><g clip-path="url(#821b5b4092)"><path fill="#000000" d="M 166.488281 58.355469 C 165.867188 58.355469 165.257812 58.402344 164.644531 58.449219 L 169.957031 69.4375 C 176.660156 71.015625 181.667969 77.050781 181.667969 84.25 C 181.667969 92.648438 174.859375 99.480469 166.488281 99.480469 C 158.117188 99.480469 151.304688 92.648438 151.304688 84.25 C 151.304688 81.953125 151.828125 79.777344 152.742188 77.820312 L 147.429688 66.828125 C 143.246094 71.429688 140.675781 77.53125 140.675781 84.25 C 140.675781 98.550781 152.234375 110.144531 166.488281 110.144531 C 180.742188 110.144531 192.296875 98.550781 192.296875 84.25 C 192.296875 69.949219 180.742188 58.355469 166.488281 58.355469 Z M 166.488281 58.355469 " fill-opacity="1" fill-rule="nonzero"/></g><path fill="#000000" d="M 156.007812 55.246094 C 154.042969 55.796875 152.066406 56.597656 150.121094 57.734375 L 163.621094 85.648438 C 164.171875 86.789062 165.308594 87.449219 166.492188 87.449219 C 166.957031 87.449219 167.433594 87.34375 167.878906 87.128906 C 169.464844 86.355469 170.125 84.445312 169.359375 82.855469 Z M 156.007812 55.246094 " fill-opacity="1" fill-rule="nonzero"/><path fill="#000000" d="M 67.378906 67.0625 L 28.429688 76.023438 C 26.355469 76.339844 24.90625 78.257812 25.164062 80.351562 C 25.414062 82.351562 27.152344 83.828125 29.164062 83.75 L 70.640625 80.40625 Z M 67.378906 67.0625 " fill-opacity="1" fill-rule="nonzero"/></g></g></g></svg>