<svg xmlns="http://www.w3.org/2000/svg" xmlns:xlink="http://www.w3.org/1999/xlink" width="500" zoomAndPan="magnify" viewBox="0 0 375 374.999991" height="500" preserveAspectRatio="xMidYMid meet" version="1.0"><defs><filter x="0%" y="0%" width="100%" height="100%" id="f94732a4a4"><feColorMatrix values="0 0 0 0 1 0 0 0 0 1 0 0 0 0 1 0 0 0 1 0" color-interpolation-filters="sRGB"/></filter><mask id="fdf0329d2a"><g filter="url(#f94732a4a4)"><rect x="-37.5" width="450" fill="#000000" y="-37.499999" height="449.999989" fill-opacity="0.7"/></g></mask><clipPath id="deebc5d07d"><path d="M 0.210938 2 L 326 2 L 326 114 L 0.210938 114 Z M 0.210938 2 " clip-rule="nonzero"/></clipPath><clipPath id="c7649b9811"><rect x="0" width="328" y="0" height="148"/></clipPath></defs><g mask="url(#fdf0329d2a)"><g transform="matrix(1, 0, 0, 1, 0, 114)"><g clip-path="url(#c7649b9811)"><g clip-path="url(#deebc5d07d)"><path fill="#000000" d="M 1.164062 68.414062 C 21.300781 60.761719 19.800781 45.976562 17.789062 45.976562 C 15.761719 45.976562 3.285156 45.976562 3.109375 45.976562 C 3.25 45.003906 3.40625 44.15625 3.546875 43.503906 C 5.585938 34.355469 22.867188 11.992188 32.019531 6.902344 C 43.265625 0.664062 163.699219 1.925781 189.621094 6.902344 C 202.839844 9.445312 222.164062 36.390625 235.375 43.503906 C 235.375 43.503906 280.625 47.886719 299.238281 49.707031 C 307.25 50.488281 314.089844 54.449219 318.761719 62.414062 C 316.492188 61.695312 309.800781 59.980469 301.976562 61.734375 C 292.351562 63.890625 310.109375 77.105469 323.75 76.109375 C 324.210938 78.3125 324.585938 80.644531 324.855469 83.152344 C 327.398438 107.046875 320.785156 110.601562 303.503906 113.652344 L 296.445312 113.652344 C 296.445312 113.652344 290.839844 92.238281 281.589844 87.726562 C 273.78125 83.914062 266.429688 83.339844 261.410156 83.339844 C 256.398438 83.339844 249.046875 83.914062 241.234375 87.726562 C 231.984375 92.238281 226.378906 113.652344 226.378906 113.652344 L 97.21875 113.652344 C 97.21875 113.652344 91.617188 92.238281 82.371094 87.726562 C 74.554688 83.914062 67.203125 83.339844 62.1875 83.339844 C 57.171875 83.339844 49.828125 83.914062 42.007812 87.726562 C 32.757812 92.238281 27.15625 113.652344 27.15625 113.652344 L 24.882812 113.652344 C 24.882812 113.652344 9.820312 107.65625 3.53125 100.4375 C 0.816406 97.308594 0.527344 82.414062 1.164062 68.414062 Z M 154.042969 61.21875 L 167.769531 61.21875 C 169.453125 61.21875 170.816406 59.855469 170.816406 58.171875 C 170.816406 56.492188 169.453125 55.121094 167.769531 55.121094 L 154.042969 55.121094 C 152.363281 55.121094 150.992188 56.492188 150.992188 58.171875 C 150.992188 59.859375 152.359375 61.21875 154.042969 61.21875 Z M 143.359375 43.503906 C 164.882812 43.503906 191.546875 43.503906 224.804688 43.503906 C 220.605469 40.039062 216.21875 35.722656 211.679688 31.238281 C 203.902344 23.558594 194.207031 13.996094 188.472656 12.894531 C 180.238281 11.308594 161.191406 9.988281 137.5625 9.300781 C 138.964844 16.285156 141.265625 28.589844 143.359375 43.503906 Z M 84.316406 61.21875 L 98.042969 61.21875 C 99.726562 61.21875 101.09375 59.855469 101.09375 58.171875 C 101.09375 56.492188 99.726562 55.121094 98.042969 55.121094 L 84.316406 55.121094 C 82.632812 55.121094 81.265625 56.492188 81.265625 58.171875 C 81.265625 59.859375 82.625 61.21875 84.316406 61.21875 Z M 132.664062 43.503906 C 132.894531 29.742188 131.25 16.980469 129.925781 9.105469 C 120.710938 8.890625 110.9375 8.78125 100.941406 8.78125 C 95.960938 8.78125 91.355469 8.8125 87.035156 8.863281 L 65.496094 43.511719 C 77.171875 43.503906 96.847656 43.503906 132.664062 43.503906 Z M 41.164062 43.503906 C 45.527344 43.503906 47.625 43.503906 52.054688 43.503906 L 76.824219 9.027344 C 60.054688 9.398438 49.179688 10.128906 42.671875 10.875 C 42.671875 10.875 29.933594 17.011719 21.332031 33.855469 C 24.375 38.105469 27.949219 43.503906 41.164062 43.503906 Z M 41.164062 43.503906 " fill-opacity="1" fill-rule="nonzero"/></g><path fill="#000000" d="M 261.816406 87.730469 C 277.820312 87.730469 290.796875 100.707031 290.796875 116.707031 C 290.796875 132.714844 277.820312 145.683594 261.816406 145.683594 C 245.808594 145.683594 232.839844 132.714844 232.839844 116.707031 C 232.839844 100.707031 245.808594 87.730469 261.816406 87.730469 Z M 261.816406 133.484375 C 271.085938 133.484375 278.59375 125.980469 278.59375 116.707031 C 278.59375 107.441406 271.085938 99.933594 261.816406 99.933594 C 252.542969 99.933594 245.039062 107.441406 245.039062 116.707031 C 245.039062 125.972656 252.542969 133.484375 261.816406 133.484375 Z M 261.816406 133.484375 " fill-opacity="1" fill-rule="nonzero"/><path fill="#000000" d="M 62.199219 87.730469 C 78.207031 87.730469 91.179688 100.707031 91.179688 116.707031 C 91.179688 132.714844 78.207031 145.683594 62.199219 145.683594 C 46.191406 145.683594 33.222656 132.714844 33.222656 116.707031 C 33.222656 100.707031 46.191406 87.730469 62.199219 87.730469 Z M 62.199219 133.484375 C 71.46875 133.484375 78.976562 125.980469 78.976562 116.707031 C 78.976562 107.441406 71.46875 99.933594 62.199219 99.933594 C 52.933594 99.933594 45.421875 107.441406 45.421875 116.707031 C 45.421875 125.972656 52.933594 133.484375 62.199219 133.484375 Z M 62.199219 133.484375 " fill-opacity="1" fill-rule="nonzero"/></g></g></g></svg>