<svg xmlns="http://www.w3.org/2000/svg" xmlns:xlink="http://www.w3.org/1999/xlink" width="500" zoomAndPan="magnify" viewBox="0 0 375 374.999991" height="500" preserveAspectRatio="xMidYMid meet" version="1.0"><defs><filter x="0%" y="0%" width="100%" height="100%" id="f28e955a6f"><feColorMatrix values="0 0 0 0 1 0 0 0 0 1 0 0 0 0 1 0 0 0 1 0" color-interpolation-filters="sRGB"/></filter><mask id="0f47d90480"><g filter="url(#f28e955a6f)"><rect x="-37.5" width="450" fill="#000000" y="-37.499999" height="449.999989" fill-opacity="0.7"/></g></mask><clipPath id="ba143954f8"><path d="M 0 1.15625 L 187.5 1.15625 L 187.5 125.65625 L 0 125.65625 Z M 0 1.15625 " clip-rule="nonzero"/></clipPath><clipPath id="dbde60f0be"><path d="M 0 77 L 187.5 77 L 187.5 88 L 0 88 Z M 0 77 " clip-rule="nonzero"/></clipPath><clipPath id="28a0add9f9"><path d="M 94 58 L 187.5 58 L 187.5 69 L 94 69 Z M 94 58 " clip-rule="nonzero"/></clipPath><clipPath id="adb1014383"><path d="M 94 39 L 187.5 39 L 187.5 50 L 94 50 Z M 94 39 " clip-rule="nonzero"/></clipPath><clipPath id="984a8d42c0"><path d="M 94 20 L 187.5 20 L 187.5 30 L 94 30 Z M 94 20 " clip-rule="nonzero"/></clipPath><clipPath id="1843404ac3"><path d="M 94 1.15625 L 187.5 1.15625 L 187.5 11 L 94 11 Z M 94 1.15625 " clip-rule="nonzero"/></clipPath><clipPath id="4f7839dd25"><path d="M 0 97 L 187.5 97 L 187.5 107 L 0 107 Z M 0 97 " clip-rule="nonzero"/></clipPath><clipPath id="0ab6464859"><path d="M 0 116 L 187.5 116 L 187.5 125.65625 L 0 125.65625 Z M 0 116 " clip-rule="nonzero"/></clipPath><clipPath id="2e5b65083b"><path d="M 0 1.15625 L 96 1.15625 L 96 69 L 0 69 Z M 0 1.15625 " clip-rule="nonzero"/></clipPath><clipPath id="9f0181a165"><rect x="0" width="188" y="0" height="127"/></clipPath></defs><g mask="url(#0f47d90480)"><g transform="matrix(1, 0, 0, 1, 0, 124)"><g clip-path="url(#9f0181a165)"><g clip-path="url(#ba143954f8)"><path fill="#ffffff" d="M 187.25 125.859375 L 0.242188 125.859375 L 0.242188 1.171875 L 187.25 1.171875 L 187.25 125.859375 " fill-opacity="1" fill-rule="nonzero"/></g><g clip-path="url(#dbde60f0be)"><path fill="#000000" d="M 187.25 87.503906 L 0.242188 87.503906 L 0.242188 77.90625 L 187.25 77.90625 L 187.25 87.503906 " fill-opacity="1" fill-rule="nonzero"/></g><g clip-path="url(#28a0add9f9)"><path fill="#000000" d="M 187.25 68.351562 L 94.980469 68.351562 L 94.980469 58.714844 L 187.25 58.714844 L 187.25 68.351562 " fill-opacity="1" fill-rule="nonzero"/></g><g clip-path="url(#adb1014383)"><path fill="#000000" d="M 187.25 49.128906 L 94.980469 49.128906 L 94.980469 39.492188 L 187.25 39.492188 L 187.25 49.128906 " fill-opacity="1" fill-rule="nonzero"/></g><g clip-path="url(#984a8d42c0)"><path fill="#000000" d="M 187.25 29.976562 L 94.980469 29.976562 L 94.980469 20.339844 L 187.25 20.339844 L 187.25 29.976562 " fill-opacity="1" fill-rule="nonzero"/></g><g clip-path="url(#1843404ac3)"><path fill="#000000" d="M 187.25 10.769531 L 94.992188 10.769531 L 94.992188 1.171875 L 187.25 1.171875 L 187.25 10.769531 " fill-opacity="1" fill-rule="nonzero"/></g><g clip-path="url(#4f7839dd25)"><path fill="#000000" d="M 187.25 106.6875 L 0.242188 106.6875 L 0.242188 97.089844 L 187.25 97.089844 L 187.25 106.6875 " fill-opacity="1" fill-rule="nonzero"/></g><g clip-path="url(#0ab6464859)"><path fill="#000000" d="M 187.25 125.859375 L 0.242188 125.859375 L 0.242188 116.261719 L 187.25 116.261719 L 187.25 125.859375 " fill-opacity="1" fill-rule="nonzero"/></g><g clip-path="url(#2e5b65083b)"><path fill="#000000" d="M 95.214844 68.359375 L 0.242188 68.359375 L 0.242188 1.171875 L 95.214844 1.171875 L 95.214844 68.359375 " fill-opacity="1" fill-rule="nonzero"/></g><path fill="#ffffff" d="M 8.351562 3.851562 L 9.238281 6.578125 L 12.105469 6.578125 L 9.785156 8.261719 L 10.671875 10.988281 L 8.351562 9.300781 L 6.035156 10.988281 L 6.917969 8.261719 L 4.601562 6.578125 L 7.46875 6.578125 L 8.351562 3.851562 " fill-opacity="1" fill-rule="nonzero"/><path fill="#ffffff" d="M 24.050781 3.851562 L 24.9375 6.578125 L 27.804688 6.578125 L 25.484375 8.261719 L 26.371094 10.988281 L 24.050781 9.300781 L 21.730469 10.988281 L 22.617188 8.261719 L 20.296875 6.578125 L 23.164062 6.578125 L 24.050781 3.851562 " fill-opacity="1" fill-rule="nonzero"/><path fill="#ffffff" d="M 39.746094 3.851562 L 40.632812 6.578125 L 43.5 6.578125 L 41.179688 8.261719 L 42.066406 10.988281 L 39.746094 9.300781 L 37.429688 10.988281 L 38.3125 8.261719 L 35.996094 6.578125 L 38.863281 6.578125 L 39.746094 3.851562 " fill-opacity="1" fill-rule="nonzero"/><path fill="#ffffff" d="M 55.445312 3.851562 L 56.332031 6.578125 L 59.199219 6.578125 L 56.878906 8.261719 L 57.765625 10.988281 L 55.445312 9.300781 L 53.125 10.988281 L 54.011719 8.261719 L 51.691406 6.578125 L 54.558594 6.578125 L 55.445312 3.851562 " fill-opacity="1" fill-rule="nonzero"/><path fill="#ffffff" d="M 71.140625 3.851562 L 72.027344 6.578125 L 74.894531 6.578125 L 72.574219 8.261719 L 73.460938 10.988281 L 71.140625 9.300781 L 68.824219 10.988281 L 69.707031 8.261719 L 67.390625 6.578125 L 70.257812 6.578125 L 71.140625 3.851562 " fill-opacity="1" fill-rule="nonzero"/><path fill="#ffffff" d="M 86.839844 3.851562 L 87.726562 6.578125 L 90.59375 6.578125 L 88.273438 8.261719 L 89.160156 10.988281 L 86.839844 9.300781 L 84.519531 10.988281 L 85.40625 8.261719 L 83.085938 6.578125 L 85.953125 6.578125 L 86.839844 3.851562 " fill-opacity="1" fill-rule="nonzero"/><path fill="#ffffff" d="M 16.210938 10.558594 L 17.097656 13.285156 L 19.964844 13.285156 L 17.644531 14.96875 L 18.53125 17.695312 L 16.210938 16.011719 L 13.890625 17.695312 L 14.777344 14.96875 L 12.457031 13.285156 L 15.324219 13.285156 L 16.210938 10.558594 " fill-opacity="1" fill-rule="nonzero"/><path fill="#ffffff" d="M 31.910156 10.558594 L 32.792969 13.285156 L 35.660156 13.285156 L 33.34375 14.96875 L 34.226562 17.695312 L 31.910156 16.011719 L 29.589844 17.695312 L 30.476562 14.96875 L 28.15625 13.285156 L 31.023438 13.285156 L 31.910156 10.558594 " fill-opacity="1" fill-rule="nonzero"/><path fill="#ffffff" d="M 47.605469 10.558594 L 48.492188 13.285156 L 51.359375 13.285156 L 49.039062 14.96875 L 49.925781 17.695312 L 47.605469 16.011719 L 45.285156 17.695312 L 46.171875 14.96875 L 43.851562 13.285156 L 46.71875 13.285156 L 47.605469 10.558594 " fill-opacity="1" fill-rule="nonzero"/><path fill="#ffffff" d="M 63.304688 10.558594 L 64.1875 13.285156 L 67.054688 13.285156 L 64.738281 14.96875 L 65.621094 17.695312 L 63.304688 16.011719 L 60.984375 17.695312 L 61.871094 14.96875 L 59.550781 13.285156 L 62.417969 13.285156 L 63.304688 10.558594 " fill-opacity="1" fill-rule="nonzero"/><path fill="#ffffff" d="M 79 10.558594 L 79.886719 13.285156 L 82.753906 13.285156 L 80.433594 14.96875 L 81.320312 17.695312 L 79 16.011719 L 76.679688 17.695312 L 77.566406 14.96875 L 75.246094 13.285156 L 78.113281 13.285156 L 79 10.558594 " fill-opacity="1" fill-rule="nonzero"/><path fill="#ffffff" d="M 16.210938 24.050781 L 17.097656 26.78125 L 19.964844 26.78125 L 17.644531 28.464844 L 18.53125 31.191406 L 16.210938 29.507812 L 13.890625 31.191406 L 14.777344 28.464844 L 12.457031 26.78125 L 15.324219 26.78125 L 16.210938 24.050781 " fill-opacity="1" fill-rule="nonzero"/><path fill="#ffffff" d="M 31.910156 24.050781 L 32.792969 26.78125 L 35.660156 26.78125 L 33.34375 28.464844 L 34.226562 31.191406 L 31.910156 29.507812 L 29.589844 31.191406 L 30.476562 28.464844 L 28.15625 26.78125 L 31.023438 26.78125 L 31.910156 24.050781 " fill-opacity="1" fill-rule="nonzero"/><path fill="#ffffff" d="M 47.605469 24.050781 L 48.492188 26.78125 L 51.359375 26.78125 L 49.039062 28.464844 L 49.925781 31.191406 L 47.605469 29.507812 L 45.285156 31.191406 L 46.171875 28.464844 L 43.851562 26.78125 L 46.71875 26.78125 L 47.605469 24.050781 " fill-opacity="1" fill-rule="nonzero"/><path fill="#ffffff" d="M 63.304688 24.050781 L 64.1875 26.78125 L 67.054688 26.78125 L 64.738281 28.464844 L 65.621094 31.191406 L 63.304688 29.507812 L 60.984375 31.191406 L 61.871094 28.464844 L 59.550781 26.78125 L 62.417969 26.78125 L 63.304688 24.050781 " fill-opacity="1" fill-rule="nonzero"/><path fill="#ffffff" d="M 79 24.050781 L 79.886719 26.78125 L 82.753906 26.78125 L 80.433594 28.464844 L 81.320312 31.191406 L 79 29.507812 L 76.679688 31.191406 L 77.566406 28.464844 L 75.246094 26.78125 L 78.113281 26.78125 L 79 24.050781 " fill-opacity="1" fill-rule="nonzero"/><path fill="#ffffff" d="M 16.210938 37.546875 L 17.097656 40.273438 L 19.964844 40.273438 L 17.644531 41.957031 L 18.53125 44.683594 L 16.210938 43 L 13.890625 44.683594 L 14.777344 41.957031 L 12.457031 40.273438 L 15.324219 40.273438 L 16.210938 37.546875 " fill-opacity="1" fill-rule="nonzero"/><path fill="#ffffff" d="M 31.910156 37.546875 L 32.792969 40.273438 L 35.660156 40.273438 L 33.34375 41.957031 L 34.226562 44.683594 L 31.910156 43 L 29.589844 44.683594 L 30.476562 41.957031 L 28.15625 40.273438 L 31.023438 40.273438 L 31.910156 37.546875 " fill-opacity="1" fill-rule="nonzero"/><path fill="#ffffff" d="M 47.605469 37.546875 L 48.492188 40.273438 L 51.359375 40.273438 L 49.039062 41.957031 L 49.925781 44.683594 L 47.605469 43 L 45.285156 44.683594 L 46.171875 41.957031 L 43.851562 40.273438 L 46.71875 40.273438 L 47.605469 37.546875 " fill-opacity="1" fill-rule="nonzero"/><path fill="#ffffff" d="M 63.304688 37.546875 L 64.1875 40.273438 L 67.054688 40.273438 L 64.738281 41.957031 L 65.621094 44.683594 L 63.304688 43 L 60.984375 44.683594 L 61.871094 41.957031 L 59.550781 40.273438 L 62.417969 40.273438 L 63.304688 37.546875 " fill-opacity="1" fill-rule="nonzero"/><path fill="#ffffff" d="M 79 37.546875 L 79.886719 40.273438 L 82.753906 40.273438 L 80.433594 41.957031 L 81.320312 44.683594 L 79 43 L 76.679688 44.683594 L 77.566406 41.957031 L 75.246094 40.273438 L 78.113281 40.273438 L 79 37.546875 " fill-opacity="1" fill-rule="nonzero"/><path fill="#ffffff" d="M 16.210938 51.042969 L 17.097656 53.769531 L 19.964844 53.769531 L 17.644531 55.453125 L 18.53125 58.179688 L 16.210938 56.496094 L 13.890625 58.179688 L 14.777344 55.453125 L 12.457031 53.769531 L 15.324219 53.769531 L 16.210938 51.042969 " fill-opacity="1" fill-rule="nonzero"/><path fill="#ffffff" d="M 31.910156 51.042969 L 32.792969 53.769531 L 35.660156 53.769531 L 33.34375 55.453125 L 34.226562 58.179688 L 31.910156 56.496094 L 29.589844 58.179688 L 30.476562 55.453125 L 28.15625 53.769531 L 31.023438 53.769531 L 31.910156 51.042969 " fill-opacity="1" fill-rule="nonzero"/><path fill="#ffffff" d="M 47.605469 51.042969 L 48.492188 53.769531 L 51.359375 53.769531 L 49.039062 55.453125 L 49.925781 58.179688 L 47.605469 56.496094 L 45.285156 58.179688 L 46.171875 55.453125 L 43.851562 53.769531 L 46.71875 53.769531 L 47.605469 51.042969 " fill-opacity="1" fill-rule="nonzero"/><path fill="#ffffff" d="M 63.304688 51.042969 L 64.1875 53.769531 L 67.054688 53.769531 L 64.738281 55.453125 L 65.621094 58.179688 L 63.304688 56.496094 L 60.984375 58.179688 L 61.871094 55.453125 L 59.550781 53.769531 L 62.417969 53.769531 L 63.304688 51.042969 " fill-opacity="1" fill-rule="nonzero"/><path fill="#ffffff" d="M 79 51.042969 L 79.886719 53.769531 L 82.753906 53.769531 L 80.433594 55.453125 L 81.320312 58.179688 L 79 56.496094 L 76.679688 58.179688 L 77.566406 55.453125 L 75.246094 53.769531 L 78.113281 53.769531 L 79 51.042969 " fill-opacity="1" fill-rule="nonzero"/><path fill="#ffffff" d="M 8.351562 17.320312 L 9.238281 20.046875 L 12.105469 20.046875 L 9.785156 21.730469 L 10.671875 24.457031 L 8.351562 22.773438 L 6.035156 24.457031 L 6.917969 21.730469 L 4.601562 20.046875 L 7.46875 20.046875 L 8.351562 17.320312 " fill-opacity="1" fill-rule="nonzero"/><path fill="#ffffff" d="M 24.050781 17.320312 L 24.9375 20.046875 L 27.804688 20.046875 L 25.484375 21.730469 L 26.371094 24.457031 L 24.050781 22.773438 L 21.730469 24.457031 L 22.617188 21.730469 L 20.296875 20.046875 L 23.164062 20.046875 L 24.050781 17.320312 " fill-opacity="1" fill-rule="nonzero"/><path fill="#ffffff" d="M 39.746094 17.320312 L 40.632812 20.046875 L 43.5 20.046875 L 41.179688 21.730469 L 42.066406 24.457031 L 39.746094 22.773438 L 37.429688 24.457031 L 38.3125 21.730469 L 35.996094 20.046875 L 38.863281 20.046875 L 39.746094 17.320312 " fill-opacity="1" fill-rule="nonzero"/><path fill="#ffffff" d="M 55.445312 17.320312 L 56.332031 20.046875 L 59.199219 20.046875 L 56.878906 21.730469 L 57.765625 24.457031 L 55.445312 22.773438 L 53.125 24.457031 L 54.011719 21.730469 L 51.691406 20.046875 L 54.558594 20.046875 L 55.445312 17.320312 " fill-opacity="1" fill-rule="nonzero"/><path fill="#ffffff" d="M 71.140625 17.320312 L 72.027344 20.046875 L 74.894531 20.046875 L 72.574219 21.730469 L 73.460938 24.457031 L 71.140625 22.773438 L 68.824219 24.457031 L 69.707031 21.730469 L 67.390625 20.046875 L 70.257812 20.046875 L 71.140625 17.320312 " fill-opacity="1" fill-rule="nonzero"/><path fill="#ffffff" d="M 86.839844 17.320312 L 87.726562 20.046875 L 90.59375 20.046875 L 88.273438 21.730469 L 89.160156 24.457031 L 86.839844 22.773438 L 84.519531 24.457031 L 85.40625 21.730469 L 83.085938 20.046875 L 85.953125 20.046875 L 86.839844 17.320312 " fill-opacity="1" fill-rule="nonzero"/><path fill="#ffffff" d="M 8.351562 30.785156 L 9.238281 33.511719 L 12.105469 33.511719 L 9.785156 35.199219 L 10.671875 37.925781 L 8.351562 36.242188 L 6.035156 37.925781 L 6.917969 35.199219 L 4.601562 33.511719 L 7.46875 33.511719 L 8.351562 30.785156 " fill-opacity="1" fill-rule="nonzero"/><path fill="#ffffff" d="M 24.050781 30.785156 L 24.9375 33.511719 L 27.804688 33.511719 L 25.484375 35.199219 L 26.371094 37.925781 L 24.050781 36.242188 L 21.730469 37.925781 L 22.617188 35.199219 L 20.296875 33.511719 L 23.164062 33.511719 L 24.050781 30.785156 " fill-opacity="1" fill-rule="nonzero"/><path fill="#ffffff" d="M 39.746094 30.785156 L 40.632812 33.511719 L 43.5 33.511719 L 41.179688 35.199219 L 42.066406 37.925781 L 39.746094 36.242188 L 37.429688 37.925781 L 38.3125 35.199219 L 35.996094 33.511719 L 38.863281 33.511719 L 39.746094 30.785156 " fill-opacity="1" fill-rule="nonzero"/><path fill="#ffffff" d="M 55.445312 30.785156 L 56.332031 33.511719 L 59.199219 33.511719 L 56.878906 35.199219 L 57.765625 37.925781 L 55.445312 36.242188 L 53.125 37.925781 L 54.011719 35.199219 L 51.691406 33.511719 L 54.558594 33.511719 L 55.445312 30.785156 " fill-opacity="1" fill-rule="nonzero"/><path fill="#ffffff" d="M 71.140625 30.785156 L 72.027344 33.511719 L 74.894531 33.511719 L 72.574219 35.199219 L 73.460938 37.925781 L 71.140625 36.242188 L 68.824219 37.925781 L 69.707031 35.199219 L 67.390625 33.511719 L 70.257812 33.511719 L 71.140625 30.785156 " fill-opacity="1" fill-rule="nonzero"/><path fill="#ffffff" d="M 86.839844 30.785156 L 87.726562 33.511719 L 90.59375 33.511719 L 88.273438 35.199219 L 89.160156 37.925781 L 86.839844 36.242188 L 84.519531 37.925781 L 85.40625 35.199219 L 83.085938 33.511719 L 85.953125 33.511719 L 86.839844 30.785156 " fill-opacity="1" fill-rule="nonzero"/><path fill="#ffffff" d="M 8.351562 44.257812 L 9.238281 46.980469 L 12.105469 46.980469 L 9.785156 48.667969 L 10.671875 51.394531 L 8.351562 49.707031 L 6.035156 51.394531 L 6.917969 48.667969 L 4.601562 46.980469 L 7.46875 46.980469 L 8.351562 44.257812 " fill-opacity="1" fill-rule="nonzero"/><path fill="#ffffff" d="M 24.050781 44.257812 L 24.9375 46.980469 L 27.804688 46.980469 L 25.484375 48.667969 L 26.371094 51.394531 L 24.050781 49.707031 L 21.730469 51.394531 L 22.617188 48.667969 L 20.296875 46.980469 L 23.164062 46.980469 L 24.050781 44.257812 " fill-opacity="1" fill-rule="nonzero"/><path fill="#ffffff" d="M 39.746094 44.257812 L 40.632812 46.980469 L 43.5 46.980469 L 41.179688 48.667969 L 42.066406 51.394531 L 39.746094 49.707031 L 37.429688 51.394531 L 38.3125 48.667969 L 35.996094 46.980469 L 38.863281 46.980469 L 39.746094 44.257812 " fill-opacity="1" fill-rule="nonzero"/><path fill="#ffffff" d="M 55.445312 44.257812 L 56.332031 46.980469 L 59.199219 46.980469 L 56.878906 48.667969 L 57.765625 51.394531 L 55.445312 49.707031 L 53.125 51.394531 L 54.011719 48.667969 L 51.691406 46.980469 L 54.558594 46.980469 L 55.445312 44.257812 " fill-opacity="1" fill-rule="nonzero"/><path fill="#ffffff" d="M 71.140625 44.257812 L 72.027344 46.980469 L 74.894531 46.980469 L 72.574219 48.667969 L 73.460938 51.394531 L 71.140625 49.707031 L 68.824219 51.394531 L 69.707031 48.667969 L 67.390625 46.980469 L 70.257812 46.980469 L 71.140625 44.257812 " fill-opacity="1" fill-rule="nonzero"/><path fill="#ffffff" d="M 86.839844 44.257812 L 87.726562 46.980469 L 90.59375 46.980469 L 88.273438 48.667969 L 89.160156 51.394531 L 86.839844 49.707031 L 84.519531 51.394531 L 85.40625 48.667969 L 83.085938 46.980469 L 85.953125 46.980469 L 86.839844 44.257812 " fill-opacity="1" fill-rule="nonzero"/><path fill="#ffffff" d="M 8.351562 57.726562 L 9.238281 60.453125 L 12.105469 60.453125 L 9.785156 62.136719 L 10.671875 64.863281 L 8.351562 63.175781 L 6.035156 64.863281 L 6.917969 62.136719 L 4.601562 60.453125 L 7.46875 60.453125 L 8.351562 57.726562 " fill-opacity="1" fill-rule="nonzero"/><path fill="#ffffff" d="M 24.050781 57.726562 L 24.9375 60.453125 L 27.804688 60.453125 L 25.484375 62.136719 L 26.371094 64.863281 L 24.050781 63.175781 L 21.730469 64.863281 L 22.617188 62.136719 L 20.296875 60.453125 L 23.164062 60.453125 L 24.050781 57.726562 " fill-opacity="1" fill-rule="nonzero"/><path fill="#ffffff" d="M 39.746094 57.726562 L 40.632812 60.453125 L 43.5 60.453125 L 41.179688 62.136719 L 42.066406 64.863281 L 39.746094 63.175781 L 37.429688 64.863281 L 38.3125 62.136719 L 35.996094 60.453125 L 38.863281 60.453125 L 39.746094 57.726562 " fill-opacity="1" fill-rule="nonzero"/><path fill="#ffffff" d="M 55.445312 57.726562 L 56.332031 60.453125 L 59.199219 60.453125 L 56.878906 62.136719 L 57.765625 64.863281 L 55.445312 63.175781 L 53.125 64.863281 L 54.011719 62.136719 L 51.691406 60.453125 L 54.558594 60.453125 L 55.445312 57.726562 " fill-opacity="1" fill-rule="nonzero"/><path fill="#ffffff" d="M 71.140625 57.726562 L 72.027344 60.453125 L 74.894531 60.453125 L 72.574219 62.136719 L 73.460938 64.863281 L 71.140625 63.175781 L 68.824219 64.863281 L 69.707031 62.136719 L 67.390625 60.453125 L 70.257812 60.453125 L 71.140625 57.726562 " fill-opacity="1" fill-rule="nonzero"/><path fill="#ffffff" d="M 86.839844 57.726562 L 87.726562 60.453125 L 90.59375 60.453125 L 88.273438 62.136719 L 89.160156 64.863281 L 86.839844 63.175781 L 84.519531 64.863281 L 85.40625 62.136719 L 83.085938 60.453125 L 85.953125 60.453125 L 86.839844 57.726562 " fill-opacity="1" fill-rule="nonzero"/></g></g></g></svg>