<?xml version="1.0" encoding="UTF-8" standalone="no"?>
<svg
   width="433.23917"
   zoomAndPan="magnify"
   viewBox="0 0 324.92937 154.21151"
   height="205.61536"
   preserveAspectRatio="xMidYMid"
   version="1.2"
   id="svg18"
   sodipodi:docname="GIF Sections.svg"
   inkscape:version="1.3 (0e150ed, 2023-07-21)"
   xmlns:inkscape="http://www.inkscape.org/namespaces/inkscape"
   xmlns:sodipodi="http://sodipodi.sourceforge.net/DTD/sodipodi-0.dtd"
   xmlns="http://www.w3.org/2000/svg"
   xmlns:svg="http://www.w3.org/2000/svg">
  <sodipodi:namedview
     id="namedview18"
     pagecolor="#ffffff"
     bordercolor="#000000"
     borderopacity="0.25"
     inkscape:showpageshadow="2"
     inkscape:pageopacity="0.0"
     inkscape:pagecheckerboard="0"
     inkscape:deskcolor="#d1d1d1"
     inkscape:zoom="0.472"
     inkscape:cx="211.86441"
     inkscape:cy="95.338983"
     inkscape:window-width="1472"
     inkscape:window-height="449"
     inkscape:window-x="62"
     inkscape:window-y="39"
     inkscape:window-maximized="0"
     inkscape:current-layer="svg18" />
  <defs
     id="defs1" />
  <g
     id="ea89d9e82d"
     transform="translate(-28.497308,-116.32955)">
    <g
       style="fill:#000000;fill-opacity:1"
       id="g2">
      <g
         transform="translate(29.41137,259.25142)"
         id="g1">
        <path
           style="stroke:none"
           d="M 106.22656,-24.121094 H 89.78125 v -4.1875 h 4.1875 V 4.183594 H 57.382812 v -32.492188 h 4.183594 v 4.1875 H -0.914062 V -49.679688 L 60.9375,-140.77344 h 33.03125 v 90.042971 h -4.1875 v -4.183593 h 20.62891 v 30.792968 z m 0,-8.371094 v 4.183594 h -4.1875 v -22.421875 h 4.1875 v 4.183594 H 85.597656 v -90.042965 h 4.183594 v 4.1875 h -26.625 v -4.1875 l 3.460938,2.35156 -59.882813,88.195311 -3.464844,-2.351562 h 4.1875 v 20.085937 h -4.1875 v -4.183594 H 65.753906 V 0 h -4.1875 V -4.183594 H 89.78125 V 0 H 85.597656 V -32.492188 Z M 57.382812,-50.730469 v -23.167969 c 0,-3.921874 0.15625,-9.585937 0.46875,-16.996093 0.320313,-7.507813 0.585938,-11.933599 0.796876,-13.273439 l 4.132812,0.65234 v 4.183599 h -0.746094 v -4.183599 l 3.816406,1.71875 c -2.398437,5.320318 -5.28125,10.500005 -8.648437,15.550786 l -25.03125,37.824219 -3.488281,-2.308594 v -4.183593 h 32.882812 v 4.183593 z m 8.371094,4.183594 H 20.894531 l 29.34375,-44.34375 c 3.109375,-4.667969 5.773438,-9.449215 7.980469,-14.347655 l 1.113281,-2.46485 h 8.347657 l -0.761719,4.83985 c -0.164063,1.02734 -0.394531,5.132811 -0.699219,12.324218 -0.3125,7.289062 -0.464844,12.835937 -0.464844,16.640624 z m 0,0"
           id="path1" />
      </g>
    </g>
    <g
       style="fill:#000000;fill-opacity:1"
       id="g4">
      <g
         transform="translate(132.88668,259.25142)"
         id="g3">
        <path
           style="stroke:none"
           d="m 106.58203,-68.292969 c 0,24.714844 -4.15234,43.15625 -12.453124,55.328125 -4.335937,6.355469 -9.851562,11.125 -16.550781,14.316406 -6.585937,3.132813 -14.257813,4.703126 -23.015625,4.703126 -8.535156,0 -16.070312,-1.625 -22.597656,-4.878907 -6.59375,-3.285156 -12.101563,-8.1875 -16.511719,-14.714843 C 6.96875,-26.078125 2.726562,-44.332031 2.726562,-68.292969 c 0,-24.964843 4.136719,-43.519531 12.40625,-55.656251 4.316407,-6.33984 9.8125,-11.09765 16.488282,-14.28125 6.566406,-3.1289 14.210937,-4.6914 22.941406,-4.6914 8.539062,0 16.082031,1.64062 22.628906,4.92578 6.609375,3.32031 12.132813,8.26953 16.574219,14.85546 8.542965,12.66407 12.816405,30.949224 12.816405,54.847661 z m -8.371092,0 c 0,-22.195312 -3.796876,-38.914061 -11.382813,-50.167971 -3.625,-5.37109 -8.089844,-9.39062 -13.390625,-12.05078 -5.367188,-2.69531 -11.660156,-4.03906 -18.875,-4.03906 -7.46875,0 -13.914062,1.29297 -19.339844,3.875 -5.3125,2.53516 -9.703125,6.34765 -13.171875,11.4375 -7.300781,10.71875 -10.953125,27.699218 -10.953125,50.945311 0,22.25 3.761719,38.941407 11.289063,50.066407 3.589843,5.308593 8.027343,9.277343 13.3125,11.910156 5.351562,2.667968 11.640625,4 18.863281,4 7.496094,0 13.96875,-1.296875 19.417969,-3.890625 5.339843,-2.542969 9.75,-6.367188 13.230469,-11.472657 7.332031,-10.75 11,-27.621093 11,-50.613281 z m -58.429688,0 c 0,16.214844 1.347656,27.703125 4.046875,34.460938 1.15625,2.898437 2.632813,5.015625 4.4375,6.359375 1.695313,1.261718 3.792969,1.890625 6.296875,1.890625 2.425781,0 4.480469,-0.632813 6.164062,-1.90625 1.816407,-1.375 3.328126,-3.542969 4.53125,-6.507813 2.785157,-6.84375 4.175782,-18.277344 4.175782,-34.296875 0,-16.203125 -1.402344,-27.707031 -4.214844,-34.515621 -1.21875,-2.95313 -2.738281,-5.11719 -4.550781,-6.48829 -1.675781,-1.26562 -3.710938,-1.89843 -6.105469,-1.89843 -2.460938,0 -4.535156,0.63281 -6.21875,1.90234 -1.804688,1.35938 -3.296875,3.50781 -4.472656,6.44531 -2.726563,6.81641 -4.089844,18.335941 -4.089844,34.554691 z m -8.371094,0 c 0,-17.292969 1.5625,-29.847656 4.691406,-37.664061 1.75,-4.38281 4.152344,-7.72656 7.207032,-10.02344 3.171875,-2.39062 6.925781,-3.58594 11.253906,-3.58594 4.265625,0 7.984375,1.19532 11.152344,3.58985 3.027344,2.28906 5.441406,5.61328 7.242187,9.97656 3.234375,7.828125 4.847657,20.398438 4.847657,37.707031 0,17.113281 -1.597657,29.597657 -4.792969,37.449219 -1.785157,4.386719 -4.195313,7.730469 -7.238281,10.03125 -3.175782,2.402344 -6.914063,3.601562 -11.210938,3.601562 -4.351562,0 -8.117188,-1.179687 -11.292969,-3.546874 -3.070312,-2.285157 -5.476562,-5.609376 -7.21875,-9.96875 -3.09375,-7.753907 -4.640625,-20.277344 -4.640625,-37.566407 z m 0,0"
           id="path2" />
      </g>
    </g>
    <g
       style="fill:#000000;fill-opacity:1"
       id="g6">
      <g
         transform="translate(236.362,259.25142)"
         id="g5">
        <path
           style="stroke:none"
           d="M 106.22656,-24.121094 H 89.78125 v -4.1875 h 4.1875 V 4.183594 H 57.382812 v -32.492188 h 4.183594 v 4.1875 H -0.914062 V -49.679688 L 60.9375,-140.77344 h 33.03125 v 90.042971 h -4.1875 v -4.183593 h 20.62891 v 30.792968 z m 0,-8.371094 v 4.183594 h -4.1875 v -22.421875 h 4.1875 v 4.183594 H 85.597656 v -90.042965 h 4.183594 v 4.1875 h -26.625 v -4.1875 l 3.460938,2.35156 -59.882813,88.195311 -3.464844,-2.351562 h 4.1875 v 20.085937 h -4.1875 v -4.183594 H 65.753906 V 0 h -4.1875 V -4.183594 H 89.78125 V 0 H 85.597656 V -32.492188 Z M 57.382812,-50.730469 v -23.167969 c 0,-3.921874 0.15625,-9.585937 0.46875,-16.996093 0.320313,-7.507813 0.585938,-11.933599 0.796876,-13.273439 l 4.132812,0.65234 v 4.183599 h -0.746094 v -4.183599 l 3.816406,1.71875 c -2.398437,5.320318 -5.28125,10.500005 -8.648437,15.550786 l -25.03125,37.824219 -3.488281,-2.308594 v -4.183593 h 32.882812 v 4.183593 z m 8.371094,4.183594 H 20.894531 l 29.34375,-44.34375 c 3.109375,-4.667969 5.773438,-9.449215 7.980469,-14.347655 l 1.113281,-2.46485 h 8.347657 l -0.761719,4.83985 c -0.164063,1.02734 -0.394531,5.132811 -0.699219,12.324218 -0.3125,7.289062 -0.464844,12.835937 -0.464844,16.640624 z m 0,0"
           id="path4" />
      </g>
    </g>
    <g
       style="fill:#000000;fill-opacity:1"
       id="g8">
      <g
         transform="translate(40.241669,268.66606)"
         id="g7">
        <path
           style="stroke:none"
           d="M 106.23438,-28.3125 H 89.78125 V 0 H 61.5625 V -28.3125 H 3.265625 V -48.390625 L 63.15625,-136.59375 h 26.625 v 85.859375 h 16.45313 z M 61.5625,-50.734375 V -73.90625 c 0,-3.863281 0.15625,-9.46875 0.46875,-16.8125 0.3125,-7.351562 0.5625,-11.61719 0.75,-12.79688 h -0.75 c -2.304688,5.105474 -5.074219,10.085942 -8.3125,14.937505 l -25.03125,37.84375 z m 0,0"
           id="path6" />
      </g>
    </g>
    <g
       style="fill:#000000;fill-opacity:1"
       id="g10">
      <g
         transform="translate(143.71698,268.66606)"
         id="g9">
        <path
           style="stroke:none"
           d="m 102.40625,-68.296875 c 0,23.855469 -3.914062,41.515625 -11.734375,52.984375 C 82.859375,-3.851562 70.820312,1.875 54.5625,1.875 c -15.761719,0 -27.648438,-5.914062 -35.65625,-17.75 -8,-11.84375 -12,-29.316406 -12,-52.421875 0,-24.101563 3.890625,-41.867185 11.671875,-53.296875 7.789063,-11.4375 19.785156,-17.15625 35.984375,-17.15625 15.757812,0 27.671875,5.98438 35.734375,17.95312 8.070313,11.96094 12.109375,29.460942 12.109375,52.500005 z m -66.8125,0 c 0,16.75 1.445312,28.757813 4.34375,36.015625 2.894531,7.261719 7.769531,10.890625 14.625,10.890625 6.726562,0 11.585938,-3.671875 14.578125,-11.015625 2.988281,-7.351562 4.484375,-19.316406 4.484375,-35.890625 0,-16.75 -1.511719,-28.785156 -4.53125,-36.109375 -3.023438,-7.32031 -7.867188,-10.98438 -14.53125,-10.98438 -6.792969,0 -11.652344,3.66407 -14.578125,10.98438 -2.929687,7.324219 -4.390625,19.359375 -4.390625,36.109375 z m 0,0"
           id="path8" />
      </g>
    </g>
    <g
       style="fill:#000000;fill-opacity:1"
       id="g12">
      <g
         transform="translate(247.1923,268.66606)"
         id="g11">
        <path
           style="stroke:none"
           d="M 106.23438,-28.3125 H 89.78125 V 0 H 61.5625 V -28.3125 H 3.265625 V -48.390625 L 63.15625,-136.59375 h 26.625 v 85.859375 h 16.45313 z M 61.5625,-50.734375 V -73.90625 c 0,-3.863281 0.15625,-9.46875 0.46875,-16.8125 0.3125,-7.351562 0.5625,-11.61719 0.75,-12.79688 h -0.75 c -2.304688,5.105474 -5.074219,10.085942 -8.3125,14.937505 l -25.03125,37.84375 z m 0,0"
           id="path10" />
      </g>
    </g>
    <g
       style="fill:#ffffff;fill-opacity:1"
       id="g14">
      <g
         transform="translate(29.41137,259.25142)"
         id="g13">
        <path
           style="stroke:none"
           d="M 106.23438,-28.3125 H 89.78125 V 0 H 61.5625 V -28.3125 H 3.265625 V -48.390625 L 63.15625,-136.59375 h 26.625 v 85.859375 h 16.45313 z M 61.5625,-50.734375 V -73.90625 c 0,-3.863281 0.15625,-9.46875 0.46875,-16.8125 0.3125,-7.351562 0.5625,-11.61719 0.75,-12.79688 h -0.75 c -2.304688,5.105474 -5.074219,10.085942 -8.3125,14.937505 l -25.03125,37.84375 z m 0,0"
           id="path12" />
      </g>
    </g>
    <g
       style="fill:#ffffff;fill-opacity:1"
       id="g16">
      <g
         transform="translate(132.88668,259.25142)"
         id="g15">
        <path
           style="stroke:none"
           d="m 102.40625,-68.296875 c 0,23.855469 -3.914062,41.515625 -11.734375,52.984375 C 82.859375,-3.851562 70.820312,1.875 54.5625,1.875 c -15.761719,0 -27.648438,-5.914062 -35.65625,-17.75 -8,-11.84375 -12,-29.316406 -12,-52.421875 0,-24.101563 3.890625,-41.867185 11.671875,-53.296875 7.789063,-11.4375 19.785156,-17.15625 35.984375,-17.15625 15.757812,0 27.671875,5.98438 35.734375,17.95312 8.070313,11.96094 12.109375,29.460942 12.109375,52.500005 z m -66.8125,0 c 0,16.75 1.445312,28.757813 4.34375,36.015625 2.894531,7.261719 7.769531,10.890625 14.625,10.890625 6.726562,0 11.585938,-3.671875 14.578125,-11.015625 2.988281,-7.351562 4.484375,-19.316406 4.484375,-35.890625 0,-16.75 -1.511719,-28.785156 -4.53125,-36.109375 -3.023438,-7.32031 -7.867188,-10.98438 -14.53125,-10.98438 -6.792969,0 -11.652344,3.66407 -14.578125,10.98438 -2.929687,7.324219 -4.390625,19.359375 -4.390625,36.109375 z m 0,0"
           id="path14" />
      </g>
    </g>
    <g
       style="fill:#ffffff;fill-opacity:1"
       id="g18">
      <g
         transform="translate(236.362,259.25142)"
         id="g17">
        <path
           style="stroke:none"
           d="M 106.23438,-28.3125 H 89.78125 V 0 H 61.5625 V -28.3125 H 3.265625 V -48.390625 L 63.15625,-136.59375 h 26.625 v 85.859375 h 16.45313 z M 61.5625,-50.734375 V -73.90625 c 0,-3.863281 0.15625,-9.46875 0.46875,-16.8125 0.3125,-7.351562 0.5625,-11.61719 0.75,-12.79688 h -0.75 c -2.304688,5.105474 -5.074219,10.085942 -8.3125,14.937505 l -25.03125,37.84375 z m 0,0"
           id="path16" />
      </g>
    </g>
  </g>
</svg>
