<?xml version="1.0" encoding="UTF-8" standalone="no"?>
<svg
   width="206.02879"
   zoomAndPan="magnify"
   viewBox="0 0 154.5216 48.362416"
   height="64.483223"
   preserveAspectRatio="xMidYMid"
   version="1.2"
   id="svg24"
   sodipodi:docname="GIF Sections (2).svg"
   inkscape:version="1.3 (0e150ed, 2023-07-21)"
   xmlns:inkscape="http://www.inkscape.org/namespaces/inkscape"
   xmlns:sodipodi="http://sodipodi.sourceforge.net/DTD/sodipodi-0.dtd"
   xmlns="http://www.w3.org/2000/svg"
   xmlns:svg="http://www.w3.org/2000/svg">
  <sodipodi:namedview
     id="namedview24"
     pagecolor="#ffffff"
     bordercolor="#000000"
     borderopacity="0.25"
     inkscape:showpageshadow="2"
     inkscape:pageopacity="0.0"
     inkscape:pagecheckerboard="0"
     inkscape:deskcolor="#d1d1d1"
     inkscape:zoom="0.472"
     inkscape:cx="101.69492"
     inkscape:cy="29.661017"
     inkscape:window-width="1472"
     inkscape:window-height="449"
     inkscape:window-x="62"
     inkscape:window-y="39"
     inkscape:window-maximized="0"
     inkscape:current-layer="svg24" />
  <defs
     id="defs1" />
  <g
     id="2dbd004d79"
     transform="translate(-111.5707,-165.18358)">
    <g
       style="fill:#000000;fill-opacity:1"
       id="g2">
      <g
         transform="translate(107.49258,209.99999)"
         id="g1">
        <path
           style="stroke:none"
           d="M 5.390625,-44.144531 H 18.71875 c 6.328125,0 10.972656,0.929687 13.929688,2.792969 1.578124,0.996093 2.765624,2.289062 3.5625,3.882812 0.777343,1.5625 1.164062,3.386719 1.164062,5.476562 0,2.84375 -0.683594,5.203126 -2.054688,7.074219 -1.410156,1.929688 -3.289062,3.085938 -5.632812,3.476563 l -0.214844,-1.292969 h 1.3125 v 0.292969 h -1.3125 l 0.285156,-1.28125 c 3.039063,0.679687 5.257813,1.980468 6.652344,3.910156 1.367188,1.890625 2.050782,4.351562 2.050782,7.390625 0,2.144531 -0.394532,4.066406 -1.179688,5.765625 -0.796875,1.71875 -1.984375,3.1875 -3.5625,4.414062 C 30.660156,0.128906 26.558594,1.3125 21.414062,1.3125 H 4.078125 v -45.457031 z m 0,2.625 v -1.3125 h 1.3125 V 0 h -1.3125 v -1.3125 h 16.023437 c 4.546876,0 8.109376,-1.003906 10.695313,-3.007812 2.484375,-1.921876 3.726563,-4.625 3.726563,-8.101563 0,-2.46875 -0.515626,-4.421875 -1.550782,-5.851563 -1.007812,-1.390624 -2.707031,-2.355468 -5.097656,-2.886718 l -1.027344,-0.230469 v -2.457031 l 1.097656,-0.179688 c 1.640626,-0.273437 2.957032,-1.089844 3.945313,-2.441406 1.03125,-1.410156 1.546875,-3.25 1.546875,-5.523438 0,-1.679687 -0.296875,-3.113281 -0.890625,-4.304687 -0.574219,-1.152344 -1.445313,-2.097656 -2.609375,-2.832031 -2.53125,-1.59375 -6.707031,-2.390625 -12.53125,-2.390625 z m 9.082031,14.339843 h 5.273438 c 2.1875,0 3.722656,-0.304687 4.601562,-0.914062 0.726563,-0.5 1.085938,-1.398438 1.085938,-2.695312 0,-0.613282 -0.101563,-1.117188 -0.304688,-1.519532 -0.1875,-0.363281 -0.46875,-0.65625 -0.851562,-0.882812 -0.996094,-0.589844 -2.671875,-0.886719 -5.03125,-0.886719 h -4.773438 v -1.3125 h 1.3125 v 9.523437 h -1.3125 z m -1.3125,2.625 v -12.148437 h 6.085938 c 2.839844,0 4.960937,0.417969 6.371094,1.253906 0.816406,0.484375 1.433593,1.132813 1.847656,1.949219 0.398437,0.773438 0.59375,1.679688 0.59375,2.710938 0,1.058593 -0.171875,1.988281 -0.523438,2.789062 -0.375,0.855469 -0.941406,1.546875 -1.695312,2.070312 -1.328125,0.914063 -3.359375,1.375 -6.09375,1.375 z m 2.625,5.894532 V -7.5 h -1.3125 v -1.3125 h 5.917969 c 2.191406,0 3.765625,-0.382812 4.714844,-1.144531 0.863281,-0.695313 1.296875,-1.820313 1.296875,-3.371094 0,-0.691406 -0.117188,-1.28125 -0.347656,-1.769531 -0.21875,-0.460938 -0.550782,-0.84375 -0.996094,-1.15625 -1.042969,-0.730469 -2.699219,-1.09375 -4.960938,-1.09375 h -5.625 v -1.3125 z m -2.625,-1.3125 h 6.9375 c 2.816406,0 4.96875,0.519531 6.464844,1.566406 0.824219,0.578125 1.445312,1.304688 1.859375,2.179688 0.402344,0.84375 0.605469,1.808593 0.605469,2.898437 0,2.390625 -0.757813,4.195313 -2.277344,5.414063 -1.433594,1.152343 -3.550781,1.726562 -6.359375,1.726562 h -7.230469 z m 0,0"
           id="path1" />
      </g>
    </g>
    <g
       style="fill:#000000;fill-opacity:1"
       id="g4">
      <g
         transform="translate(146.00508,209.99999)"
         id="g3">
        <path
           style="stroke:none"
           d="M 4.078125,0 V -44.144531 H 15.785156 V -7.5 h -1.3125 V -8.8125 H 33.15625 V 1.3125 H 4.078125 Z m 2.625,0 h -1.3125 V -1.3125 H 31.84375 V 0 h -1.3125 v -7.5 h 1.3125 v 1.3125 H 13.160156 v -36.644531 h 1.3125 v 1.3125 H 5.390625 v -1.3125 h 1.3125 z m 0,0"
           id="path2" />
      </g>
    </g>
    <g
       style="fill:#000000;fill-opacity:1"
       id="g6">
      <g
         transform="translate(178.10156,209.99999)"
         id="g5">
        <path
           style="stroke:none"
           d="m 45.578125,-21.472656 c 0,7.429687 -1.871094,13.175781 -5.621094,17.234375 -3.773437,4.089843 -9.132812,6.136719 -16.082031,6.136719 -6.945312,0 -12.304688,-2.046876 -16.078125,-6.136719 -3.75,-4.058594 -5.625,-9.824219 -5.625,-17.292969 0,-7.476562 1.882813,-13.21875 5.644531,-17.234375 3.785156,-4.035156 9.15625,-6.050781 16.117188,-6.050781 6.96875,0 12.324218,2.035156 16.070312,6.105468 3.71875,4.039063 5.574219,9.785157 5.574219,17.238282 z m -2.625,0 c 0,-6.769532 -1.625,-11.921875 -4.882813,-15.460938 -3.222656,-3.507812 -7.9375,-5.257812 -14.136718,-5.257812 -6.199219,0 -10.9375,1.738281 -14.203125,5.222656 -3.289063,3.507812 -4.933594,8.652344 -4.933594,15.4375 0,6.785156 1.644531,11.957031 4.925781,15.515625 3.257813,3.527344 7.976563,5.289063 14.152344,5.289063 6.179688,0 10.898438,-1.761719 14.15625,-5.289063 3.28125,-3.558594 4.921875,-8.710937 4.921875,-15.457031 z m -28.632813,0 c 0,4.492187 0.820313,7.832031 2.460938,10.019531 1.554688,2.074219 3.917969,3.109375 7.09375,3.109375 3.1875,0 5.554688,-1.027344 7.105469,-3.085938 1.636719,-2.175781 2.453125,-5.523437 2.453125,-10.042968 0,-4.535156 -0.8125,-7.890625 -2.441406,-10.070313 -1.539063,-2.0625 -3.890626,-3.089843 -7.058594,-3.089843 -3.175782,0 -5.550782,1.039062 -7.125,3.125 -1.660156,2.195312 -2.488282,5.542968 -2.488282,10.035156 z m -2.625,0 c 0,-5.082032 1.007813,-8.953125 3.019532,-11.617188 2.097656,-2.78125 5.171875,-4.167968 9.21875,-4.167968 4.042968,0 7.097656,1.378906 9.160156,4.144531 1.976562,2.644531 2.964844,6.523437 2.964844,11.640625 0,5.105468 -0.992188,8.980468 -2.980469,11.621094 -2.074219,2.753906 -5.140625,4.132812 -9.203125,4.132812 -4.050781,0 -7.113281,-1.386719 -9.191406,-4.15625 -1.992188,-2.65625 -2.988282,-6.523438 -2.988282,-11.597656 z m 0,0"
           id="path4" />
      </g>
    </g>
    <g
       style="fill:#000000;fill-opacity:1"
       id="g8">
      <g
         transform="translate(224.05547,209.99999)"
         id="g7">
        <path
           style="stroke:none"
           d="m 21.648438,-25.363281 h 18.304687 v 24.46875 l -0.902344,0.296875 C 36.226562,0.324219 33.5625,0.96875 31.058594,1.34375 28.5625,1.714844 26.011719,1.898438 23.40625,1.898438 c -6.851562,0 -12.117188,-2.042969 -15.785156,-6.132813 -3.632813,-4.050781 -5.449219,-9.796875 -5.449219,-17.238281 0,-7.285156 2.109375,-12.988282 6.328125,-17.113282 4.210938,-4.117187 10,-6.171874 17.367188,-6.171874 4.578124,0 8.988281,0.914062 13.234374,2.742187 l 1.191407,0.511719 -4.054688,9.761718 -1.257812,-0.628906 c -2.941407,-1.46875 -5.996094,-2.203125 -9.171875,-2.203125 -3.53125,0 -6.351563,1.171875 -8.453125,3.515625 -2.140625,2.386719 -3.210938,5.640625 -3.210938,9.761719 0,4.347656 0.859375,7.628906 2.582031,9.84375 1.640626,2.113281 4.0625,3.167969 7.265626,3.167969 1.808593,0 3.648437,-0.1875 5.515624,-0.558594 l 0.257813,1.285156 h -1.3125 v -8.933594 h 1.3125 v 1.3125 h -9.429687 v -10.183593 z m 0,2.625 v -1.3125 h 1.3125 v 7.558593 h -1.3125 v -1.3125 h 9.429687 v 11.320313 l -1.054687,0.210937 c -2.039063,0.410157 -4.046876,0.613282 -6.03125,0.613282 -4.058594,0 -7.171876,-1.394532 -9.339844,-4.183594 -2.089844,-2.6875 -3.132813,-6.507812 -3.132813,-11.453125 0,-4.789063 1.292969,-8.625 3.878907,-11.511719 2.625,-2.929687 6.09375,-4.390625 10.410156,-4.390625 3.585937,0 7.035156,0.824219 10.34375,2.480469 l -0.585938,1.175781 -1.210937,-0.503906 3.015625,-7.265625 1.210937,0.503906 -0.515625,1.203125 c -3.917968,-1.6875 -7.984375,-2.527343 -12.199218,-2.527343 -6.652344,0 -11.832032,1.808593 -15.53125,5.425781 -3.691407,3.609375 -5.539063,8.6875 -5.539063,15.234375 0,6.773437 1.59375,11.933594 4.777344,15.484375 3.148437,3.507812 7.757812,5.261719 13.832031,5.261719 2.476562,0 4.898438,-0.175782 7.265625,-0.527344 2.359375,-0.351563 4.878906,-0.964844 7.5625,-1.839844 l 0.40625,1.25 h -1.3125 v -22.207031 h 1.3125 v 1.3125 z m 0,0"
           id="path6" />
      </g>
    </g>
    <g
       style="fill:#000000;fill-opacity:1"
       id="g10">
      <g
         transform="translate(110.88877,212.95225)"
         id="g9">
        <path
           style="stroke:none"
           d="M 5.390625,-42.828125 H 18.71875 c 6.070312,0 10.476562,0.867187 13.21875,2.59375 2.75,1.730469 4.125,4.476563 4.125,8.234375 0,2.5625 -0.601562,4.667969 -1.796875,6.3125 -1.199219,1.636719 -2.796875,2.621094 -4.796875,2.953125 v 0.296875 c 2.71875,0.605469 4.675781,1.742188 5.875,3.40625 1.207031,1.65625 1.8125,3.859375 1.8125,6.609375 0,3.90625 -1.414062,6.953125 -4.234375,9.140625 C 30.097656,-1.09375 26.265625,0 21.421875,0 H 5.390625 Z M 14.46875,-25.875 H 19.75 c 2.457031,0 4.238281,-0.378906 5.34375,-1.140625 1.101562,-0.757813 1.65625,-2.019531 1.65625,-3.78125 0,-1.632813 -0.605469,-2.804687 -1.8125,-3.515625 -1.199219,-0.71875 -3.09375,-1.078125 -5.6875,-1.078125 h -4.78125 z m 0,7.21875 V -7.5 h 5.921875 c 2.5,0 4.34375,-0.476562 5.53125,-1.4375 1.195313,-0.957031 1.796875,-2.421875 1.796875,-4.390625 0,-3.550781 -2.542969,-5.328125 -7.625,-5.328125 z m 0,0"
           id="path8" />
      </g>
    </g>
    <g
       style="fill:#000000;fill-opacity:1"
       id="g12">
      <g
         transform="translate(149.40127,212.95225)"
         id="g11">
        <path
           style="stroke:none"
           d="M 5.390625,0 V -42.828125 H 14.46875 V -7.5 h 17.375 V 0 Z m 0,0"
           id="path10" />
      </g>
    </g>
    <g
       style="fill:#000000;fill-opacity:1"
       id="g14">
      <g
         transform="translate(181.49776,212.95225)"
         id="g13">
        <path
           style="stroke:none"
           d="m 44.265625,-21.46875 c 0,7.085938 -1.761719,12.53125 -5.28125,16.34375 C 35.472656,-1.3125 30.4375,0.59375 23.875,0.59375 17.3125,0.59375 12.269531,-1.3125 8.75,-5.125 5.238281,-8.9375 3.484375,-14.40625 3.484375,-21.53125 c 0,-7.132812 1.757813,-12.578125 5.28125,-16.328125 C 12.296875,-41.617188 17.351562,-43.5 23.9375,-43.5 c 6.582031,0 11.613281,1.898438 15.09375,5.6875 3.488281,3.78125 5.234375,9.230469 5.234375,16.34375 z m -31.25,0 c 0,4.78125 0.90625,8.386719 2.71875,10.8125 1.8125,2.417969 4.523437,3.625 8.140625,3.625 7.25,0 10.875,-4.8125 10.875,-14.4375 0,-9.65625 -3.605469,-14.484375 -10.8125,-14.484375 -3.617188,0 -6.339844,1.21875 -8.171875,3.65625 -1.835937,2.429687 -2.75,6.039063 -2.75,10.828125 z m 0,0"
           id="path12" />
      </g>
    </g>
    <g
       style="fill:#000000;fill-opacity:1"
       id="g16">
      <g
         transform="translate(227.45167,212.95225)"
         id="g15">
        <path
           style="stroke:none"
           d="M 21.65625,-24.046875 H 38.640625 V -1.84375 c -2.75,0.898438 -5.34375,1.527344 -7.78125,1.890625 -2.429687,0.363281 -4.914063,0.546875 -7.453125,0.546875 -6.460938,0 -11.398438,-1.898438 -14.8125,-5.703125 -3.40625,-3.800781 -5.109375,-9.253906 -5.109375,-16.359375 0,-6.914062 1.976563,-12.304688 5.9375,-16.171875 3.957031,-3.875 9.441406,-5.8125 16.453125,-5.8125 4.394531,0 8.628906,0.882813 12.703125,2.640625 l -3.015625,7.265625 c -3.125,-1.5625 -6.375,-2.34375 -9.75,-2.34375 -3.929688,0 -7.074219,1.320313 -9.4375,3.953125 -2.367188,2.636719 -3.546875,6.183594 -3.546875,10.640625 0,4.648437 0.953125,8.199219 2.859375,10.65625 1.90625,2.449219 4.675781,3.671875 8.3125,3.671875 1.894531,0 3.816406,-0.195312 5.765625,-0.59375 V -16.5 H 21.65625 Z m 0,0"
           id="path14" />
      </g>
    </g>
    <g
       style="fill:#ffffff;fill-opacity:1"
       id="g18">
      <g
         transform="translate(107.49258,209.99999)"
         id="g17">
        <path
           style="stroke:none"
           d="M 5.390625,-42.828125 H 18.71875 c 6.070312,0 10.476562,0.867187 13.21875,2.59375 2.75,1.730469 4.125,4.476563 4.125,8.234375 0,2.5625 -0.601562,4.667969 -1.796875,6.3125 -1.199219,1.636719 -2.796875,2.621094 -4.796875,2.953125 v 0.296875 c 2.71875,0.605469 4.675781,1.742188 5.875,3.40625 1.207031,1.65625 1.8125,3.859375 1.8125,6.609375 0,3.90625 -1.414062,6.953125 -4.234375,9.140625 C 30.097656,-1.09375 26.265625,0 21.421875,0 H 5.390625 Z M 14.46875,-25.875 H 19.75 c 2.457031,0 4.238281,-0.378906 5.34375,-1.140625 1.101562,-0.757813 1.65625,-2.019531 1.65625,-3.78125 0,-1.632813 -0.605469,-2.804687 -1.8125,-3.515625 -1.199219,-0.71875 -3.09375,-1.078125 -5.6875,-1.078125 h -4.78125 z m 0,7.21875 V -7.5 h 5.921875 c 2.5,0 4.34375,-0.476562 5.53125,-1.4375 1.195313,-0.957031 1.796875,-2.421875 1.796875,-4.390625 0,-3.550781 -2.542969,-5.328125 -7.625,-5.328125 z m 0,0"
           id="path16" />
      </g>
    </g>
    <g
       style="fill:#ffffff;fill-opacity:1"
       id="g20">
      <g
         transform="translate(146.00508,209.99999)"
         id="g19">
        <path
           style="stroke:none"
           d="M 5.390625,0 V -42.828125 H 14.46875 V -7.5 h 17.375 V 0 Z m 0,0"
           id="path18" />
      </g>
    </g>
    <g
       style="fill:#ffffff;fill-opacity:1"
       id="g22">
      <g
         transform="translate(178.10156,209.99999)"
         id="g21">
        <path
           style="stroke:none"
           d="m 44.265625,-21.46875 c 0,7.085938 -1.761719,12.53125 -5.28125,16.34375 C 35.472656,-1.3125 30.4375,0.59375 23.875,0.59375 17.3125,0.59375 12.269531,-1.3125 8.75,-5.125 5.238281,-8.9375 3.484375,-14.40625 3.484375,-21.53125 c 0,-7.132812 1.757813,-12.578125 5.28125,-16.328125 C 12.296875,-41.617188 17.351562,-43.5 23.9375,-43.5 c 6.582031,0 11.613281,1.898438 15.09375,5.6875 3.488281,3.78125 5.234375,9.230469 5.234375,16.34375 z m -31.25,0 c 0,4.78125 0.90625,8.386719 2.71875,10.8125 1.8125,2.417969 4.523437,3.625 8.140625,3.625 7.25,0 10.875,-4.8125 10.875,-14.4375 0,-9.65625 -3.605469,-14.484375 -10.8125,-14.484375 -3.617188,0 -6.339844,1.21875 -8.171875,3.65625 -1.835937,2.429687 -2.75,6.039063 -2.75,10.828125 z m 0,0"
           id="path20" />
      </g>
    </g>
    <g
       style="fill:#ffffff;fill-opacity:1"
       id="g24">
      <g
         transform="translate(224.05547,209.99999)"
         id="g23">
        <path
           style="stroke:none"
           d="M 21.65625,-24.046875 H 38.640625 V -1.84375 c -2.75,0.898438 -5.34375,1.527344 -7.78125,1.890625 -2.429687,0.363281 -4.914063,0.546875 -7.453125,0.546875 -6.460938,0 -11.398438,-1.898438 -14.8125,-5.703125 -3.40625,-3.800781 -5.109375,-9.253906 -5.109375,-16.359375 0,-6.914062 1.976563,-12.304688 5.9375,-16.171875 3.957031,-3.875 9.441406,-5.8125 16.453125,-5.8125 4.394531,0 8.628906,0.882813 12.703125,2.640625 l -3.015625,7.265625 c -3.125,-1.5625 -6.375,-2.34375 -9.75,-2.34375 -3.929688,0 -7.074219,1.320313 -9.4375,3.953125 -2.367188,2.636719 -3.546875,6.183594 -3.546875,10.640625 0,4.648437 0.953125,8.199219 2.859375,10.65625 1.90625,2.449219 4.675781,3.671875 8.3125,3.671875 1.894531,0 3.816406,-0.195312 5.765625,-0.59375 V -16.5 H 21.65625 Z m 0,0"
           id="path22" />
      </g>
    </g>
  </g>
</svg>
