<?xml version="1.0" encoding="UTF-8" standalone="no"?>
<svg
   width="463.9361"
   zoomAndPan="magnify"
   viewBox="0 0 347.95207 60.725697"
   height="80.967598"
   preserveAspectRatio="xMidYMid"
   version="1.2"
   id="svg60"
   sodipodi:docname="GIF Sections.svg"
   inkscape:version="1.3 (0e150ed, 2023-07-21)"
   xmlns:inkscape="http://www.inkscape.org/namespaces/inkscape"
   xmlns:sodipodi="http://sodipodi.sourceforge.net/DTD/sodipodi-0.dtd"
   xmlns="http://www.w3.org/2000/svg"
   xmlns:svg="http://www.w3.org/2000/svg">
  <sodipodi:namedview
     id="namedview60"
     pagecolor="#ffffff"
     bordercolor="#000000"
     borderopacity="0.25"
     inkscape:showpageshadow="2"
     inkscape:pageopacity="0.0"
     inkscape:pagecheckerboard="0"
     inkscape:deskcolor="#d1d1d1"
     inkscape:zoom="0.472"
     inkscape:cx="228.81356"
     inkscape:cy="46.610169"
     inkscape:window-width="1472"
     inkscape:window-height="449"
     inkscape:window-x="62"
     inkscape:window-y="39"
     inkscape:window-maximized="0"
     inkscape:current-layer="svg60" />
  <defs
     id="defs1" />
  <g
     id="1faf89cb39"
     transform="translate(-15.117581,-152.8203)">
    <g
       style="fill:#000000;fill-opacity:1"
       id="g2">
      <g
         transform="translate(12.945706,209.99999)"
         id="g1">
        <path
           style="stroke:none"
           d="m 23.582031,-34.574219 c -1.507812,0 -2.832031,0.273438 -3.972656,0.828125 -1.128906,0.546875 -2.097656,1.375 -2.90625,2.484375 -1.707031,2.335938 -2.558594,5.660157 -2.558594,9.964844 0,4.480469 0.808594,7.800781 2.425781,9.953125 1.527344,2.039062 3.867188,3.058594 7.011719,3.058594 2.859375,0 6.359375,-0.726563 10.496094,-2.179688 l 1.746094,-0.617187 v 10.34375 l -0.808594,0.339843 c -3.675781,1.53125 -7.769531,2.296876 -12.28125,2.296876 -6.628906,0 -11.722656,-2.039063 -15.285156,-6.117188 -3.515625,-4.027344 -5.277344,-9.738281 -5.277344,-17.136719 0,-4.65625 0.855469,-8.746093 2.566406,-12.277343 1.734375,-3.589844 4.234375,-6.34375 7.5,-8.265626 3.242188,-1.90625 7.023438,-2.859374 11.34375,-2.859374 4.359375,0 8.730469,1.046874 13.109375,3.144531 l 1.101563,0.527343 -3.898438,9.828126 -1.265625,-0.605469 c -1.558594,-0.738281 -3.125,-1.386719 -4.703125,-1.9375 -1.480469,-0.515625 -2.929687,-0.773438 -4.34375,-0.773438 z m 0,-2.625 c 1.714844,0 3.449219,0.304688 5.210938,0.921875 1.664062,0.582032 3.320312,1.261719 4.964843,2.046875 l -0.566406,1.183594 -1.21875,-0.484375 2.929688,-7.382812 1.21875,0.484374 -0.566406,1.183594 c -4.019532,-1.925781 -8.007813,-2.886718 -11.972657,-2.886718 -3.839843,0 -7.179687,0.832031 -10.011719,2.496093 -2.808593,1.652344 -4.964843,4.035157 -6.472656,7.148438 -1.53125,3.167969 -2.300781,6.878906 -2.300781,11.132812 0,6.738281 1.542969,11.878907 4.628906,15.410157 3.039063,3.480468 7.476563,5.21875 13.308594,5.21875 4.160156,0 7.917969,-0.699219 11.273437,-2.097657 l 0.503907,1.214844 h -1.3125 v -7.617187 h 1.3125 l 0.433593,1.234374 c -4.417968,1.554688 -8.203124,2.332032 -11.363281,2.332032 -4.019531,0 -7.058593,-1.367188 -9.113281,-4.105469 -1.964844,-2.621094 -2.949219,-6.464844 -2.949219,-11.53125 0,-4.878906 1.023438,-8.714844 3.066407,-11.511719 1.066406,-1.460937 2.355468,-2.558594 3.875,-3.296875 1.507812,-0.730469 3.214843,-1.09375 5.121093,-1.09375 z m 0,0"
           id="path1" />
      </g>
    </g>
    <g
       style="fill:#000000;fill-opacity:1"
       id="g4">
      <g
         transform="translate(49.37813,209.99999)"
         id="g3">
        <path
           style="stroke:none"
           d="M 30.355469,0.382812 27.25,-9.8125 l 1.253906,-0.382812 v 1.3125 H 12.890625 v -1.3125 L 14.144531,-9.8125 10.757812,1.3125 H -1.851562 L 14.1875,-44.320312 H 27.148438 L 43.25,1.3125 H 30.640625 Z M 32.867188,-0.382812 31.609375,0 v -1.3125 h 9.785156 V 0 l -1.234375,0.4375 -15.175781,-43.007812 1.234375,-0.4375 v 1.3125 H 15.117188 v -1.3125 l 1.238281,0.433593 L 1.238281,0.433594 0,0 V -1.3125 H 9.785156 V 0 l -1.253906,-0.382812 3.386719,-11.125 h 17.558593 z m -7.78125,-17.042969 -4.851563,-15.671875 c -0.371094,-1.25 -0.640625,-2.242188 -0.800781,-2.976563 l 1.277344,-0.28125 1.273437,0.324219 c -0.648437,2.523438 -2.5,8.722656 -5.554687,18.605469 L 15.175781,-17.8125 v -1.3125 h 11.160157 v 1.3125 z M 28.117188,-16.5 h -14.71875 l 0.523437,-1.699219 c 3.039063,-9.84375 4.878906,-16.007812 5.519531,-18.484375 l 2.550782,0.04297 c 0.152343,0.671875 0.402343,1.59375 0.75,2.765625 l 4.847656,15.675781 z m 0,0"
           id="path2" />
      </g>
    </g>
    <g
       style="fill:#000000;fill-opacity:1"
       id="g6">
      <g
         transform="translate(88.974617,209.99999)"
         id="g5">
        <path
           style="stroke:none"
           d="M 21.914062,1.3125 H 11.519531 v -36.585938 h 1.3125 v 1.3125 H -0.109375 v -10.183593 h 34.964844 v 10.183593 H 21.914062 v -1.3125 h 1.3125 V 1.3125 Z m 0,-2.625 V 0 h -1.3125 v -36.585938 h 12.941407 v 1.3125 h -1.3125 v -7.558593 h 1.3125 v 1.3125 H 1.199219 v -1.3125 h 1.3125 v 7.558593 h -1.3125 v -1.3125 H 14.144531 V 0 h -1.3125 v -1.3125 z m 0,0"
           id="path4" />
      </g>
    </g>
    <g
       style="fill:#000000;fill-opacity:1"
       id="g8">
      <g
         transform="translate(121.92071,209.99999)"
         id="g7">
        <path
           style="stroke:none"
           d="M 30.058594,1.3125 H 4.078125 v -45.457031 h 27.292969 v 10.066406 H 14.472656 v -1.3125 h 1.3125 v 9.40625 h -1.3125 v -1.3125 h 15.8125 v 10.066406 h -15.8125 v -1.3125 h 1.3125 V -7.5 h -1.3125 v -1.3125 h 16.898438 v 10.125 z m 0,-2.625 V 0 h -1.3125 v -7.5 h 1.3125 v 1.3125 H 13.160156 v -13.667969 h 15.8125 v 1.3125 h -1.3125 v -7.441406 h 1.3125 v 1.3125 h -15.8125 v -12.03125 h 16.898438 v 1.3125 h -1.3125 v -7.441406 h 1.3125 v 1.3125 H 5.390625 v -1.3125 h 1.3125 V 0 h -1.3125 V -1.3125 Z M 11.109375,-46.257812 v -1.28125 l 0.316406,-0.367188 c 3.316407,-3.855469 5.570313,-6.742188 6.765625,-8.65625 l 0.386719,-0.617188 h 12.058594 v 2.46875 l -0.382813,0.386719 c -1.046875,1.046875 -2.8125,2.582031 -5.296875,4.613281 -2.476562,2.023438 -4.421875,3.53125 -5.832031,4.523438 l -0.339844,0.242188 h -7.675781 z m 2.625,0 h -1.3125 v -1.3125 h 5.945313 v 1.3125 l -0.753907,-1.074219 c 1.363281,-0.960938 3.253907,-2.429688 5.683594,-4.410157 2.414063,-1.976562 4.117187,-3.457031 5.101563,-4.441406 l 0.925781,0.929688 h -1.3125 v -0.613282 h 1.3125 v 1.3125 H 19.304688 v -1.3125 l 1.117187,0.691407 c -1.265625,2.03125 -3.601563,5.023437 -7.003906,8.980469 l -0.996094,-0.855469 h 1.3125 z m 0,0"
           id="path6" />
      </g>
    </g>
    <g
       style="fill:#000000;fill-opacity:1"
       id="g10">
      <g
         transform="translate(153.72423,209.99999)"
         id="g9">
        <path
           style="stroke:none"
           d="m 21.648438,-25.363281 h 18.304687 v 24.46875 l -0.902344,0.296875 C 36.226562,0.324219 33.5625,0.96875 31.058594,1.34375 28.5625,1.714844 26.011719,1.898438 23.40625,1.898438 c -6.851562,0 -12.117188,-2.042969 -15.785156,-6.132813 -3.632813,-4.050781 -5.449219,-9.796875 -5.449219,-17.238281 0,-7.285156 2.109375,-12.988282 6.328125,-17.113282 4.210938,-4.117187 10,-6.171874 17.367188,-6.171874 4.578124,0 8.988281,0.914062 13.234374,2.742187 l 1.191407,0.511719 -4.054688,9.761718 -1.257812,-0.628906 c -2.941407,-1.46875 -5.996094,-2.203125 -9.171875,-2.203125 -3.53125,0 -6.351563,1.171875 -8.453125,3.515625 -2.140625,2.386719 -3.210938,5.640625 -3.210938,9.761719 0,4.347656 0.859375,7.628906 2.582031,9.84375 1.640626,2.113281 4.0625,3.167969 7.265626,3.167969 1.808593,0 3.648437,-0.1875 5.515624,-0.558594 l 0.257813,1.285156 h -1.3125 v -8.933594 h 1.3125 v 1.3125 h -9.429687 v -10.183593 z m 0,2.625 v -1.3125 h 1.3125 v 7.558593 h -1.3125 v -1.3125 h 9.429687 v 11.320313 l -1.054687,0.210937 c -2.039063,0.410157 -4.046876,0.613282 -6.03125,0.613282 -4.058594,0 -7.171876,-1.394532 -9.339844,-4.183594 -2.089844,-2.6875 -3.132813,-6.507812 -3.132813,-11.453125 0,-4.789063 1.292969,-8.625 3.878907,-11.511719 2.625,-2.929687 6.09375,-4.390625 10.410156,-4.390625 3.585937,0 7.035156,0.824219 10.34375,2.480469 l -0.585938,1.175781 -1.210937,-0.503906 3.015625,-7.265625 1.210937,0.503906 -0.515625,1.203125 c -3.917968,-1.6875 -7.984375,-2.527343 -12.199218,-2.527343 -6.652344,0 -11.832032,1.808593 -15.53125,5.425781 -3.691407,3.609375 -5.539063,8.6875 -5.539063,15.234375 0,6.773437 1.59375,11.933594 4.777344,15.484375 3.148437,3.507812 7.757812,5.261719 13.832031,5.261719 2.476562,0 4.898438,-0.175782 7.265625,-0.527344 2.359375,-0.351563 4.878906,-0.964844 7.5625,-1.839844 l 0.40625,1.25 h -1.3125 v -22.207031 h 1.3125 v 1.3125 z m 0,0"
           id="path8" />
      </g>
    </g>
    <g
       style="fill:#000000;fill-opacity:1"
       id="g12">
      <g
         transform="translate(195.3715,209.99999)"
         id="g11">
        <path
           style="stroke:none"
           d="m 45.578125,-21.472656 c 0,7.429687 -1.871094,13.175781 -5.621094,17.234375 -3.773437,4.089843 -9.132812,6.136719 -16.082031,6.136719 -6.945312,0 -12.304688,-2.046876 -16.078125,-6.136719 -3.75,-4.058594 -5.625,-9.824219 -5.625,-17.292969 0,-7.476562 1.882813,-13.21875 5.644531,-17.234375 3.785156,-4.035156 9.15625,-6.050781 16.117188,-6.050781 6.96875,0 12.324218,2.035156 16.070312,6.105468 3.71875,4.039063 5.574219,9.785157 5.574219,17.238282 z m -2.625,0 c 0,-6.769532 -1.625,-11.921875 -4.882813,-15.460938 -3.222656,-3.507812 -7.9375,-5.257812 -14.136718,-5.257812 -6.199219,0 -10.9375,1.738281 -14.203125,5.222656 -3.289063,3.507812 -4.933594,8.652344 -4.933594,15.4375 0,6.785156 1.644531,11.957031 4.925781,15.515625 3.257813,3.527344 7.976563,5.289063 14.152344,5.289063 6.179688,0 10.898438,-1.761719 14.15625,-5.289063 3.28125,-3.558594 4.921875,-8.710937 4.921875,-15.457031 z m -28.632813,0 c 0,4.492187 0.820313,7.832031 2.460938,10.019531 1.554688,2.074219 3.917969,3.109375 7.09375,3.109375 3.1875,0 5.554688,-1.027344 7.105469,-3.085938 1.636719,-2.175781 2.453125,-5.523437 2.453125,-10.042968 0,-4.535156 -0.8125,-7.890625 -2.441406,-10.070313 -1.539063,-2.0625 -3.890626,-3.089843 -7.058594,-3.089843 -3.175782,0 -5.550782,1.039062 -7.125,3.125 -1.660156,2.195312 -2.488282,5.542968 -2.488282,10.035156 z m -2.625,0 c 0,-5.082032 1.007813,-8.953125 3.019532,-11.617188 2.097656,-2.78125 5.171875,-4.167968 9.21875,-4.167968 4.042968,0 7.097656,1.378906 9.160156,4.144531 1.976562,2.644531 2.964844,6.523437 2.964844,11.640625 0,5.105468 -0.992188,8.980468 -2.980469,11.621094 -2.074219,2.753906 -5.140625,4.132812 -9.203125,4.132812 -4.050781,0 -7.113281,-1.386719 -9.191406,-4.15625 -1.992188,-2.65625 -2.988282,-6.523438 -2.988282,-11.597656 z m 0,0"
           id="path10" />
      </g>
    </g>
    <g
       style="fill:#000000;fill-opacity:1"
       id="g14">
      <g
         transform="translate(241.32541,209.99999)"
         id="g13">
        <path
           style="stroke:none"
           d="m 14.472656,-25.128906 h 2.929688 c 2.59375,0 4.464844,-0.402344 5.605468,-1.199219 0.992188,-0.695313 1.488282,-1.84375 1.488282,-3.4375 0,-0.816406 -0.128906,-1.496094 -0.390625,-2.035156 -0.238281,-0.492188 -0.597657,-0.886719 -1.078125,-1.183594 -1.183594,-0.730469 -3.117188,-1.09375 -5.800782,-1.09375 h -2.753906 v -1.3125 h 1.3125 v 11.574219 h -1.3125 z m -1.3125,2.625 v -14.199219 h 4.066406 c 3.175782,0 5.570313,0.496094 7.175782,1.484375 0.917968,0.5625 1.605468,1.320312 2.066406,2.273438 0.4375,0.90625 0.652344,1.964843 0.652344,3.179687 0,1.214844 -0.207032,2.285156 -0.628906,3.210937 -0.441407,0.96875 -1.101563,1.761719 -1.980469,2.375 -1.59375,1.117188 -3.960938,1.675782 -7.109375,1.675782 z m 2.625,6.070312 V 1.3125 H 4.078125 v -45.457031 h 13.792969 c 6.113281,0 10.6875,1.148437 13.714844,3.445312 3.136718,2.382813 4.707031,5.949219 4.707031,10.699219 0,2.796875 -0.773438,5.292969 -2.320313,7.480469 -1.527344,2.164062 -3.671875,3.847656 -6.433594,5.058593 l -0.527343,-1.199218 1.089843,-0.730469 C 34.542969,-9.769531 38.738281,-3.554688 40.6875,-0.75 l 1.429688,2.0625 H 28.800781 l -10.609375,-17.054688 1.113282,-0.691406 v 1.3125 h -4.832032 v -1.3125 z m -2.625,-1.3125 h 6.875 L 30.644531,-0.691406 29.53125,0 V -1.3125 H 39.609375 V 0 L 38.53125,0.75 C 36.574219,-2.070312 32.371094,-8.296875 25.921875,-17.933594 l -0.871094,-1.300781 1.433594,-0.628906 c 2.316406,-1.015625 4.097656,-2.40625 5.34375,-4.171875 1.226563,-1.734375 1.839844,-3.722656 1.839844,-5.964844 0,-3.882812 -1.222657,-6.75 -3.671875,-8.609375 -2.558594,-1.941406 -6.597656,-2.910156 -12.125,-2.910156 H 5.390625 v -1.3125 h 1.3125 V 0 h -1.3125 v -1.3125 h 9.082031 V 0 h -1.3125 z m 0,0"
           id="path12" />
      </g>
    </g>
    <g
       style="fill:#000000;fill-opacity:1"
       id="g16">
      <g
         transform="translate(279.13478,209.99999)"
         id="g15">
        <path
           style="stroke:none"
           d="M 4.078125,-44.144531 H 15.785156 V 1.3125 H 4.078125 Z m 2.625,2.625 V -1.3125 h 6.457031 v -40.207031 z m 0,0"
           id="path14" />
      </g>
    </g>
    <g
       style="fill:#000000;fill-opacity:1"
       id="g18">
      <g
         transform="translate(297.19807,209.99999)"
         id="g17">
        <path
           style="stroke:none"
           d="M 30.058594,1.3125 H 4.078125 v -45.457031 h 27.292969 v 10.066406 H 14.472656 v -1.3125 h 1.3125 v 9.40625 h -1.3125 v -1.3125 h 15.8125 v 10.066406 h -15.8125 v -1.3125 h 1.3125 V -7.5 h -1.3125 v -1.3125 h 16.898438 v 10.125 z m 0,-2.625 V 0 h -1.3125 v -7.5 h 1.3125 v 1.3125 H 13.160156 v -13.667969 h 15.8125 v 1.3125 h -1.3125 v -7.441406 h 1.3125 v 1.3125 h -15.8125 v -12.03125 h 16.898438 v 1.3125 h -1.3125 v -7.441406 h 1.3125 v 1.3125 H 5.390625 v -1.3125 h 1.3125 V 0 h -1.3125 v -1.3125 z m 0,0"
           id="path16" />
      </g>
    </g>
    <g
       style="fill:#000000;fill-opacity:1"
       id="g20">
      <g
         transform="translate(329.00159,209.99999)"
         id="g19">
        <path
           style="stroke:none"
           d="m 31.984375,-11.894531 c 0,4.289062 -1.554687,7.675781 -4.664063,10.164062 C 24.296875,0.6875 20.152344,1.898438 14.882812,1.898438 10.109375,1.898438 5.875,0.996094 2.175781,-0.8125 L 1.441406,-1.171875 v -11.28125 l 1.847656,0.824219 c 2.824219,1.261718 5.203126,2.144531 7.136719,2.65625 1.894531,0.496094 3.613281,0.746094 5.160157,0.746094 1.710937,0 2.984374,-0.300782 3.820312,-0.898438 0.347656,-0.246094 0.605469,-0.550781 0.773438,-0.910156 0.183593,-0.390625 0.273437,-0.863282 0.273437,-1.417969 0,-0.5625 -0.152344,-1.054687 -0.457031,-1.480469 -0.375,-0.523437 -0.949219,-1.042968 -1.726563,-1.558594 C 17.414062,-15.0625 15.621094,-16 12.882812,-17.300781 c -2.722656,-1.28125 -4.785156,-2.527344 -6.183593,-3.738281 -1.433594,-1.242188 -2.582031,-2.691407 -3.441407,-4.34375 -0.878906,-1.691407 -1.320312,-3.652344 -1.320312,-5.875 0,-4.199219 1.441406,-7.511719 4.320312,-9.941407 2.8125,-2.375 6.644532,-3.558593 11.496094,-3.558593 2.339844,0 4.574219,0.277343 6.703125,0.832031 2.085938,0.542969 4.265625,1.308593 6.535157,2.292969 l 1.183593,0.511718 -3.925781,9.460938 -1.210938,-0.496094 c -2.222656,-0.910156 -4.054687,-1.546875 -5.484374,-1.902344 -1.390626,-0.34375 -2.753907,-0.515625 -4.09375,-0.515625 -1.390626,0 -2.421876,0.289063 -3.09375,0.875 -0.617188,0.539063 -0.925782,1.253907 -0.925782,2.148438 0,0.546875 0.121094,1.015625 0.359375,1.398437 0.273438,0.441406 0.742188,0.886719 1.398438,1.339844 0.753906,0.519531 2.617187,1.484375 5.582031,2.902344 4.191406,2.003906 7.09375,4.050781 8.707031,6.136718 1.664063,2.160157 2.496094,4.789063 2.496094,7.878907 z m -2.625,0 c 0,-2.496094 -0.648437,-4.585938 -1.953125,-6.273438 -1.355469,-1.757812 -3.941406,-3.550781 -7.757812,-5.375 -3.089844,-1.472656 -5.066407,-2.507812 -5.933594,-3.105469 -0.960938,-0.660156 -1.675782,-1.363281 -2.144532,-2.117187 -0.503906,-0.804687 -0.753906,-1.734375 -0.753906,-2.785156 0,-1.6875 0.609375,-3.0625 1.828125,-4.125 1.164063,-1.015625 2.769531,-1.523438 4.816407,-1.523438 1.550781,0 3.128906,0.195313 4.726562,0.59375 1.554688,0.386719 3.503906,1.058594 5.851562,2.023438 l -0.5,1.214843 -1.210937,-0.503906 2.929687,-7.0625 1.210938,0.503906 -0.523438,1.203126 C 27.800781,-40.15625 25.75,-40.875 23.792969,-41.386719 c -1.910157,-0.5 -3.925781,-0.746093 -6.039063,-0.746093 -4.210937,0 -7.480468,0.980468 -9.804687,2.941406 -2.257813,1.90625 -3.386719,4.550781 -3.386719,7.933594 0,1.796874 0.34375,3.351562 1.027344,4.667968 0.703125,1.355469 1.644531,2.542969 2.828125,3.566406 1.21875,1.054688 3.082031,2.171876 5.59375,3.351563 2.847656,1.355469 4.753906,2.351563 5.714843,2.992187 1.042969,0.695313 1.84375,1.433594 2.40625,2.21875 0.632813,0.882813 0.945313,1.886719 0.945313,3.007813 0,0.945313 -0.171875,1.789063 -0.523437,2.535156 -0.363282,0.773438 -0.902344,1.414063 -1.621094,1.929688 -1.292969,0.925781 -3.074219,1.386719 -5.347656,1.386719 -1.773438,0 -3.714844,-0.277344 -5.828126,-0.835938 C 7.6875,-6.980469 5.175781,-7.914062 2.21875,-9.230469 l 0.535156,-1.199219 h 1.3125 v 8.4375 h -1.3125 l 0.578125,-1.179687 c 3.332031,1.628906 7.183594,2.445313 11.550781,2.445313 4.652344,0 8.253907,-1.015626 10.796876,-3.050782 2.453124,-1.964844 3.679687,-4.671875 3.679687,-8.117187 z m 0,0"
           id="path18" />
      </g>
    </g>
    <g
       style="fill:#000000;fill-opacity:1"
       id="g22">
      <g
         transform="translate(16.341899,212.95225)"
         id="g21">
        <path
           style="stroke:none"
           d="m 23.578125,-35.890625 c -3.417969,0 -6.0625,1.289063 -7.9375,3.859375 -1.875,2.5625 -2.8125,6.140625 -2.8125,10.734375 0,9.554687 3.582031,14.328125 10.75,14.328125 3.007813,0 6.65625,-0.753906 10.9375,-2.265625 v 7.625 c -3.523437,1.46875 -7.449219,2.203125 -11.78125,2.203125 -6.230469,0 -10.996094,-1.890625 -14.296875,-5.671875 -3.304688,-3.78125 -4.953125,-9.207031 -4.953125,-16.28125 0,-4.445313 0.804687,-8.347656 2.421875,-11.703125 1.625,-3.351562 3.957031,-5.921875 7,-7.703125 3.039062,-1.789063 6.597656,-2.6875 10.671875,-2.6875 4.164063,0 8.347656,1.007813 12.546875,3.015625 l -2.9375,7.390625 c -1.59375,-0.757813 -3.203125,-1.421875 -4.828125,-1.984375 -1.625,-0.570312 -3.21875,-0.859375 -4.78125,-0.859375 z m 0,0"
           id="path20" />
      </g>
    </g>
    <g
       style="fill:#000000;fill-opacity:1"
       id="g24">
      <g
         transform="translate(52.774323,212.95225)"
         id="g23">
        <path
           style="stroke:none"
           d="M 31.609375,0 28.5,-10.203125 H 12.890625 L 9.78125,0 H 0 L 15.125,-43.015625 H 26.21875 L 41.390625,0 Z M 26.34375,-17.8125 c -2.875,-9.238281 -4.496094,-14.460938 -4.859375,-15.671875 -0.355469,-1.207031 -0.609375,-2.164063 -0.765625,-2.875 -0.648438,2.5 -2.496094,8.683594 -5.546875,18.546875 z m 0,0"
           id="path22" />
      </g>
    </g>
    <g
       style="fill:#000000;fill-opacity:1"
       id="g26">
      <g
         transform="translate(92.37081,212.95225)"
         id="g25">
        <path
           style="stroke:none"
           d="m 21.921875,0 h -9.09375 v -35.28125 h -11.625 v -7.546875 h 32.34375 v 7.546875 h -11.625 z m 0,0"
           id="path24" />
      </g>
    </g>
    <g
       style="fill:#000000;fill-opacity:1"
       id="g28">
      <g
         transform="translate(125.31691,212.95225)"
         id="g27">
        <path
           style="stroke:none"
           d="M 30.0625,0 H 5.390625 V -42.828125 H 30.0625 v 7.4375 H 14.46875 v 9.40625 h 14.5 v 7.4375 h -14.5 V -7.5 H 30.0625 Z M 12.4375,-46.265625 V -47.0625 c 3.351562,-3.90625 5.644531,-6.84375 6.875,-8.8125 h 10.015625 v 0.609375 c -1.011719,1.023437 -2.746094,2.53125 -5.203125,4.53125 -2.449219,2 -4.367188,3.492187 -5.75,4.46875 z m 0,0"
           id="path26" />
      </g>
    </g>
    <g
       style="fill:#000000;fill-opacity:1"
       id="g30">
      <g
         transform="translate(157.12042,212.95225)"
         id="g29">
        <path
           style="stroke:none"
           d="M 21.65625,-24.046875 H 38.640625 V -1.84375 c -2.75,0.898438 -5.34375,1.527344 -7.78125,1.890625 -2.429687,0.363281 -4.914063,0.546875 -7.453125,0.546875 -6.460938,0 -11.398438,-1.898438 -14.8125,-5.703125 -3.40625,-3.800781 -5.109375,-9.253906 -5.109375,-16.359375 0,-6.914062 1.976563,-12.304688 5.9375,-16.171875 3.957031,-3.875 9.441406,-5.8125 16.453125,-5.8125 4.394531,0 8.628906,0.882813 12.703125,2.640625 l -3.015625,7.265625 c -3.125,-1.5625 -6.375,-2.34375 -9.75,-2.34375 -3.929688,0 -7.074219,1.320313 -9.4375,3.953125 -2.367188,2.636719 -3.546875,6.183594 -3.546875,10.640625 0,4.648437 0.953125,8.199219 2.859375,10.65625 1.90625,2.449219 4.675781,3.671875 8.3125,3.671875 1.894531,0 3.816406,-0.195312 5.765625,-0.59375 V -16.5 H 21.65625 Z m 0,0"
           id="path28" />
      </g>
    </g>
    <g
       style="fill:#000000;fill-opacity:1"
       id="g32">
      <g
         transform="translate(198.76769,212.95225)"
         id="g31">
        <path
           style="stroke:none"
           d="m 44.265625,-21.46875 c 0,7.085938 -1.761719,12.53125 -5.28125,16.34375 C 35.472656,-1.3125 30.4375,0.59375 23.875,0.59375 17.3125,0.59375 12.269531,-1.3125 8.75,-5.125 5.238281,-8.9375 3.484375,-14.40625 3.484375,-21.53125 c 0,-7.132812 1.757813,-12.578125 5.28125,-16.328125 C 12.296875,-41.617188 17.351562,-43.5 23.9375,-43.5 c 6.582031,0 11.613281,1.898438 15.09375,5.6875 3.488281,3.78125 5.234375,9.230469 5.234375,16.34375 z m -31.25,0 c 0,4.78125 0.90625,8.386719 2.71875,10.8125 1.8125,2.417969 4.523437,3.625 8.140625,3.625 7.25,0 10.875,-4.8125 10.875,-14.4375 0,-9.65625 -3.605469,-14.484375 -10.8125,-14.484375 -3.617188,0 -6.339844,1.21875 -8.171875,3.65625 -1.835937,2.429687 -2.75,6.039063 -2.75,10.828125 z m 0,0"
           id="path30" />
      </g>
    </g>
    <g
       style="fill:#000000;fill-opacity:1"
       id="g34">
      <g
         transform="translate(244.7216,212.95225)"
         id="g33">
        <path
           style="stroke:none"
           d="m 14.46875,-23.8125 h 2.9375 c 2.863281,0 4.976562,-0.476562 6.34375,-1.4375 1.375,-0.957031 2.0625,-2.460938 2.0625,-4.515625 0,-2.03125 -0.699219,-3.472656 -2.09375,-4.328125 -1.398438,-0.863281 -3.558594,-1.296875 -6.484375,-1.296875 H 14.46875 Z m 0,7.375 V 0 H 5.390625 V -42.828125 H 17.875 c 5.820312,0 10.128906,1.0625 12.921875,3.1875 2.789063,2.117187 4.1875,5.328125 4.1875,9.640625 0,2.523438 -0.695313,4.765625 -2.078125,6.734375 -1.386719,1.960937 -3.351562,3.496094 -5.890625,4.609375 C 33.460938,-9.03125 37.660156,-2.8125 39.609375,0 H 29.53125 L 19.3125,-16.4375 Z m 0,0"
           id="path32" />
      </g>
    </g>
    <g
       style="fill:#000000;fill-opacity:1"
       id="g36">
      <g
         transform="translate(282.53098,212.95225)"
         id="g35">
        <path
           style="stroke:none"
           d="M 5.390625,0 V -42.828125 H 14.46875 V 0 Z m 0,0"
           id="path34" />
      </g>
    </g>
    <g
       style="fill:#000000;fill-opacity:1"
       id="g38">
      <g
         transform="translate(300.59426,212.95225)"
         id="g37">
        <path
           style="stroke:none"
           d="M 30.0625,0 H 5.390625 V -42.828125 H 30.0625 v 7.4375 H 14.46875 v 9.40625 h 14.5 v 7.4375 h -14.5 V -7.5 H 30.0625 Z m 0,0"
           id="path36" />
      </g>
    </g>
    <g
       style="fill:#000000;fill-opacity:1"
       id="g40">
      <g
         transform="translate(332.39778,212.95225)"
         id="g39">
        <path
           style="stroke:none"
           d="M 30.671875,-11.890625 C 30.671875,-8.023438 29.28125,-4.976562 26.5,-2.75 23.71875,-0.519531 19.847656,0.59375 14.890625,0.59375 10.316406,0.59375 6.269531,-0.269531 2.75,-2 v -8.4375 c 2.894531,1.292969 5.34375,2.203125 7.34375,2.734375 2,0.523437 3.832031,0.78125 5.5,0.78125 1.988281,0 3.515625,-0.378906 4.578125,-1.140625 1.0625,-0.757812 1.59375,-1.890625 1.59375,-3.390625 0,-0.84375 -0.234375,-1.585937 -0.703125,-2.234375 -0.46875,-0.65625 -1.15625,-1.285156 -2.0625,-1.890625 -0.90625,-0.613281 -2.757812,-1.582031 -5.546875,-2.90625 -2.625,-1.226563 -4.59375,-2.410156 -5.90625,-3.546875 -1.304687,-1.132812 -2.34375,-2.453125 -3.125,-3.953125 C 3.640625,-27.492188 3.25,-29.253906 3.25,-31.265625 c 0,-3.78125 1.28125,-6.753906 3.84375,-8.921875 2.570312,-2.175781 6.125,-3.265625 10.65625,-3.265625 2.226562,0 4.351562,0.265625 6.375,0.796875 2.019531,0.53125 4.132812,1.273438 6.34375,2.21875 l -2.921875,7.0625 c -2.292969,-0.9375 -4.1875,-1.585938 -5.6875,-1.953125 -1.492187,-0.375 -2.953125,-0.5625 -4.390625,-0.5625 -1.71875,0 -3.042969,0.402344 -3.96875,1.203125 -0.917969,0.804688 -1.375,1.851562 -1.375,3.140625 0,0.792969 0.1875,1.492187 0.5625,2.09375 0.375,0.59375 0.960938,1.171875 1.765625,1.734375 0.8125,0.554688 2.734375,1.546875 5.765625,2.984375 4,1.917969 6.738281,3.839844 8.21875,5.765625 1.488281,1.929688 2.234375,4.289062 2.234375,7.078125 z m 0,0"
           id="path38" />
      </g>
    </g>
    <g
       style="fill:#ffffff;fill-opacity:1"
       id="g42">
      <g
         transform="translate(12.945706,209.99999)"
         id="g41">
        <path
           style="stroke:none"
           d="m 23.578125,-35.890625 c -3.417969,0 -6.0625,1.289063 -7.9375,3.859375 -1.875,2.5625 -2.8125,6.140625 -2.8125,10.734375 0,9.554687 3.582031,14.328125 10.75,14.328125 3.007813,0 6.65625,-0.753906 10.9375,-2.265625 v 7.625 c -3.523437,1.46875 -7.449219,2.203125 -11.78125,2.203125 -6.230469,0 -10.996094,-1.890625 -14.296875,-5.671875 -3.304688,-3.78125 -4.953125,-9.207031 -4.953125,-16.28125 0,-4.445313 0.804687,-8.347656 2.421875,-11.703125 1.625,-3.351562 3.957031,-5.921875 7,-7.703125 3.039062,-1.789063 6.597656,-2.6875 10.671875,-2.6875 4.164063,0 8.347656,1.007813 12.546875,3.015625 l -2.9375,7.390625 c -1.59375,-0.757813 -3.203125,-1.421875 -4.828125,-1.984375 -1.625,-0.570312 -3.21875,-0.859375 -4.78125,-0.859375 z m 0,0"
           id="path40" />
      </g>
    </g>
    <g
       style="fill:#ffffff;fill-opacity:1"
       id="g44">
      <g
         transform="translate(49.37813,209.99999)"
         id="g43">
        <path
           style="stroke:none"
           d="M 31.609375,0 28.5,-10.203125 H 12.890625 L 9.78125,0 H 0 L 15.125,-43.015625 H 26.21875 L 41.390625,0 Z M 26.34375,-17.8125 c -2.875,-9.238281 -4.496094,-14.460938 -4.859375,-15.671875 -0.355469,-1.207031 -0.609375,-2.164063 -0.765625,-2.875 -0.648438,2.5 -2.496094,8.683594 -5.546875,18.546875 z m 0,0"
           id="path42" />
      </g>
    </g>
    <g
       style="fill:#ffffff;fill-opacity:1"
       id="g46">
      <g
         transform="translate(88.974617,209.99999)"
         id="g45">
        <path
           style="stroke:none"
           d="m 21.921875,0 h -9.09375 v -35.28125 h -11.625 v -7.546875 h 32.34375 v 7.546875 h -11.625 z m 0,0"
           id="path44" />
      </g>
    </g>
    <g
       style="fill:#ffffff;fill-opacity:1"
       id="g48">
      <g
         transform="translate(121.92071,209.99999)"
         id="g47">
        <path
           style="stroke:none"
           d="M 30.0625,0 H 5.390625 V -42.828125 H 30.0625 v 7.4375 H 14.46875 v 9.40625 h 14.5 v 7.4375 h -14.5 V -7.5 H 30.0625 Z M 12.4375,-46.265625 V -47.0625 c 3.351562,-3.90625 5.644531,-6.84375 6.875,-8.8125 h 10.015625 v 0.609375 c -1.011719,1.023437 -2.746094,2.53125 -5.203125,4.53125 -2.449219,2 -4.367188,3.492187 -5.75,4.46875 z m 0,0"
           id="path46" />
      </g>
    </g>
    <g
       style="fill:#ffffff;fill-opacity:1"
       id="g50">
      <g
         transform="translate(153.72423,209.99999)"
         id="g49">
        <path
           style="stroke:none"
           d="M 21.65625,-24.046875 H 38.640625 V -1.84375 c -2.75,0.898438 -5.34375,1.527344 -7.78125,1.890625 -2.429687,0.363281 -4.914063,0.546875 -7.453125,0.546875 -6.460938,0 -11.398438,-1.898438 -14.8125,-5.703125 -3.40625,-3.800781 -5.109375,-9.253906 -5.109375,-16.359375 0,-6.914062 1.976563,-12.304688 5.9375,-16.171875 3.957031,-3.875 9.441406,-5.8125 16.453125,-5.8125 4.394531,0 8.628906,0.882813 12.703125,2.640625 l -3.015625,7.265625 c -3.125,-1.5625 -6.375,-2.34375 -9.75,-2.34375 -3.929688,0 -7.074219,1.320313 -9.4375,3.953125 -2.367188,2.636719 -3.546875,6.183594 -3.546875,10.640625 0,4.648437 0.953125,8.199219 2.859375,10.65625 1.90625,2.449219 4.675781,3.671875 8.3125,3.671875 1.894531,0 3.816406,-0.195312 5.765625,-0.59375 V -16.5 H 21.65625 Z m 0,0"
           id="path48" />
      </g>
    </g>
    <g
       style="fill:#ffffff;fill-opacity:1"
       id="g52">
      <g
         transform="translate(195.3715,209.99999)"
         id="g51">
        <path
           style="stroke:none"
           d="m 44.265625,-21.46875 c 0,7.085938 -1.761719,12.53125 -5.28125,16.34375 C 35.472656,-1.3125 30.4375,0.59375 23.875,0.59375 17.3125,0.59375 12.269531,-1.3125 8.75,-5.125 5.238281,-8.9375 3.484375,-14.40625 3.484375,-21.53125 c 0,-7.132812 1.757813,-12.578125 5.28125,-16.328125 C 12.296875,-41.617188 17.351562,-43.5 23.9375,-43.5 c 6.582031,0 11.613281,1.898438 15.09375,5.6875 3.488281,3.78125 5.234375,9.230469 5.234375,16.34375 z m -31.25,0 c 0,4.78125 0.90625,8.386719 2.71875,10.8125 1.8125,2.417969 4.523437,3.625 8.140625,3.625 7.25,0 10.875,-4.8125 10.875,-14.4375 0,-9.65625 -3.605469,-14.484375 -10.8125,-14.484375 -3.617188,0 -6.339844,1.21875 -8.171875,3.65625 -1.835937,2.429687 -2.75,6.039063 -2.75,10.828125 z m 0,0"
           id="path50" />
      </g>
    </g>
    <g
       style="fill:#ffffff;fill-opacity:1"
       id="g54">
      <g
         transform="translate(241.32541,209.99999)"
         id="g53">
        <path
           style="stroke:none"
           d="m 14.46875,-23.8125 h 2.9375 c 2.863281,0 4.976562,-0.476562 6.34375,-1.4375 1.375,-0.957031 2.0625,-2.460938 2.0625,-4.515625 0,-2.03125 -0.699219,-3.472656 -2.09375,-4.328125 -1.398438,-0.863281 -3.558594,-1.296875 -6.484375,-1.296875 H 14.46875 Z m 0,7.375 V 0 H 5.390625 V -42.828125 H 17.875 c 5.820312,0 10.128906,1.0625 12.921875,3.1875 2.789063,2.117187 4.1875,5.328125 4.1875,9.640625 0,2.523438 -0.695313,4.765625 -2.078125,6.734375 -1.386719,1.960937 -3.351562,3.496094 -5.890625,4.609375 C 33.460938,-9.03125 37.660156,-2.8125 39.609375,0 H 29.53125 L 19.3125,-16.4375 Z m 0,0"
           id="path52" />
      </g>
    </g>
    <g
       style="fill:#ffffff;fill-opacity:1"
       id="g56">
      <g
         transform="translate(279.13478,209.99999)"
         id="g55">
        <path
           style="stroke:none"
           d="M 5.390625,0 V -42.828125 H 14.46875 V 0 Z m 0,0"
           id="path54" />
      </g>
    </g>
    <g
       style="fill:#ffffff;fill-opacity:1"
       id="g58">
      <g
         transform="translate(297.19807,209.99999)"
         id="g57">
        <path
           style="stroke:none"
           d="M 30.0625,0 H 5.390625 V -42.828125 H 30.0625 v 7.4375 H 14.46875 v 9.40625 h 14.5 v 7.4375 h -14.5 V -7.5 H 30.0625 Z m 0,0"
           id="path56" />
      </g>
    </g>
    <g
       style="fill:#ffffff;fill-opacity:1"
       id="g60">
      <g
         transform="translate(329.00159,209.99999)"
         id="g59">
        <path
           style="stroke:none"
           d="M 30.671875,-11.890625 C 30.671875,-8.023438 29.28125,-4.976562 26.5,-2.75 23.71875,-0.519531 19.847656,0.59375 14.890625,0.59375 10.316406,0.59375 6.269531,-0.269531 2.75,-2 v -8.4375 c 2.894531,1.292969 5.34375,2.203125 7.34375,2.734375 2,0.523437 3.832031,0.78125 5.5,0.78125 1.988281,0 3.515625,-0.378906 4.578125,-1.140625 1.0625,-0.757812 1.59375,-1.890625 1.59375,-3.390625 0,-0.84375 -0.234375,-1.585937 -0.703125,-2.234375 -0.46875,-0.65625 -1.15625,-1.285156 -2.0625,-1.890625 -0.90625,-0.613281 -2.757812,-1.582031 -5.546875,-2.90625 -2.625,-1.226563 -4.59375,-2.410156 -5.90625,-3.546875 -1.304687,-1.132812 -2.34375,-2.453125 -3.125,-3.953125 C 3.640625,-27.492188 3.25,-29.253906 3.25,-31.265625 c 0,-3.78125 1.28125,-6.753906 3.84375,-8.921875 2.570312,-2.175781 6.125,-3.265625 10.65625,-3.265625 2.226562,0 4.351562,0.265625 6.375,0.796875 2.019531,0.53125 4.132812,1.273438 6.34375,2.21875 l -2.921875,7.0625 c -2.292969,-0.9375 -4.1875,-1.585938 -5.6875,-1.953125 -1.492187,-0.375 -2.953125,-0.5625 -4.390625,-0.5625 -1.71875,0 -3.042969,0.402344 -3.96875,1.203125 -0.917969,0.804688 -1.375,1.851562 -1.375,3.140625 0,0.792969 0.1875,1.492187 0.5625,2.09375 0.375,0.59375 0.960938,1.171875 1.765625,1.734375 0.8125,0.554688 2.734375,1.546875 5.765625,2.984375 4,1.917969 6.738281,3.839844 8.21875,5.765625 1.488281,1.929688 2.234375,4.289062 2.234375,7.078125 z m 0,0"
           id="path58" />
      </g>
    </g>
  </g>
</svg>
