<?xml version="1.0" encoding="UTF-8" standalone="no"?>
<svg
   width="152.41367"
   zoomAndPan="magnify"
   viewBox="0 0 114.31025 57.975682"
   height="77.300911"
   preserveAspectRatio="xMidYMid"
   version="1.0"
   id="svg19"
   sodipodi:docname="GIF Sections.svg"
   inkscape:version="1.3 (0e150ed, 2023-07-21)"
   xmlns:inkscape="http://www.inkscape.org/namespaces/inkscape"
   xmlns:sodipodi="http://sodipodi.sourceforge.net/DTD/sodipodi-0.dtd"
   xmlns="http://www.w3.org/2000/svg"
   xmlns:svg="http://www.w3.org/2000/svg">
  <sodipodi:namedview
     id="namedview19"
     pagecolor="#ffffff"
     bordercolor="#000000"
     borderopacity="0.25"
     inkscape:showpageshadow="2"
     inkscape:pageopacity="0.0"
     inkscape:pagecheckerboard="0"
     inkscape:deskcolor="#d1d1d1"
     inkscape:zoom="0.472"
     inkscape:cx="74.152542"
     inkscape:cy="29.661017"
     inkscape:window-width="1472"
     inkscape:window-height="449"
     inkscape:window-x="62"
     inkscape:window-y="39"
     inkscape:window-maximized="0"
     inkscape:current-layer="svg19" />
  <defs
     id="defs1">
    <g
       id="g1" />
  </defs>
  <path
     stroke-linecap="butt"
     fill="none"
     stroke-linejoin="miter"
     d="m 10.250001,44.820315 h -8.9375 V 1.9882815 H 25.863284 V 9.4296877 H 10.250001 V 20.472658 H 24.781252 V 27.88672 H 10.250001 Z m 48.414066,0 -3.105468,-10.195313 H 39.941409 L 36.835941,44.820315 H 27.050784 L 42.167973,1.8125002 H 53.273442 L 68.449224,44.820315 Z M 53.390629,27.007814 C 50.519535,17.769532 48.902348,12.542969 48.542973,11.332032 48.179691,10.121094 47.921879,9.1640632 47.765629,8.4609382 47.121098,10.960938 45.273441,17.144532 42.226566,27.007814 Z m 57.523441,-3.664062 c 0,5.039062 -0.89063,9.265625 -2.67969,12.671875 -1.78515,3.410157 -4.41016,5.902344 -7.86719,7.484376 l 10.3125,11.515625 H 99.050787 l -7.851562,-9.609375 h -0.67578 c -6.5625,0 -11.601563,-1.90625 -15.117188,-5.714845 -3.515625,-3.808593 -5.273439,-9.277344 -5.273439,-16.40625 0,-7.128907 1.765622,-12.570314 5.289062,-16.3320325 C 78.949227,3.1953127 84.000005,1.3125 90.582035,1.3125 c 6.582037,0 11.617195,1.8945315 15.105475,5.6835937 3.48437,3.7890633 5.22656,9.2382823 5.22656,16.3476583 z m -31.25781,0 c 0,4.785156 0.906247,8.390625 2.72265,10.8125 1.81641,2.421875 4.531252,3.632813 8.144535,3.632813 7.246095,0 10.871095,-4.816407 10.871095,-14.445314 0,-9.648438 -3.60547,-14.4726565 -10.812505,-14.4726565 -3.613275,0 -6.335933,1.2187495 -8.171873,3.6484375 -1.83594,2.433594 -2.753902,6.039063 -2.753902,10.82422 z m 0,0"
     stroke="#000000"
     stroke-width="2.625"
     stroke-opacity="1"
     stroke-miterlimit="4"
     id="path1" />
  <g
     fill="#000000"
     fill-opacity="1"
     id="g4"
     transform="translate(-132.33594,-165.17969)">
    <g
       transform="translate(131.6544,212.95225)"
       id="g3">
      <g
         id="g2">
        <path
           d="m 14.328125,0 h -8.9375 V -42.828125 H 29.9375 v 7.4375 H 14.328125 v 11.046875 h 14.53125 v 7.40625 h -14.53125 z m 0,0"
           id="path2" />
      </g>
    </g>
  </g>
  <g
     fill="#000000"
     fill-opacity="1"
     id="g7"
     transform="translate(-132.33594,-165.17969)">
    <g
       transform="translate(162.78408,212.95225)"
       id="g6">
      <g
         id="g5">
        <path
           d="M 31.609375,0 28.5,-10.203125 H 12.890625 L 9.78125,0 H 0 L 15.125,-43.015625 H 26.21875 L 41.390625,0 Z M 26.34375,-17.8125 c -2.875,-9.238281 -4.496094,-14.460938 -4.859375,-15.671875 -0.355469,-1.207031 -0.609375,-2.164063 -0.765625,-2.875 -0.648438,2.5 -2.496094,8.683594 -5.546875,18.546875 z m 0,0"
           id="path4" />
      </g>
    </g>
  </g>
  <g
     fill="#000000"
     fill-opacity="1"
     id="g10"
     transform="translate(-132.33594,-165.17969)">
    <g
       transform="translate(202.38056,212.95225)"
       id="g9">
      <g
         id="g8">
        <path
           d="m 44.265625,-21.46875 c 0,5.03125 -0.898437,9.257812 -2.6875,12.671875 -1.78125,3.40625 -4.402344,5.902344 -7.859375,7.484375 l 10.3125,11.515625 h -11.625 L 24.546875,0.59375 H 23.875 C 17.3125,0.59375 12.269531,-1.3125 8.75,-5.125 5.238281,-8.9375 3.484375,-14.40625 3.484375,-21.53125 c 0,-7.132812 1.757813,-12.578125 5.28125,-16.328125 C 12.296875,-41.617188 17.351562,-43.5 23.9375,-43.5 c 6.582031,0 11.613281,1.898438 15.09375,5.6875 3.488281,3.78125 5.234375,9.230469 5.234375,16.34375 z m -31.25,0 c 0,4.78125 0.90625,8.386719 2.71875,10.8125 1.8125,2.417969 4.523437,3.625 8.140625,3.625 7.25,0 10.875,-4.8125 10.875,-14.4375 0,-9.65625 -3.605469,-14.484375 -10.8125,-14.484375 -3.617188,0 -6.339844,1.21875 -8.171875,3.65625 -1.835937,2.429687 -2.75,6.039063 -2.75,10.828125 z m 0,0"
           id="path7" />
      </g>
    </g>
  </g>
  <g
     fill="#ffffff"
     fill-opacity="1"
     id="g13"
     transform="translate(-132.33594,-165.17969)">
    <g
       transform="translate(128.2582,209.99999)"
       id="g12">
      <g
         id="g11">
        <path
           d="m 14.328125,0 h -8.9375 V -42.828125 H 29.9375 v 7.4375 H 14.328125 v 11.046875 h 14.53125 v 7.40625 h -14.53125 z m 0,0"
           id="path10" />
      </g>
    </g>
  </g>
  <g
     fill="#ffffff"
     fill-opacity="1"
     id="g16"
     transform="translate(-132.33594,-165.17969)">
    <g
       transform="translate(159.38788,209.99999)"
       id="g15">
      <g
         id="g14">
        <path
           d="M 31.609375,0 28.5,-10.203125 H 12.890625 L 9.78125,0 H 0 L 15.125,-43.015625 H 26.21875 L 41.390625,0 Z M 26.34375,-17.8125 c -2.875,-9.238281 -4.496094,-14.460938 -4.859375,-15.671875 -0.355469,-1.207031 -0.609375,-2.164063 -0.765625,-2.875 -0.648438,2.5 -2.496094,8.683594 -5.546875,18.546875 z m 0,0"
           id="path13" />
      </g>
    </g>
  </g>
  <g
     fill="#ffffff"
     fill-opacity="1"
     id="g19"
     transform="translate(-132.33594,-165.17969)">
    <g
       transform="translate(198.98436,209.99999)"
       id="g18">
      <g
         id="g17">
        <path
           d="m 44.265625,-21.46875 c 0,5.03125 -0.898437,9.257812 -2.6875,12.671875 -1.78125,3.40625 -4.402344,5.902344 -7.859375,7.484375 l 10.3125,11.515625 h -11.625 L 24.546875,0.59375 H 23.875 C 17.3125,0.59375 12.269531,-1.3125 8.75,-5.125 5.238281,-8.9375 3.484375,-14.40625 3.484375,-21.53125 c 0,-7.132812 1.757813,-12.578125 5.28125,-16.328125 C 12.296875,-41.617188 17.351562,-43.5 23.9375,-43.5 c 6.582031,0 11.613281,1.898438 15.09375,5.6875 3.488281,3.78125 5.234375,9.230469 5.234375,16.34375 z m -31.25,0 c 0,4.78125 0.90625,8.386719 2.71875,10.8125 1.8125,2.417969 4.523437,3.625 8.140625,3.625 7.25,0 10.875,-4.8125 10.875,-14.4375 0,-9.65625 -3.605469,-14.484375 -10.8125,-14.484375 -3.617188,0 -6.339844,1.21875 -8.171875,3.65625 -1.835937,2.429687 -2.75,6.039063 -2.75,10.828125 z m 0,0"
           id="path16" />
      </g>
    </g>
  </g>
</svg>
