<?xml version="1.0" encoding="UTF-8" standalone="no"?>
<svg
   width="309.73767"
   zoomAndPan="magnify"
   viewBox="0 0 232.30325 48.303822"
   height="64.405098"
   preserveAspectRatio="xMidYMid"
   version="1.2"
   id="svg42"
   sodipodi:docname="GIF Sections (1).svg"
   inkscape:version="1.3 (0e150ed, 2023-07-21)"
   xmlns:inkscape="http://www.inkscape.org/namespaces/inkscape"
   xmlns:sodipodi="http://sodipodi.sourceforge.net/DTD/sodipodi-0.dtd"
   xmlns="http://www.w3.org/2000/svg"
   xmlns:svg="http://www.w3.org/2000/svg">
  <sodipodi:namedview
     id="namedview42"
     pagecolor="#ffffff"
     bordercolor="#000000"
     borderopacity="0.25"
     inkscape:showpageshadow="2"
     inkscape:pageopacity="0.0"
     inkscape:pagecheckerboard="0"
     inkscape:deskcolor="#d1d1d1"
     inkscape:zoom="0.472"
     inkscape:cx="152.54237"
     inkscape:cy="29.661017"
     inkscape:window-width="1472"
     inkscape:window-height="449"
     inkscape:window-x="62"
     inkscape:window-y="39"
     inkscape:window-maximized="0"
     inkscape:current-layer="svg42" />
  <defs
     id="defs1" />
  <g
     id="6565dd56d1"
     transform="translate(-72.360741,-165.24217)">
    <g
       style="fill:#000000;fill-opacity:1"
       id="g2">
      <g
         transform="translate(70.188866,209.99999)"
         id="g1">
        <path
           style="stroke:none"
           d="m 21.648438,-25.363281 h 18.304687 v 24.46875 l -0.902344,0.296875 C 36.226562,0.324219 33.5625,0.96875 31.058594,1.34375 28.5625,1.714844 26.011719,1.898438 23.40625,1.898438 c -6.851562,0 -12.117188,-2.042969 -15.785156,-6.132813 -3.632813,-4.050781 -5.449219,-9.796875 -5.449219,-17.238281 0,-7.285156 2.109375,-12.988282 6.328125,-17.113282 4.210938,-4.117187 10,-6.171874 17.367188,-6.171874 4.578124,0 8.988281,0.914062 13.234374,2.742187 l 1.191407,0.511719 -4.054688,9.761718 -1.257812,-0.628906 c -2.941407,-1.46875 -5.996094,-2.203125 -9.171875,-2.203125 -3.53125,0 -6.351563,1.171875 -8.453125,3.515625 -2.140625,2.386719 -3.210938,5.640625 -3.210938,9.761719 0,4.347656 0.859375,7.628906 2.582031,9.84375 1.640626,2.113281 4.0625,3.167969 7.265626,3.167969 1.808593,0 3.648437,-0.1875 5.515624,-0.558594 l 0.257813,1.285156 h -1.3125 v -8.933594 h 1.3125 v 1.3125 h -9.429687 v -10.183593 z m 0,2.625 v -1.3125 h 1.3125 v 7.558593 h -1.3125 v -1.3125 h 9.429687 v 11.320313 l -1.054687,0.210937 c -2.039063,0.410157 -4.046876,0.613282 -6.03125,0.613282 -4.058594,0 -7.171876,-1.394532 -9.339844,-4.183594 -2.089844,-2.6875 -3.132813,-6.507812 -3.132813,-11.453125 0,-4.789063 1.292969,-8.625 3.878907,-11.511719 2.625,-2.929687 6.09375,-4.390625 10.410156,-4.390625 3.585937,0 7.035156,0.824219 10.34375,2.480469 l -0.585938,1.175781 -1.210937,-0.503906 3.015625,-7.265625 1.210937,0.503906 -0.515625,1.203125 c -3.917968,-1.6875 -7.984375,-2.527343 -12.199218,-2.527343 -6.652344,0 -11.832032,1.808593 -15.53125,5.425781 -3.691407,3.609375 -5.539063,8.6875 -5.539063,15.234375 0,6.773437 1.59375,11.933594 4.777344,15.484375 3.148437,3.507812 7.757812,5.261719 13.832031,5.261719 2.476562,0 4.898438,-0.175782 7.265625,-0.527344 2.359375,-0.351563 4.878906,-0.964844 7.5625,-1.839844 l 0.40625,1.25 h -1.3125 v -22.207031 h 1.3125 v 1.3125 z m 0,0"
           id="path1" />
      </g>
    </g>
    <g
       style="fill:#000000;fill-opacity:1"
       id="g4">
      <g
         transform="translate(111.83613,209.99999)"
         id="g3">
        <path
           style="stroke:none"
           d="M 30.355469,0.382812 27.25,-9.8125 l 1.253906,-0.382812 v 1.3125 H 12.890625 v -1.3125 L 14.144531,-9.8125 10.757812,1.3125 H -1.851562 L 14.1875,-44.320312 H 27.148438 L 43.25,1.3125 H 30.640625 Z M 32.867188,-0.382812 31.609375,0 v -1.3125 h 9.785156 V 0 l -1.234375,0.4375 -15.175781,-43.007812 1.234375,-0.4375 v 1.3125 H 15.117188 v -1.3125 l 1.238281,0.433593 L 1.238281,0.433594 0,0 V -1.3125 H 9.785156 V 0 l -1.253906,-0.382812 3.386719,-11.125 h 17.558593 z m -7.78125,-17.042969 -4.851563,-15.671875 c -0.371094,-1.25 -0.640625,-2.242188 -0.800781,-2.976563 l 1.277344,-0.28125 1.273437,0.324219 c -0.648437,2.523438 -2.5,8.722656 -5.554687,18.605469 L 15.175781,-17.8125 v -1.3125 h 11.160157 v 1.3125 z M 28.117188,-16.5 h -14.71875 l 0.523437,-1.699219 c 3.039063,-9.84375 4.878906,-16.007812 5.519531,-18.484375 l 2.550782,0.04297 c 0.152343,0.671875 0.402343,1.59375 0.75,2.765625 l 4.847656,15.675781 z m 0,0"
           id="path2" />
      </g>
    </g>
    <g
       style="fill:#000000;fill-opacity:1"
       id="g6">
      <g
         transform="translate(151.43262,209.99999)"
         id="g5">
        <path
           style="stroke:none"
           d="M 4.078125,0 V -44.144531 H 15.785156 V -7.5 h -1.3125 V -8.8125 H 33.15625 V 1.3125 H 4.078125 Z m 2.625,0 h -1.3125 V -1.3125 H 31.84375 V 0 h -1.3125 v -7.5 h 1.3125 v 1.3125 H 13.160156 v -36.644531 h 1.3125 v 1.3125 H 5.390625 v -1.3125 h 1.3125 z m 0,0"
           id="path4" />
      </g>
    </g>
    <g
       style="fill:#000000;fill-opacity:1"
       id="g8">
      <g
         transform="translate(183.52911,209.99999)"
         id="g7">
        <path
           style="stroke:none"
           d="M 30.058594,1.3125 H 4.078125 v -45.457031 h 27.292969 v 10.066406 H 14.472656 v -1.3125 h 1.3125 v 9.40625 h -1.3125 v -1.3125 h 15.8125 v 10.066406 h -15.8125 v -1.3125 h 1.3125 V -7.5 h -1.3125 v -1.3125 h 16.898438 v 10.125 z m 0,-2.625 V 0 h -1.3125 v -7.5 h 1.3125 v 1.3125 H 13.160156 v -13.667969 h 15.8125 v 1.3125 h -1.3125 v -7.441406 h 1.3125 v 1.3125 h -15.8125 v -12.03125 h 16.898438 v 1.3125 h -1.3125 v -7.441406 h 1.3125 v 1.3125 H 5.390625 v -1.3125 h 1.3125 V 0 h -1.3125 v -1.3125 z m 0,0"
           id="path6" />
      </g>
    </g>
    <g
       style="fill:#000000;fill-opacity:1"
       id="g10">
      <g
         transform="translate(215.33263,209.99999)"
         id="g9">
        <path
           style="stroke:none"
           d="m 14.472656,-25.128906 h 2.929688 c 2.59375,0 4.464844,-0.402344 5.605468,-1.199219 0.992188,-0.695313 1.488282,-1.84375 1.488282,-3.4375 0,-0.816406 -0.128906,-1.496094 -0.390625,-2.035156 -0.238281,-0.492188 -0.597657,-0.886719 -1.078125,-1.183594 -1.183594,-0.730469 -3.117188,-1.09375 -5.800782,-1.09375 h -2.753906 v -1.3125 h 1.3125 v 11.574219 h -1.3125 z m -1.3125,2.625 v -14.199219 h 4.066406 c 3.175782,0 5.570313,0.496094 7.175782,1.484375 0.917968,0.5625 1.605468,1.320312 2.066406,2.273438 0.4375,0.90625 0.652344,1.964843 0.652344,3.179687 0,1.214844 -0.207032,2.285156 -0.628906,3.210937 -0.441407,0.96875 -1.101563,1.761719 -1.980469,2.375 -1.59375,1.117188 -3.960938,1.675782 -7.109375,1.675782 z m 2.625,6.070312 V 1.3125 H 4.078125 v -45.457031 h 13.792969 c 6.113281,0 10.6875,1.148437 13.714844,3.445312 3.136718,2.382813 4.707031,5.949219 4.707031,10.699219 0,2.796875 -0.773438,5.292969 -2.320313,7.480469 -1.527344,2.164062 -3.671875,3.847656 -6.433594,5.058593 l -0.527343,-1.199218 1.089843,-0.730469 C 34.542969,-9.769531 38.738281,-3.554688 40.6875,-0.75 l 1.429688,2.0625 H 28.800781 l -10.609375,-17.054688 1.113282,-0.691406 v 1.3125 h -4.832032 v -1.3125 z m -2.625,-1.3125 h 6.875 L 30.644531,-0.691406 29.53125,0 V -1.3125 H 39.609375 V 0 L 38.53125,0.75 C 36.574219,-2.070312 32.371094,-8.296875 25.921875,-17.933594 l -0.871094,-1.300781 1.433594,-0.628906 c 2.316406,-1.015625 4.097656,-2.40625 5.34375,-4.171875 1.226563,-1.734375 1.839844,-3.722656 1.839844,-5.964844 0,-3.882812 -1.222657,-6.75 -3.671875,-8.609375 -2.558594,-1.941406 -6.597656,-2.910156 -12.125,-2.910156 H 5.390625 v -1.3125 h 1.3125 V 0 h -1.3125 v -1.3125 h 9.082031 V 0 h -1.3125 z m 0,0"
           id="path8" />
      </g>
    </g>
    <g
       style="fill:#000000;fill-opacity:1"
       id="g12">
      <g
         transform="translate(253.142,209.99999)"
         id="g11">
        <path
           style="stroke:none"
           d="M 4.078125,-44.144531 H 15.785156 V 1.3125 H 4.078125 Z m 2.625,2.625 V -1.3125 h 6.457031 v -40.207031 z m 0,0"
           id="path10" />
      </g>
    </g>
    <g
       style="fill:#000000;fill-opacity:1"
       id="g14">
      <g
         transform="translate(271.20529,209.99999)"
         id="g13">
        <path
           style="stroke:none"
           d="M 30.058594,1.3125 H 4.078125 v -45.457031 h 27.292969 v 10.066406 H 14.472656 v -1.3125 h 1.3125 v 9.40625 h -1.3125 v -1.3125 h 15.8125 v 10.066406 h -15.8125 v -1.3125 h 1.3125 V -7.5 h -1.3125 v -1.3125 h 16.898438 v 10.125 z m 0,-2.625 V 0 h -1.3125 v -7.5 h 1.3125 v 1.3125 H 13.160156 v -13.667969 h 15.8125 v 1.3125 h -1.3125 v -7.441406 h 1.3125 v 1.3125 h -15.8125 v -12.03125 h 16.898438 v 1.3125 h -1.3125 v -7.441406 h 1.3125 v 1.3125 H 5.390625 v -1.3125 h 1.3125 V 0 h -1.3125 v -1.3125 z m 0,0"
           id="path12" />
      </g>
    </g>
    <g
       style="fill:#000000;fill-opacity:1"
       id="g16">
      <g
         transform="translate(73.585063,212.95225)"
         id="g15">
        <path
           style="stroke:none"
           d="M 21.65625,-24.046875 H 38.640625 V -1.84375 c -2.75,0.898438 -5.34375,1.527344 -7.78125,1.890625 -2.429687,0.363281 -4.914063,0.546875 -7.453125,0.546875 -6.460938,0 -11.398438,-1.898438 -14.8125,-5.703125 -3.40625,-3.800781 -5.109375,-9.253906 -5.109375,-16.359375 0,-6.914062 1.976563,-12.304688 5.9375,-16.171875 3.957031,-3.875 9.441406,-5.8125 16.453125,-5.8125 4.394531,0 8.628906,0.882813 12.703125,2.640625 l -3.015625,7.265625 c -3.125,-1.5625 -6.375,-2.34375 -9.75,-2.34375 -3.929688,0 -7.074219,1.320313 -9.4375,3.953125 -2.367188,2.636719 -3.546875,6.183594 -3.546875,10.640625 0,4.648437 0.953125,8.199219 2.859375,10.65625 1.90625,2.449219 4.675781,3.671875 8.3125,3.671875 1.894531,0 3.816406,-0.195312 5.765625,-0.59375 V -16.5 H 21.65625 Z m 0,0"
           id="path14" />
      </g>
    </g>
    <g
       style="fill:#000000;fill-opacity:1"
       id="g18">
      <g
         transform="translate(115.23233,212.95225)"
         id="g17">
        <path
           style="stroke:none"
           d="M 31.609375,0 28.5,-10.203125 H 12.890625 L 9.78125,0 H 0 L 15.125,-43.015625 H 26.21875 L 41.390625,0 Z M 26.34375,-17.8125 c -2.875,-9.238281 -4.496094,-14.460938 -4.859375,-15.671875 -0.355469,-1.207031 -0.609375,-2.164063 -0.765625,-2.875 -0.648438,2.5 -2.496094,8.683594 -5.546875,18.546875 z m 0,0"
           id="path16" />
      </g>
    </g>
    <g
       style="fill:#000000;fill-opacity:1"
       id="g20">
      <g
         transform="translate(154.82882,212.95225)"
         id="g19">
        <path
           style="stroke:none"
           d="M 5.390625,0 V -42.828125 H 14.46875 V -7.5 h 17.375 V 0 Z m 0,0"
           id="path18" />
      </g>
    </g>
    <g
       style="fill:#000000;fill-opacity:1"
       id="g22">
      <g
         transform="translate(186.9253,212.95225)"
         id="g21">
        <path
           style="stroke:none"
           d="M 30.0625,0 H 5.390625 V -42.828125 H 30.0625 v 7.4375 H 14.46875 v 9.40625 h 14.5 v 7.4375 h -14.5 V -7.5 H 30.0625 Z m 0,0"
           id="path20" />
      </g>
    </g>
    <g
       style="fill:#000000;fill-opacity:1"
       id="g24">
      <g
         transform="translate(218.72882,212.95225)"
         id="g23">
        <path
           style="stroke:none"
           d="m 14.46875,-23.8125 h 2.9375 c 2.863281,0 4.976562,-0.476562 6.34375,-1.4375 1.375,-0.957031 2.0625,-2.460938 2.0625,-4.515625 0,-2.03125 -0.699219,-3.472656 -2.09375,-4.328125 -1.398438,-0.863281 -3.558594,-1.296875 -6.484375,-1.296875 H 14.46875 Z m 0,7.375 V 0 H 5.390625 V -42.828125 H 17.875 c 5.820312,0 10.128906,1.0625 12.921875,3.1875 2.789063,2.117187 4.1875,5.328125 4.1875,9.640625 0,2.523438 -0.695313,4.765625 -2.078125,6.734375 -1.386719,1.960937 -3.351562,3.496094 -5.890625,4.609375 C 33.460938,-9.03125 37.660156,-2.8125 39.609375,0 H 29.53125 L 19.3125,-16.4375 Z m 0,0"
           id="path22" />
      </g>
    </g>
    <g
       style="fill:#000000;fill-opacity:1"
       id="g26">
      <g
         transform="translate(256.5382,212.95225)"
         id="g25">
        <path
           style="stroke:none"
           d="M 5.390625,0 V -42.828125 H 14.46875 V 0 Z m 0,0"
           id="path24" />
      </g>
    </g>
    <g
       style="fill:#000000;fill-opacity:1"
       id="g28">
      <g
         transform="translate(274.60148,212.95225)"
         id="g27">
        <path
           style="stroke:none"
           d="M 30.0625,0 H 5.390625 V -42.828125 H 30.0625 v 7.4375 H 14.46875 v 9.40625 h 14.5 v 7.4375 h -14.5 V -7.5 H 30.0625 Z m 0,0"
           id="path26" />
      </g>
    </g>
    <g
       style="fill:#ffffff;fill-opacity:1"
       id="g30">
      <g
         transform="translate(70.188866,209.99999)"
         id="g29">
        <path
           style="stroke:none"
           d="M 21.65625,-24.046875 H 38.640625 V -1.84375 c -2.75,0.898438 -5.34375,1.527344 -7.78125,1.890625 -2.429687,0.363281 -4.914063,0.546875 -7.453125,0.546875 -6.460938,0 -11.398438,-1.898438 -14.8125,-5.703125 -3.40625,-3.800781 -5.109375,-9.253906 -5.109375,-16.359375 0,-6.914062 1.976563,-12.304688 5.9375,-16.171875 3.957031,-3.875 9.441406,-5.8125 16.453125,-5.8125 4.394531,0 8.628906,0.882813 12.703125,2.640625 l -3.015625,7.265625 c -3.125,-1.5625 -6.375,-2.34375 -9.75,-2.34375 -3.929688,0 -7.074219,1.320313 -9.4375,3.953125 -2.367188,2.636719 -3.546875,6.183594 -3.546875,10.640625 0,4.648437 0.953125,8.199219 2.859375,10.65625 1.90625,2.449219 4.675781,3.671875 8.3125,3.671875 1.894531,0 3.816406,-0.195312 5.765625,-0.59375 V -16.5 H 21.65625 Z m 0,0"
           id="path28" />
      </g>
    </g>
    <g
       style="fill:#ffffff;fill-opacity:1"
       id="g32">
      <g
         transform="translate(111.83613,209.99999)"
         id="g31">
        <path
           style="stroke:none"
           d="M 31.609375,0 28.5,-10.203125 H 12.890625 L 9.78125,0 H 0 L 15.125,-43.015625 H 26.21875 L 41.390625,0 Z M 26.34375,-17.8125 c -2.875,-9.238281 -4.496094,-14.460938 -4.859375,-15.671875 -0.355469,-1.207031 -0.609375,-2.164063 -0.765625,-2.875 -0.648438,2.5 -2.496094,8.683594 -5.546875,18.546875 z m 0,0"
           id="path30" />
      </g>
    </g>
    <g
       style="fill:#ffffff;fill-opacity:1"
       id="g34">
      <g
         transform="translate(151.43262,209.99999)"
         id="g33">
        <path
           style="stroke:none"
           d="M 5.390625,0 V -42.828125 H 14.46875 V -7.5 h 17.375 V 0 Z m 0,0"
           id="path32" />
      </g>
    </g>
    <g
       style="fill:#ffffff;fill-opacity:1"
       id="g36">
      <g
         transform="translate(183.52911,209.99999)"
         id="g35">
        <path
           style="stroke:none"
           d="M 30.0625,0 H 5.390625 V -42.828125 H 30.0625 v 7.4375 H 14.46875 v 9.40625 h 14.5 v 7.4375 h -14.5 V -7.5 H 30.0625 Z m 0,0"
           id="path34" />
      </g>
    </g>
    <g
       style="fill:#ffffff;fill-opacity:1"
       id="g38">
      <g
         transform="translate(215.33263,209.99999)"
         id="g37">
        <path
           style="stroke:none"
           d="m 14.46875,-23.8125 h 2.9375 c 2.863281,0 4.976562,-0.476562 6.34375,-1.4375 1.375,-0.957031 2.0625,-2.460938 2.0625,-4.515625 0,-2.03125 -0.699219,-3.472656 -2.09375,-4.328125 -1.398438,-0.863281 -3.558594,-1.296875 -6.484375,-1.296875 H 14.46875 Z m 0,7.375 V 0 H 5.390625 V -42.828125 H 17.875 c 5.820312,0 10.128906,1.0625 12.921875,3.1875 2.789063,2.117187 4.1875,5.328125 4.1875,9.640625 0,2.523438 -0.695313,4.765625 -2.078125,6.734375 -1.386719,1.960937 -3.351562,3.496094 -5.890625,4.609375 C 33.460938,-9.03125 37.660156,-2.8125 39.609375,0 H 29.53125 L 19.3125,-16.4375 Z m 0,0"
           id="path36" />
      </g>
    </g>
    <g
       style="fill:#ffffff;fill-opacity:1"
       id="g40">
      <g
         transform="translate(253.142,209.99999)"
         id="g39">
        <path
           style="stroke:none"
           d="M 5.390625,0 V -42.828125 H 14.46875 V 0 Z m 0,0"
           id="path38" />
      </g>
    </g>
    <g
       style="fill:#ffffff;fill-opacity:1"
       id="g42">
      <g
         transform="translate(271.20529,209.99999)"
         id="g41">
        <path
           style="stroke:none"
           d="M 30.0625,0 H 5.390625 V -42.828125 H 30.0625 v 7.4375 H 14.46875 v 9.40625 h 14.5 v 7.4375 h -14.5 V -7.5 H 30.0625 Z m 0,0"
           id="path40" />
      </g>
    </g>
  </g>
</svg>
