<?xml version="1.0" encoding="UTF-8" standalone="no"?>
<svg
   width="442.80042"
   zoomAndPan="magnify"
   viewBox="0 0 332.10031 74.924885"
   height="99.899849"
   preserveAspectRatio="xMidYMid"
   version="1.2"
   id="svg168"
   sodipodi:docname="GIF Sections (1).svg"
   inkscape:version="1.3 (0e150ed, 2023-07-21)"
   xmlns:inkscape="http://www.inkscape.org/namespaces/inkscape"
   xmlns:sodipodi="http://sodipodi.sourceforge.net/DTD/sodipodi-0.dtd"
   xmlns="http://www.w3.org/2000/svg"
   xmlns:svg="http://www.w3.org/2000/svg">
  <sodipodi:namedview
     id="namedview168"
     pagecolor="#ffffff"
     bordercolor="#000000"
     borderopacity="0.25"
     inkscape:showpageshadow="2"
     inkscape:pageopacity="0.0"
     inkscape:pagecheckerboard="0"
     inkscape:deskcolor="#d1d1d1"
     inkscape:zoom="0.472"
     inkscape:cx="230.9322"
     inkscape:cy="59.322034"
     inkscape:window-width="1472"
     inkscape:window-height="449"
     inkscape:window-x="62"
     inkscape:window-y="39"
     inkscape:window-maximized="0"
     inkscape:current-layer="svg168" />
  <defs
     id="defs1" />
  <g
     id="88dca2b148"
     transform="translate(-13.709215,-142.68534)">
    <g
       style="fill:#000000;fill-opacity:1"
       id="g2">
      <g
         transform="translate(12.884996,174.68924)"
         id="g1">
        <path
           style="stroke:none"
           d="m 2.78125,0 v -30.125 h 7.988281 V -5.117188 H 9.875 v -0.894531 h 12.75 v 6.90625 H 2.78125 Z M 4.574219,0 H 3.679688 V -0.894531 H 21.730469 V 0 h -0.894531 v -5.117188 h 0.894531 v 0.894532 h -12.75 V -29.226562 H 9.875 v 0.894531 H 3.679688 v -0.894531 h 0.894531 z m 0,0"
           id="path1" />
      </g>
    </g>
    <g
       style="fill:#000000;fill-opacity:1"
       id="g4">
      <g
         transform="translate(34.781696,174.68924)"
         id="g3">
        <path
           style="stroke:none"
           d="m 16.558594,0.324219 -1.179688,-3.039063 0.835938,-0.324218 v 0.894531 h -0.160156 v -0.894531 l 0.699218,0.558593 C 15.640625,-1.078125 14.472656,-0.09375 13.257812,0.464844 12.054688,1.019531 10.511719,1.296875 8.636719,1.296875 6.246094,1.296875 4.34375,0.59375 2.9375,-0.804688 1.527344,-2.207031 0.824219,-4.164062 0.824219,-6.675781 c 0,-1.320313 0.234375,-2.480469 0.707031,-3.476563 0.484375,-1.019531 1.210938,-1.859375 2.175781,-2.515625 1.800781,-1.222656 4.457031,-1.894531 7.976563,-2.019531 l 3.882812,-0.121094 0.02734,0.894532 h -0.894531 v -0.980469 c 0,-0.878907 -0.203125,-1.515625 -0.601563,-1.90625 -0.40625,-0.398438 -1.066406,-0.59375 -1.984375,-0.59375 -1.65625,0 -3.632812,0.511719 -5.929687,1.539062 l -0.789063,0.351563 -2.785156,-5.675782 0.773437,-0.40625 c 2.70313,-1.414062 5.691411,-2.121093 8.972661,-2.121093 3.210937,0 5.699219,0.722656 7.460937,2.164062 1.820313,1.484375 2.730469,3.699219 2.730469,6.648438 V 0.894531 H 16.78125 Z M 18.226562,-0.324219 17.390625,0 v -0.894531 h 4.261719 V 0 h -0.898438 v -14.894531 c 0,-2.382813 -0.6875,-4.136719 -2.070312,-5.261719 -1.433594,-1.171875 -3.542969,-1.757812 -6.328125,-1.757812 -2.984375,0 -5.699219,0.636718 -8.140625,1.917968 l -0.417969,-0.796875 0.804687,-0.390625 2.019532,4.117188 -0.804688,0.394531 -0.363281,-0.820313 c 2.527344,-1.128906 4.75,-1.695312 6.660156,-1.695312 1.40625,0 2.484375,0.367188 3.238281,1.105469 0.757813,0.742187 1.136719,1.804687 1.136719,3.1875 v 1.847656 l -4.742187,0.148437 c -3.171875,0.113282 -5.519532,0.683594 -7.035156,1.714844 -0.695313,0.472656 -1.214844,1.070313 -1.558594,1.800782 -0.359375,0.75 -0.539063,1.652343 -0.539063,2.707031 0,2.015625 0.53125,3.550781 1.585938,4.601562 1.058593,1.050781 2.539062,1.578125 4.4375,1.578125 1.613281,0 2.90625,-0.222656 3.875,-0.667968 0.957031,-0.441407 1.902343,-1.25 2.839843,-2.429688 l 0.269532,-0.339844 h 1.207031 z M 15.625,-9.460938 13.265625,-9.378906 C 11.664062,-9.332031 10.5,-9.0625 9.777344,-8.574219 c -0.300782,0.203125 -0.523438,0.457031 -0.671875,0.757813 -0.15625,0.324218 -0.234375,0.714844 -0.234375,1.179687 0,0.585938 0.144531,1.007813 0.433594,1.257813 0.324218,0.285156 0.867187,0.425781 1.628906,0.425781 1.175781,0 2.097656,-0.324219 2.769531,-0.96875 0.664063,-0.636719 0.996094,-1.503906 0.996094,-2.59375 v -1.839844 h 0.894531 z m 0.863281,-1.820312 v 2.765625 c 0,1.601563 -0.515625,2.894531 -1.542969,3.882813 -1.019531,0.980468 -2.355468,1.46875 -4.011718,1.46875 -1.207032,0 -2.144532,-0.285157 -2.804688,-0.863282 -0.699218,-0.609375 -1.046875,-1.480468 -1.046875,-2.609375 0,-0.738281 0.136719,-1.390625 0.414063,-1.960937 0.285156,-0.589844 0.710937,-1.078125 1.277344,-1.460938 1.011718,-0.683594 2.488281,-1.054687 4.429687,-1.113281 L 15.5625,-11.25 Z m 0,0"
           id="path2" />
      </g>
    </g>
    <g
       style="fill:#000000;fill-opacity:1"
       id="g6">
      <g
         transform="translate(58.277365,174.68924)"
         id="g5">
        <path
           style="stroke:none"
           d=""
           id="path4" />
      </g>
    </g>
    <g
       style="fill:#000000;fill-opacity:1"
       id="g8">
      <g
         transform="translate(67.682119,174.68924)"
         id="g7">
        <path
           style="stroke:none"
           d="m 3.679688,-30.125 h 9.09375 c 4.320312,0 7.484374,0.636719 9.503906,1.910156 1.078125,0.675782 1.886718,1.5625 2.429687,2.648438 0.53125,1.0625 0.796875,2.308594 0.796875,3.734375 0,1.941406 -0.464844,3.550781 -1.402344,4.828125 -0.960937,1.316406 -2.242187,2.109375 -3.84375,2.375 l -0.144531,-0.882813 h 0.894531 v 0.199219 h -0.894531 l 0.191407,-0.875 c 2.074218,0.460938 3.589843,1.351562 4.539062,2.667969 0.933594,1.289062 1.402344,2.96875 1.402344,5.042969 0,1.464843 -0.269532,2.777343 -0.804688,3.933593 -0.542968,1.171875 -1.355468,2.175781 -2.433594,3.011719 C 20.921875,0.0859375 18.125,0.894531 14.613281,0.894531 H 2.78125 V -30.125 Z m 0,1.792969 v -0.894531 H 4.574219 V 0 H 3.679688 v -0.894531 h 10.933593 c 3.101563,0 5.535157,-0.683594 7.296875,-2.050781 1.695313,-1.316407 2.542969,-3.160157 2.542969,-5.53125 0,-1.6875 -0.351563,-3.015626 -1.058594,-3.992188 -0.6875,-0.949219 -1.847656,-1.605469 -3.476562,-1.96875 l -0.703125,-0.15625 v -1.679688 l 0.75,-0.125 c 1.117187,-0.183593 2.015625,-0.738281 2.691406,-1.664062 0.707031,-0.960938 1.058594,-2.21875 1.058594,-3.769531 0,-1.144531 -0.203125,-2.121094 -0.609375,-2.933594 -0.394531,-0.789063 -0.988281,-1.433594 -1.78125,-1.933594 -1.726563,-1.089843 -4.578125,-1.632812 -8.550781,-1.632812 z M 9.875,-18.546875 h 3.597656 c 1.496094,0 2.542969,-0.207031 3.140625,-0.621094 0.496094,-0.34375 0.742188,-0.957031 0.742188,-1.84375 0,-0.414062 -0.07031,-0.761719 -0.207031,-1.035156 -0.128907,-0.246094 -0.320313,-0.449219 -0.582032,-0.601563 -0.679687,-0.402343 -1.824218,-0.605468 -3.433594,-0.605468 H 9.875 v -0.894532 h 0.894531 v 6.496094 H 9.875 Z m -0.894531,1.789063 v -8.289063 h 4.152343 c 1.9375,0 3.386719,0.285156 4.347657,0.855469 0.558593,0.332031 0.980469,0.777344 1.261719,1.332031 0.269531,0.527344 0.40625,1.144531 0.40625,1.847656 0,0.726563 -0.121094,1.359375 -0.359376,1.90625 -0.253906,0.582031 -0.640624,1.054688 -1.15625,1.410157 -0.90625,0.625 -2.292968,0.9375 -4.160156,0.9375 z m 1.789062,4.023437 v 7.617187 H 9.875 v -0.894531 h 4.039062 c 1.496094,0 2.566407,-0.261719 3.21875,-0.785156 0.589844,-0.472656 0.882813,-1.238281 0.882813,-2.300781 0,-0.46875 -0.07813,-0.871094 -0.238281,-1.207032 -0.148438,-0.3125 -0.375,-0.574218 -0.679688,-0.785156 -0.710937,-0.5 -1.839844,-0.75 -3.382812,-0.75 H 9.875 v -0.894531 z m -1.789062,-0.894531 h 4.734375 c 1.921875,0 3.390625,0.355468 4.410156,1.070312 0.5625,0.394532 0.988281,0.886719 1.269531,1.484375 0.277344,0.578125 0.414063,1.238281 0.414063,1.976563 0,1.632812 -0.519532,2.867187 -1.554688,3.699218 -0.976562,0.785157 -2.421875,1.175782 -4.339844,1.175782 H 8.980469 Z m 0,0"
           id="path6" />
      </g>
    </g>
    <g
       style="fill:#000000;fill-opacity:1"
       id="g10">
      <g
         transform="translate(93.95599,174.68924)"
         id="g9">
        <path
           style="stroke:none"
           d="m 8.953125,-11.214844 c 0,2.035156 0.316406,3.546875 0.945313,4.535156 0.273437,0.421876 0.628906,0.738282 1.066406,0.949219 0.46875,0.222657 1.046875,0.335938 1.730468,0.335938 0.675782,0 1.246094,-0.109375 1.707032,-0.332031 0.429687,-0.207032 0.777344,-0.519532 1.042968,-0.941407 0.621094,-0.976562 0.929688,-2.496093 0.929688,-4.546875 0,-2.035156 -0.308594,-3.53125 -0.933594,-4.488281 -0.265625,-0.410156 -0.617187,-0.71875 -1.054687,-0.921875 -0.46875,-0.222656 -1.046875,-0.332031 -1.730469,-0.332031 -0.679688,0 -1.253906,0.109375 -1.71875,0.328125 -0.433594,0.203125 -0.785156,0.507812 -1.050781,0.917968 -0.625,0.949219 -0.933594,2.449219 -0.933594,4.496094 z m -1.792969,0 c 0,-2.402344 0.410156,-4.230468 1.226563,-5.480468 0.453125,-0.691407 1.046875,-1.207032 1.789062,-1.554688 0.707031,-0.332031 1.53125,-0.5 2.480469,-0.5 0.949219,0 1.78125,0.167969 2.492188,0.5 0.746093,0.351562 1.34375,0.871094 1.796874,1.570312 0.816407,1.253907 1.222657,3.074219 1.222657,5.464844 0,2.398438 -0.402344,4.234375 -1.207031,5.507813 -0.449219,0.707031 -1.042969,1.238281 -1.78125,1.59375 -0.707032,0.339843 -1.535157,0.511719 -2.484376,0.511719 -0.957031,0 -1.789062,-0.171876 -2.503906,-0.511719 -0.746094,-0.359375 -1.34375,-0.890625 -1.800781,-1.601563 -0.820313,-1.277344 -1.230469,-3.113281 -1.230469,-5.5 z m 17.246094,0 c 0,3.875 -1.039062,6.921875 -3.121094,9.148438 -2.097656,2.242187 -4.984375,3.363281 -8.671875,3.363281 -2.304687,0 -4.34375,-0.511719 -6.121093,-1.53125 C 4.695312,-1.261719 3.316406,-2.738281 2.359375,-4.65625 1.414062,-6.542969 0.945312,-8.730469 0.945312,-11.214844 c 0,-3.890625 1.03125,-6.933594 3.101563,-9.128906 2.082031,-2.214844 4.976563,-3.320312 8.6875,-3.320312 2.304687,0 4.34375,0.503906 6.121094,1.515624 1.796875,1.019532 3.175781,2.484376 4.136719,4.394532 0.941406,1.871094 1.414062,4.050781 1.414062,6.539062 z m -1.792969,0 c 0,-2.203125 -0.40625,-4.117187 -1.222656,-5.734375 -0.796875,-1.585937 -1.9375,-2.800781 -3.421875,-3.644531 -1.5,-0.851562 -3.246094,-1.28125 -5.234375,-1.28125 -3.195313,0 -5.65625,0.917969 -7.382813,2.757812 -1.746093,1.851563 -2.617187,4.488282 -2.617187,7.902344 0,2.203125 0.410156,4.125 1.226563,5.757813 0.796874,1.597656 1.9375,2.820312 3.421874,3.671875 1.5,0.859375 3.246094,1.289062 5.230469,1.289062 3.167969,0 5.621094,-0.929687 7.363281,-2.792968 1.757813,-1.882813 2.636719,-4.523438 2.636719,-7.925782 z m 0,0"
           id="path8" />
      </g>
    </g>
    <g
       style="fill:#000000;fill-opacity:1"
       id="g12">
      <g
         transform="translate(118.07125,174.68924)"
         id="g11">
        <path
           style="stroke:none"
           d="m 23.828125,0.894531 h -6.992187 v -13.949219 c 0,-1.421874 -0.230469,-2.457031 -0.691407,-3.109374 -0.394531,-0.554688 -1.066406,-0.832032 -2.011719,-0.832032 -0.71875,0 -1.328124,0.113282 -1.828124,0.34375 -0.460938,0.214844 -0.835938,0.535156 -1.125,0.964844 -0.660157,0.992188 -0.988282,2.714844 -0.988282,5.171875 V 0.894531 H 2.304688 V -23.246094 H 8.53125 l 1.007812,3.507813 -0.863281,0.246093 v -0.894531 h 0.339844 v 0.894531 L 8.257812,-19.96875 c 0.773438,-1.230469 1.835938,-2.15625 3.191407,-2.785156 1.3125,-0.609375 2.792969,-0.910156 4.445312,-0.910156 2.851563,0 5.039063,0.792968 6.5625,2.382812 1.511719,1.578125 2.269531,3.816406 2.269531,6.707031 v 15.46875 z m 0,-1.789062 V 0 h -0.894531 v -14.574219 c 0,-2.410156 -0.589844,-4.234375 -1.769532,-5.46875 -1.171874,-1.21875 -2.925781,-1.832031 -5.269531,-1.832031 -1.390625,0 -2.621093,0.25 -3.691406,0.746094 -1.035156,0.480468 -1.84375,1.183594 -2.429687,2.113281 l -0.261719,0.417969 H 8 l -1.003906,-3.507813 0.859375,-0.246093 v 0.898437 h -4.65625 v -0.898437 H 4.09375 V 0 H 3.199219 V -0.894531 H 9.296875 V 0 H 8.398438 v -10.515625 c 0,-2.820313 0.433593,-4.875 1.292968,-6.164063 0.472656,-0.710937 1.09375,-1.242187 1.863282,-1.597656 0.734374,-0.339844 1.59375,-0.511718 2.578124,-0.511718 0.753907,0 1.414063,0.128906 1.988282,0.378906 0.605468,0.269531 1.101562,0.671875 1.480468,1.207031 0.683594,0.964844 1.027344,2.34375 1.027344,4.148437 V 0 h -0.898437 v -0.894531 z m 0,0"
           id="path10" />
      </g>
    </g>
    <g
       style="fill:#000000;fill-opacity:1"
       id="g14">
      <g
         transform="translate(143.74551,174.68924)"
         id="g13">
        <path
           style="stroke:none"
           d="m 23.828125,0.894531 h -6.992187 v -13.949219 c 0,-1.421874 -0.230469,-2.457031 -0.691407,-3.109374 -0.394531,-0.554688 -1.066406,-0.832032 -2.011719,-0.832032 -0.71875,0 -1.328124,0.113282 -1.828124,0.34375 -0.460938,0.214844 -0.835938,0.535156 -1.125,0.964844 -0.660157,0.992188 -0.988282,2.714844 -0.988282,5.171875 V 0.894531 H 2.304688 V -23.246094 H 8.53125 l 1.007812,3.507813 -0.863281,0.246093 v -0.894531 h 0.339844 v 0.894531 L 8.257812,-19.96875 c 0.773438,-1.230469 1.835938,-2.15625 3.191407,-2.785156 1.3125,-0.609375 2.792969,-0.910156 4.445312,-0.910156 2.851563,0 5.039063,0.792968 6.5625,2.382812 1.511719,1.578125 2.269531,3.816406 2.269531,6.707031 v 15.46875 z m 0,-1.789062 V 0 h -0.894531 v -14.574219 c 0,-2.410156 -0.589844,-4.234375 -1.769532,-5.46875 -1.171874,-1.21875 -2.925781,-1.832031 -5.269531,-1.832031 -1.390625,0 -2.621093,0.25 -3.691406,0.746094 -1.035156,0.480468 -1.84375,1.183594 -2.429687,2.113281 l -0.261719,0.417969 H 8 l -1.003906,-3.507813 0.859375,-0.246093 v 0.898437 h -4.65625 v -0.898437 H 4.09375 V 0 H 3.199219 V -0.894531 H 9.296875 V 0 H 8.398438 v -10.515625 c 0,-2.820313 0.433593,-4.875 1.292968,-6.164063 0.472656,-0.710937 1.09375,-1.242187 1.863282,-1.597656 0.734374,-0.339844 1.59375,-0.511718 2.578124,-0.511718 0.753907,0 1.414063,0.128906 1.988282,0.378906 0.605468,0.269531 1.101562,0.671875 1.480468,1.207031 0.683594,0.964844 1.027344,2.34375 1.027344,4.148437 V 0 h -0.898437 v -0.894531 z m 0,0"
           id="path12" />
      </g>
    </g>
    <g
       style="fill:#000000;fill-opacity:1"
       id="g16">
      <g
         transform="translate(169.41977,174.68924)"
         id="g15">
        <path
           style="stroke:none"
           d="m 12.453125,-17.535156 c -1.023437,0 -1.816406,0.308594 -2.371094,0.929687 -0.59375,0.667969 -0.941406,1.652344 -1.03125,2.953125 l -0.894531,-0.0625 v -0.894531 h 8.554688 v 0.894531 l -0.894532,0.01563 c -0.02344,-1.277343 -0.335937,-2.242187 -0.941406,-2.894531 -0.582031,-0.628906 -1.386719,-0.941406 -2.421875,-0.941406 z m 0,-1.792969 c 1.554687,0 2.800781,0.503906 3.738281,1.515625 0.914063,0.988281 1.386719,2.347656 1.417969,4.082031 l 0.01563,0.910157 H 7.195312 l 0.066407,-0.957032 c 0.121093,-1.710937 0.617187,-3.050781 1.488281,-4.023437 0.910156,-1.019531 2.144531,-1.527344 3.703125,-1.527344 z m 0.859375,20.625 C 9.472656,1.296875 6.449219,0.21875 4.25,-1.9375 2.046875,-4.101562 0.945312,-7.125 0.945312,-11.015625 c 0,-3.976563 1.011719,-7.074219 3.042969,-9.289063 2.050781,-2.242187 4.859375,-3.359374 8.425781,-3.359374 3.410157,0 6.082032,0.988281 8.019532,2.964843 1.929687,1.976563 2.890625,4.667969 2.890625,8.085938 v 3.851562 H 8.015625 V -9.65625 l 0.894531,-0.035156 c 0.058594,1.503906 0.488282,2.65625 1.285156,3.464844 0.78125,0.796874 1.917969,1.191406 3.398438,1.191406 1.277344,0 2.484375,-0.132813 3.617188,-0.394532 1.136718,-0.265624 2.332031,-0.691406 3.578124,-1.277343 l 1.277344,-0.601563 V -0.625 l -0.496094,0.246094 C 20.4375,0.1875 19.226562,0.609375 17.941406,0.886719 16.664062,1.160156 15.125,1.296875 13.3125,1.296875 Z m 0,-1.792969 c 1.683594,0 3.101562,-0.125 4.253906,-0.371094 1.136719,-0.242187 2.207032,-0.613281 3.203125,-1.113281 l 0.402344,0.800781 h -0.898437 v -4.71875 h 0.898437 l 0.378906,0.8125 C 20.1875,-4.445312 18.875,-3.980469 17.617188,-3.6875 c -1.265626,0.296875 -2.609376,0.445312 -4.023438,0.445312 -1.980469,0 -3.539062,-0.574218 -4.675781,-1.726562 -1.121094,-1.136719 -1.722657,-2.6875 -1.796875,-4.652344 l -0.035156,-0.929687 h 15.34375 v 0.894531 h -0.894532 v -2.957031 c 0,-2.929688 -0.796875,-5.207031 -2.382812,-6.832031 -1.585938,-1.621094 -3.832032,-2.429688 -6.738282,-2.429688 -3.042968,0 -5.410156,0.925781 -7.105468,2.777344 -1.714844,1.875 -2.574219,4.570312 -2.574219,8.082031 0,3.386719 0.925781,5.988281 2.769531,7.796875 1.851563,1.816406 4.457032,2.722656 7.808594,2.722656 z m 0,0"
           id="path14" />
      </g>
    </g>
    <g
       style="fill:#000000;fill-opacity:1"
       id="g18">
      <g
         transform="translate(192.37578,174.68924)"
         id="g17">
        <path
           style="stroke:none"
           d=""
           id="path16" />
      </g>
    </g>
    <g
       style="fill:#000000;fill-opacity:1"
       id="g20">
      <g
         transform="translate(201.78053,174.68924)"
         id="g19">
        <path
           style="stroke:none"
           d="m 9.875,-16.367188 h 2.039062 c 1.699219,0 2.9375,-0.3125 3.722657,-0.9375 0.71875,-0.574218 1.078125,-1.433593 1.078125,-2.585937 0,-1.183594 -0.292969,-2.03125 -0.882813,-2.546875 -0.621093,-0.542969 -1.667969,-0.816406 -3.136719,-0.816406 H 9.875 v -0.894532 h 0.894531 v 8.675782 H 9.875 Z m -0.894531,1.789063 v -10.46875 h 3.714843 c 1.917969,0 3.355469,0.421875 4.316407,1.261719 0.996093,0.871094 1.496093,2.167968 1.496093,3.894531 0,1.726563 -0.585937,3.054687 -1.757812,3.988281 -1.109375,0.882813 -2.71875,1.324219 -4.835938,1.324219 z m 15.785156,-5.535156 c 0,3.425781 -1.089844,6.058593 -3.265625,7.902343 C 19.367188,-10.402344 16.378906,-9.5 12.535156,-9.5 H 9.875 v -0.894531 h 0.894531 V 0.894531 H 2.78125 V -30.125 h 10.234375 c 3.757813,0 6.644531,0.832031 8.65625,2.496094 2.0625,1.707031 3.09375,4.210937 3.09375,7.515625 z m -1.792969,0 c 0,-2.742188 -0.8125,-4.789063 -2.441406,-6.136719 -1.679688,-1.386719 -4.1875,-2.082031 -7.515625,-2.082031 H 3.679688 v -0.894531 H 4.574219 V 0 H 3.679688 V -0.894531 H 9.875 V 0 H 8.980469 v -11.292969 h 3.554687 c 3.40625,0 6.007813,-0.761719 7.808594,-2.285156 1.753906,-1.488281 2.628906,-3.664063 2.628906,-6.535156 z m 0,0"
           id="path18" />
      </g>
    </g>
    <g
       style="fill:#000000;fill-opacity:1"
       id="g22">
      <g
         transform="translate(226.25556,174.68924)"
         id="g21">
        <path
           style="stroke:none"
           d="m 2.304688,-32.003906 h 7.886718 V 0.894531 H 2.304688 Z m 1.789062,1.792968 v 29.316407 h 4.304688 v -29.316407 z m 0,0"
           id="path20" />
      </g>
    </g>
    <g
       style="fill:#000000;fill-opacity:1"
       id="g24">
      <g
         transform="translate(237.51914,174.68924)"
         id="g23">
        <path
           style="stroke:none"
           d="m 16.558594,0.324219 -1.179688,-3.039063 0.835938,-0.324218 v 0.894531 h -0.160156 v -0.894531 l 0.699218,0.558593 C 15.640625,-1.078125 14.472656,-0.09375 13.257812,0.464844 12.054688,1.019531 10.511719,1.296875 8.636719,1.296875 6.246094,1.296875 4.34375,0.59375 2.9375,-0.804688 1.527344,-2.207031 0.824219,-4.164062 0.824219,-6.675781 c 0,-1.320313 0.234375,-2.480469 0.707031,-3.476563 0.484375,-1.019531 1.210938,-1.859375 2.175781,-2.515625 1.800781,-1.222656 4.457031,-1.894531 7.976563,-2.019531 l 3.882812,-0.121094 0.02734,0.894532 h -0.894531 v -0.980469 c 0,-0.878907 -0.203125,-1.515625 -0.601563,-1.90625 -0.40625,-0.398438 -1.066406,-0.59375 -1.984375,-0.59375 -1.65625,0 -3.632812,0.511719 -5.929687,1.539062 l -0.789063,0.351563 -2.785156,-5.675782 0.773437,-0.40625 c 2.70313,-1.414062 5.691411,-2.121093 8.972661,-2.121093 3.210937,0 5.699219,0.722656 7.460937,2.164062 1.820313,1.484375 2.730469,3.699219 2.730469,6.648438 V 0.894531 H 16.78125 Z M 18.226562,-0.324219 17.390625,0 v -0.894531 h 4.261719 V 0 h -0.898438 v -14.894531 c 0,-2.382813 -0.6875,-4.136719 -2.070312,-5.261719 -1.433594,-1.171875 -3.542969,-1.757812 -6.328125,-1.757812 -2.984375,0 -5.699219,0.636718 -8.140625,1.917968 l -0.417969,-0.796875 0.804687,-0.390625 2.019532,4.117188 -0.804688,0.394531 -0.363281,-0.820313 c 2.527344,-1.128906 4.75,-1.695312 6.660156,-1.695312 1.40625,0 2.484375,0.367188 3.238281,1.105469 0.757813,0.742187 1.136719,1.804687 1.136719,3.1875 v 1.847656 l -4.742187,0.148437 c -3.171875,0.113282 -5.519532,0.683594 -7.035156,1.714844 -0.695313,0.472656 -1.214844,1.070313 -1.558594,1.800782 -0.359375,0.75 -0.539063,1.652343 -0.539063,2.707031 0,2.015625 0.53125,3.550781 1.585938,4.601562 1.058593,1.050781 2.539062,1.578125 4.4375,1.578125 1.613281,0 2.90625,-0.222656 3.875,-0.667968 0.957031,-0.441407 1.902343,-1.25 2.839843,-2.429688 l 0.269532,-0.339844 h 1.207031 z M 15.625,-9.460938 13.265625,-9.378906 C 11.664062,-9.332031 10.5,-9.0625 9.777344,-8.574219 c -0.300782,0.203125 -0.523438,0.457031 -0.671875,0.757813 -0.15625,0.324218 -0.234375,0.714844 -0.234375,1.179687 0,0.585938 0.144531,1.007813 0.433594,1.257813 0.324218,0.285156 0.867187,0.425781 1.628906,0.425781 1.175781,0 2.097656,-0.324219 2.769531,-0.96875 0.664063,-0.636719 0.996094,-1.503906 0.996094,-2.59375 v -1.839844 h 0.894531 z m 0.863281,-1.820312 v 2.765625 c 0,1.601563 -0.515625,2.894531 -1.542969,3.882813 -1.019531,0.980468 -2.355468,1.46875 -4.011718,1.46875 -1.207032,0 -2.144532,-0.285157 -2.804688,-0.863282 -0.699218,-0.609375 -1.046875,-1.480468 -1.046875,-2.609375 0,-0.738281 0.136719,-1.390625 0.414063,-1.960937 0.285156,-0.589844 0.710937,-1.078125 1.277344,-1.460938 1.011718,-0.683594 2.488281,-1.054687 4.429687,-1.113281 L 15.5625,-11.25 Z m 0,0"
           id="path22" />
      </g>
    </g>
    <g
       style="fill:#000000;fill-opacity:1"
       id="g26">
      <g
         transform="translate(261.01479,174.68924)"
         id="g25">
        <path
           style="stroke:none"
           d="m 12.453125,-5.273438 c 1.261719,0 2.164063,-0.332031 2.703125,-1 C 15.75,-7 16.078125,-8.371094 16.136719,-10.382812 l 0.894531,0.02734 h -0.894531 v -0.738281 c 0,-2.210938 -0.3125,-3.757812 -0.941407,-4.640625 -0.5625,-0.789063 -1.507812,-1.183594 -2.839843,-1.183594 -0.570313,0 -1.058594,0.109375 -1.464844,0.320313 -0.398437,0.207031 -0.730469,0.527344 -1.003906,0.957031 -0.621094,0.976563 -0.933594,2.507813 -0.933594,4.585937 0,2.0625 0.308594,3.574219 0.925781,4.53125 0.269532,0.417969 0.605469,0.726563 1.015625,0.929688 0.425781,0.214844 0.949219,0.320312 1.558594,0.320312 z m 0,1.789063 c -0.890625,0 -1.679687,-0.167969 -2.359375,-0.507813 C 9.390625,-4.339844 8.820312,-4.859375 8.375,-5.550781 7.566406,-6.804688 7.160156,-8.640625 7.160156,-11.054688 c 0,-2.425781 0.40625,-4.277343 1.214844,-5.550781 0.445312,-0.695312 1.003906,-1.222656 1.683594,-1.578125 0.667968,-0.347656 1.433594,-0.523437 2.296875,-0.523437 1.945312,0 3.378906,0.644531 4.296875,1.933593 0.851562,1.195313 1.277344,3.089844 1.277344,5.679688 v 0.765625 c -0.07422,2.414063 -0.535157,4.140625 -1.382813,5.183594 -0.898437,1.109375 -2.261719,1.660156 -4.09375,1.660156 z m -2.175781,4.78125 C 8.816406,1.296875 7.507812,1.011719 6.351562,0.441406 5.1875,-0.132812 4.1875,-0.984375 3.355469,-2.117188 1.746094,-4.308594 0.945312,-7.3125 0.945312,-11.136719 c 0,-3.847656 0.820313,-6.878906 2.464844,-9.089843 0.847656,-1.140626 1.859375,-2 3.035156,-2.578126 1.167969,-0.574218 2.484376,-0.859374 3.949219,-0.859374 1.554688,0 2.925781,0.296874 4.105469,0.894531 1.183594,0.597656 2.214844,1.519531 3.101562,2.757812 l -0.730468,0.519531 v -0.894531 h 0.160156 v 0.894531 l -0.878906,-0.164062 0.679687,-3.589844 H 23.625 V 10.730469 H 15.71875 V 0.460938 c 0,-0.851563 0.08594,-2.003907 0.265625,-3.46875 l 0.886719,0.109374 v 0.894532 h -0.257813 v -0.894532 l 0.765625,0.464844 c -0.738281,1.222656 -1.722656,2.152344 -2.953125,2.789063 -1.207031,0.625 -2.59375,0.941406 -4.148437,0.941406 z m 0,-1.792969 c 1.265625,0 2.375,-0.246094 3.324218,-0.738281 0.929688,-0.484375 1.679688,-1.191406 2.246094,-2.128906 l 0.261719,-0.429688 h 1.773437 l -0.121093,1.003907 c -0.167969,1.386718 -0.253907,2.472656 -0.253907,3.25 v 9.375 H 16.613281 V 8.941406 h 6.117188 v 0.894532 h -0.894531 v -32.1875 h 0.894531 v 0.898437 h -5.15625 v -0.898437 l 0.878906,0.167968 -0.679687,3.585938 h -1.363282 l -0.265625,-0.375 c -0.714843,-1 -1.53125,-1.730469 -2.457031,-2.199219 -0.925781,-0.46875 -2.023438,-0.703125 -3.292969,-0.703125 -1.1875,0 -2.238281,0.226562 -3.160156,0.679688 -0.914063,0.449218 -1.710937,1.128906 -2.386719,2.039062 -1.410156,1.894531 -2.113281,4.566406 -2.113281,8.019531 0,3.429688 0.6875,6.082031 2.066406,7.957031 0.660157,0.898438 1.441407,1.570313 2.339844,2.011719 0.910156,0.449219 1.953125,0.671875 3.136719,0.671875 z m 0,0"
           id="path24" />
      </g>
    </g>
    <g
       style="fill:#000000;fill-opacity:1"
       id="g28">
      <g
         transform="translate(285.6897,174.68924)"
         id="g27">
        <path
           style="stroke:none"
           d="m 18.171875,0.246094 -0.820313,-2.859375 0.859376,-0.246094 v 0.894531 h -0.320313 v -0.894531 l 0.761719,0.476563 c -0.746094,1.1875 -1.800782,2.101562 -3.15625,2.742187 -1.320313,0.625 -2.8125,0.9375 -4.480469,0.9375 C 8.132812,1.296875 5.9375,0.5 4.429688,-1.09375 c -1.5,-1.578125 -2.246094,-3.804688 -2.246094,-6.683594 v -15.46875 h 7.886718 v 13.949219 c 0,1.421875 0.234376,2.460937 0.695313,3.109375 0.394531,0.554688 1.0625,0.832031 2.007813,0.832031 0.722656,0 1.332031,-0.113281 1.828124,-0.34375 0.464844,-0.214843 0.839844,-0.535156 1.125,-0.964843 0.660157,-0.988282 0.988282,-2.710938 0.988282,-5.171876 v -11.410156 h 7.890625 V 0.894531 h -6.25 z M 19.894531,-0.246094 19.03125,0 v -0.894531 h 4.679688 V 0 H 22.8125 v -22.351562 h 0.898438 v 0.898437 h -6.097657 v -0.898437 h 0.894531 v 10.515624 c 0,2.820313 -0.429687,4.875 -1.289062,6.164063 -0.472656,0.710937 -1.09375,1.242187 -1.863281,1.597656 -0.738281,0.34375 -1.597657,0.511719 -2.582031,0.511719 -0.75,0 -1.414063,-0.125 -1.984376,-0.378906 C 10.179688,-4.210938 9.6875,-4.613281 9.304688,-5.148438 8.621094,-6.109375 8.28125,-7.492188 8.28125,-9.296875 v -13.054687 h 0.894531 v 0.898437 H 3.078125 v -0.898437 h 0.894531 v 14.574218 c 0,2.402344 0.585938,4.21875 1.753906,5.453125 1.15625,1.21875 2.921876,1.828125 5.289063,1.828125 1.398437,0 2.636719,-0.253906 3.714844,-0.761718 1.042969,-0.492188 1.84375,-1.1875 2.402343,-2.078126 l 0.265626,-0.417968 h 1.488281 z m 0,0"
           id="path26" />
      </g>
    </g>
    <g
       style="fill:#000000;fill-opacity:1"
       id="g30">
      <g
         transform="translate(311.36397,174.68924)"
         id="g29">
        <path
           style="stroke:none"
           d="m 12.453125,-17.535156 c -1.023437,0 -1.816406,0.308594 -2.371094,0.929687 -0.59375,0.667969 -0.941406,1.652344 -1.03125,2.953125 l -0.894531,-0.0625 v -0.894531 h 8.554688 v 0.894531 l -0.894532,0.01563 c -0.02344,-1.277343 -0.335937,-2.242187 -0.941406,-2.894531 -0.582031,-0.628906 -1.386719,-0.941406 -2.421875,-0.941406 z m 0,-1.792969 c 1.554687,0 2.800781,0.503906 3.738281,1.515625 0.914063,0.988281 1.386719,2.347656 1.417969,4.082031 l 0.01563,0.910157 H 7.195312 l 0.066407,-0.957032 c 0.121093,-1.710937 0.617187,-3.050781 1.488281,-4.023437 0.910156,-1.019531 2.144531,-1.527344 3.703125,-1.527344 z m 0.859375,20.625 C 9.472656,1.296875 6.449219,0.21875 4.25,-1.9375 2.046875,-4.101562 0.945312,-7.125 0.945312,-11.015625 c 0,-3.976563 1.011719,-7.074219 3.042969,-9.289063 2.050781,-2.242187 4.859375,-3.359374 8.425781,-3.359374 3.410157,0 6.082032,0.988281 8.019532,2.964843 1.929687,1.976563 2.890625,4.667969 2.890625,8.085938 v 3.851562 H 8.015625 V -9.65625 l 0.894531,-0.035156 c 0.058594,1.503906 0.488282,2.65625 1.285156,3.464844 0.78125,0.796874 1.917969,1.191406 3.398438,1.191406 1.277344,0 2.484375,-0.132813 3.617188,-0.394532 1.136718,-0.265624 2.332031,-0.691406 3.578124,-1.277343 l 1.277344,-0.601563 V -0.625 l -0.496094,0.246094 C 20.4375,0.1875 19.226562,0.609375 17.941406,0.886719 16.664062,1.160156 15.125,1.296875 13.3125,1.296875 Z m 0,-1.792969 c 1.683594,0 3.101562,-0.125 4.253906,-0.371094 1.136719,-0.242187 2.207032,-0.613281 3.203125,-1.113281 l 0.402344,0.800781 h -0.898437 v -4.71875 h 0.898437 l 0.378906,0.8125 C 20.1875,-4.445312 18.875,-3.980469 17.617188,-3.6875 c -1.265626,0.296875 -2.609376,0.445312 -4.023438,0.445312 -1.980469,0 -3.539062,-0.574218 -4.675781,-1.726562 -1.121094,-1.136719 -1.722657,-2.6875 -1.796875,-4.652344 l -0.035156,-0.929687 h 15.34375 v 0.894531 h -0.894532 v -2.957031 c 0,-2.929688 -0.796875,-5.207031 -2.382812,-6.832031 -1.585938,-1.621094 -3.832032,-2.429688 -6.738282,-2.429688 -3.042968,0 -5.410156,0.925781 -7.105468,2.777344 -1.714844,1.875 -2.574219,4.570312 -2.574219,8.082031 0,3.386719 0.925781,5.988281 2.769531,7.796875 1.851563,1.816406 4.457032,2.722656 7.808594,2.722656 z m 0,0"
           id="path28" />
      </g>
    </g>
    <g
       style="fill:#000000;fill-opacity:1"
       id="g32">
      <g
         transform="translate(334.31997,174.68924)"
         id="g31">
        <path
           style="stroke:none"
           d="M 10.042969,-4.074219 C 9.335938,-1.332031 8.148438,1.90625 6.476562,5.644531 L 6.238281,6.171875 H 0.117188 L 0.390625,5.066406 C 1.25,1.546875 1.917969,-1.773438 2.394531,-4.894531 l 0.113281,-0.757813 h 6.855469 l 0.777344,1.195313 z m -1.734375,-0.445312 0.867187,0.222656 -0.75,0.488281 L 8.125,-4.269531 8.875,-4.757812 v 0.894531 H 3.277344 v -0.894531 l 0.886718,0.136718 C 3.679688,-1.453125 3.003906,1.917969 2.128906,5.492188 L 1.257812,5.277344 V 4.382812 H 5.65625 V 5.277344 L 4.839844,4.910156 c 1.632812,-3.644531 2.789062,-6.789062 3.46875,-9.429687 z m 0,0"
           id="path30" />
      </g>
    </g>
    <g
       style="fill:#000000;fill-opacity:1"
       id="g34">
      <g
         transform="translate(344.97091,174.68924)"
         id="g33">
        <path
           style="stroke:none"
           d=""
           id="path32" />
      </g>
    </g>
    <g
       style="fill:#000000;fill-opacity:1"
       id="g36">
      <g
         transform="translate(12.884996,215.18924)"
         id="g35">
        <path
           style="stroke:none"
           d="m 16.558594,0.324219 -1.179688,-3.039063 0.835938,-0.324218 v 0.894531 h -0.160156 v -0.894531 l 0.699218,0.558593 C 15.640625,-1.078125 14.472656,-0.09375 13.257812,0.464844 12.054688,1.019531 10.511719,1.296875 8.636719,1.296875 6.246094,1.296875 4.34375,0.59375 2.9375,-0.804688 1.527344,-2.207031 0.824219,-4.164062 0.824219,-6.675781 c 0,-1.320313 0.234375,-2.480469 0.707031,-3.476563 0.484375,-1.019531 1.210938,-1.859375 2.175781,-2.515625 1.800781,-1.222656 4.457031,-1.894531 7.976563,-2.019531 l 3.882812,-0.121094 0.02734,0.894532 h -0.894531 v -0.980469 c 0,-0.878907 -0.203125,-1.515625 -0.601563,-1.90625 -0.40625,-0.398438 -1.066406,-0.59375 -1.984375,-0.59375 -1.65625,0 -3.632812,0.511719 -5.929687,1.539062 l -0.789063,0.351563 -2.785156,-5.675782 0.773437,-0.40625 c 2.70313,-1.414062 5.691411,-2.121093 8.972661,-2.121093 3.210937,0 5.699219,0.722656 7.460937,2.164062 1.820313,1.484375 2.730469,3.699219 2.730469,6.648438 V 0.894531 H 16.78125 Z M 18.226562,-0.324219 17.390625,0 v -0.894531 h 4.261719 V 0 h -0.898438 v -14.894531 c 0,-2.382813 -0.6875,-4.136719 -2.070312,-5.261719 -1.433594,-1.171875 -3.542969,-1.757812 -6.328125,-1.757812 -2.984375,0 -5.699219,0.636718 -8.140625,1.917968 l -0.417969,-0.796875 0.804687,-0.390625 2.019532,4.117188 -0.804688,0.394531 -0.363281,-0.820313 c 2.527344,-1.128906 4.75,-1.695312 6.660156,-1.695312 1.40625,0 2.484375,0.367188 3.238281,1.105469 0.757813,0.742187 1.136719,1.804687 1.136719,3.1875 v 1.847656 l -4.742187,0.148437 c -3.171875,0.113282 -5.519532,0.683594 -7.035156,1.714844 -0.695313,0.472656 -1.214844,1.070313 -1.558594,1.800782 -0.359375,0.75 -0.539063,1.652343 -0.539063,2.707031 0,2.015625 0.53125,3.550781 1.585938,4.601562 1.058593,1.050781 2.539062,1.578125 4.4375,1.578125 1.613281,0 2.90625,-0.222656 3.875,-0.667968 0.957031,-0.441407 1.902343,-1.25 2.839843,-2.429688 l 0.269532,-0.339844 h 1.207031 z M 15.625,-9.460938 13.265625,-9.378906 C 11.664062,-9.332031 10.5,-9.0625 9.777344,-8.574219 c -0.300782,0.203125 -0.523438,0.457031 -0.671875,0.757813 -0.15625,0.324218 -0.234375,0.714844 -0.234375,1.179687 0,0.585938 0.144531,1.007813 0.433594,1.257813 0.324218,0.285156 0.867187,0.425781 1.628906,0.425781 1.175781,0 2.097656,-0.324219 2.769531,-0.96875 0.664063,-0.636719 0.996094,-1.503906 0.996094,-2.59375 v -1.839844 h 0.894531 z m 0.863281,-1.820312 v 2.765625 c 0,1.601563 -0.515625,2.894531 -1.542969,3.882813 -1.019531,0.980468 -2.355468,1.46875 -4.011718,1.46875 -1.207032,0 -2.144532,-0.285157 -2.804688,-0.863282 -0.699218,-0.609375 -1.046875,-1.480468 -1.046875,-2.609375 0,-0.738281 0.136719,-1.390625 0.414063,-1.960937 0.285156,-0.589844 0.710937,-1.078125 1.277344,-1.460938 1.011718,-0.683594 2.488281,-1.054687 4.429687,-1.113281 L 15.5625,-11.25 Z m 0,0"
           id="path34" />
      </g>
    </g>
    <g
       style="fill:#000000;fill-opacity:1"
       id="g38">
      <g
         transform="translate(36.380665,215.18924)"
         id="g37">
        <path
           style="stroke:none"
           d="m 18.171875,0.246094 -0.820313,-2.859375 0.859376,-0.246094 v 0.894531 h -0.320313 v -0.894531 l 0.761719,0.476563 c -0.746094,1.1875 -1.800782,2.101562 -3.15625,2.742187 -1.320313,0.625 -2.8125,0.9375 -4.480469,0.9375 C 8.132812,1.296875 5.9375,0.5 4.429688,-1.09375 c -1.5,-1.578125 -2.246094,-3.804688 -2.246094,-6.683594 v -15.46875 h 7.886718 v 13.949219 c 0,1.421875 0.234376,2.460937 0.695313,3.109375 0.394531,0.554688 1.0625,0.832031 2.007813,0.832031 0.722656,0 1.332031,-0.113281 1.828124,-0.34375 0.464844,-0.214843 0.839844,-0.535156 1.125,-0.964843 0.660157,-0.988282 0.988282,-2.710938 0.988282,-5.171876 v -11.410156 h 7.890625 V 0.894531 h -6.25 z M 19.894531,-0.246094 19.03125,0 v -0.894531 h 4.679688 V 0 H 22.8125 v -22.351562 h 0.898438 v 0.898437 h -6.097657 v -0.898437 h 0.894531 v 10.515624 c 0,2.820313 -0.429687,4.875 -1.289062,6.164063 -0.472656,0.710937 -1.09375,1.242187 -1.863281,1.597656 -0.738281,0.34375 -1.597657,0.511719 -2.582031,0.511719 -0.75,0 -1.414063,-0.125 -1.984376,-0.378906 C 10.179688,-4.210938 9.6875,-4.613281 9.304688,-5.148438 8.621094,-6.109375 8.28125,-7.492188 8.28125,-9.296875 v -13.054687 h 0.894531 v 0.898437 H 3.078125 v -0.898437 h 0.894531 v 14.574218 c 0,2.402344 0.585938,4.21875 1.753906,5.453125 1.15625,1.21875 2.921876,1.828125 5.289063,1.828125 1.398437,0 2.636719,-0.253906 3.714844,-0.761718 1.042969,-0.492188 1.84375,-1.1875 2.402343,-2.078126 l 0.265626,-0.417968 h 1.488281 z m 0,0"
           id="path36" />
      </g>
    </g>
    <g
       style="fill:#000000;fill-opacity:1"
       id="g40">
      <g
         transform="translate(62.054922,215.18924)"
         id="g39">
        <path
           style="stroke:none"
           d=""
           id="path38" />
      </g>
    </g>
    <g
       style="fill:#000000;fill-opacity:1"
       id="g42">
      <g
         transform="translate(71.459677,215.18924)"
         id="g41">
        <path
           style="stroke:none"
           d="m 3.679688,-30.125 h 9.09375 c 4.320312,0 7.484374,0.636719 9.503906,1.910156 1.078125,0.675782 1.886718,1.5625 2.429687,2.648438 0.53125,1.0625 0.796875,2.308594 0.796875,3.734375 0,1.941406 -0.464844,3.550781 -1.402344,4.828125 -0.960937,1.316406 -2.242187,2.109375 -3.84375,2.375 l -0.144531,-0.882813 h 0.894531 v 0.199219 h -0.894531 l 0.191407,-0.875 c 2.074218,0.460938 3.589843,1.351562 4.539062,2.667969 0.933594,1.289062 1.402344,2.96875 1.402344,5.042969 0,1.464843 -0.269532,2.777343 -0.804688,3.933593 -0.542968,1.171875 -1.355468,2.175781 -2.433594,3.011719 C 20.921875,0.0859375 18.125,0.894531 14.613281,0.894531 H 2.78125 V -30.125 Z m 0,1.792969 v -0.894531 H 4.574219 V 0 H 3.679688 v -0.894531 h 10.933593 c 3.101563,0 5.535157,-0.683594 7.296875,-2.050781 1.695313,-1.316407 2.542969,-3.160157 2.542969,-5.53125 0,-1.6875 -0.351563,-3.015626 -1.058594,-3.992188 -0.6875,-0.949219 -1.847656,-1.605469 -3.476562,-1.96875 l -0.703125,-0.15625 v -1.679688 l 0.75,-0.125 c 1.117187,-0.183593 2.015625,-0.738281 2.691406,-1.664062 0.707031,-0.960938 1.058594,-2.21875 1.058594,-3.769531 0,-1.144531 -0.203125,-2.121094 -0.609375,-2.933594 -0.394531,-0.789063 -0.988281,-1.433594 -1.78125,-1.933594 -1.726563,-1.089843 -4.578125,-1.632812 -8.550781,-1.632812 z M 9.875,-18.546875 h 3.597656 c 1.496094,0 2.542969,-0.207031 3.140625,-0.621094 0.496094,-0.34375 0.742188,-0.957031 0.742188,-1.84375 0,-0.414062 -0.07031,-0.761719 -0.207031,-1.035156 -0.128907,-0.246094 -0.320313,-0.449219 -0.582032,-0.601563 -0.679687,-0.402343 -1.824218,-0.605468 -3.433594,-0.605468 H 9.875 v -0.894532 h 0.894531 v 6.496094 H 9.875 Z m -0.894531,1.789063 v -8.289063 h 4.152343 c 1.9375,0 3.386719,0.285156 4.347657,0.855469 0.558593,0.332031 0.980469,0.777344 1.261719,1.332031 0.269531,0.527344 0.40625,1.144531 0.40625,1.847656 0,0.726563 -0.121094,1.359375 -0.359376,1.90625 -0.253906,0.582031 -0.640624,1.054688 -1.15625,1.410157 -0.90625,0.625 -2.292968,0.9375 -4.160156,0.9375 z m 1.789062,4.023437 v 7.617187 H 9.875 v -0.894531 h 4.039062 c 1.496094,0 2.566407,-0.261719 3.21875,-0.785156 0.589844,-0.472656 0.882813,-1.238281 0.882813,-2.300781 0,-0.46875 -0.07813,-0.871094 -0.238281,-1.207032 -0.148438,-0.3125 -0.375,-0.574218 -0.679688,-0.785156 -0.710937,-0.5 -1.839844,-0.75 -3.382812,-0.75 H 9.875 v -0.894531 z m -1.789062,-0.894531 h 4.734375 c 1.921875,0 3.390625,0.355468 4.410156,1.070312 0.5625,0.394532 0.988281,0.886719 1.269531,1.484375 0.277344,0.578125 0.414063,1.238281 0.414063,1.976563 0,1.632812 -0.519532,2.867187 -1.554688,3.699218 -0.976562,0.785157 -2.421875,1.175782 -4.339844,1.175782 H 8.980469 Z m 0,0"
           id="path40" />
      </g>
    </g>
    <g
       style="fill:#000000;fill-opacity:1"
       id="g44">
      <g
         transform="translate(97.733547,215.18924)"
         id="g43">
        <path
           style="stroke:none"
           d="m 8.953125,-11.214844 c 0,2.035156 0.316406,3.546875 0.945313,4.535156 0.273437,0.421876 0.628906,0.738282 1.066406,0.949219 0.46875,0.222657 1.046875,0.335938 1.730468,0.335938 0.675782,0 1.246094,-0.109375 1.707032,-0.332031 0.429687,-0.207032 0.777344,-0.519532 1.042968,-0.941407 0.621094,-0.976562 0.929688,-2.496093 0.929688,-4.546875 0,-2.035156 -0.308594,-3.53125 -0.933594,-4.488281 -0.265625,-0.410156 -0.617187,-0.71875 -1.054687,-0.921875 -0.46875,-0.222656 -1.046875,-0.332031 -1.730469,-0.332031 -0.679688,0 -1.253906,0.109375 -1.71875,0.328125 -0.433594,0.203125 -0.785156,0.507812 -1.050781,0.917968 -0.625,0.949219 -0.933594,2.449219 -0.933594,4.496094 z m -1.792969,0 c 0,-2.402344 0.410156,-4.230468 1.226563,-5.480468 0.453125,-0.691407 1.046875,-1.207032 1.789062,-1.554688 0.707031,-0.332031 1.53125,-0.5 2.480469,-0.5 0.949219,0 1.78125,0.167969 2.492188,0.5 0.746093,0.351562 1.34375,0.871094 1.796874,1.570312 0.816407,1.253907 1.222657,3.074219 1.222657,5.464844 0,2.398438 -0.402344,4.234375 -1.207031,5.507813 -0.449219,0.707031 -1.042969,1.238281 -1.78125,1.59375 -0.707032,0.339843 -1.535157,0.511719 -2.484376,0.511719 -0.957031,0 -1.789062,-0.171876 -2.503906,-0.511719 -0.746094,-0.359375 -1.34375,-0.890625 -1.800781,-1.601563 -0.820313,-1.277344 -1.230469,-3.113281 -1.230469,-5.5 z m 17.246094,0 c 0,3.875 -1.039062,6.921875 -3.121094,9.148438 -2.097656,2.242187 -4.984375,3.363281 -8.671875,3.363281 -2.304687,0 -4.34375,-0.511719 -6.121093,-1.53125 C 4.695312,-1.261719 3.316406,-2.738281 2.359375,-4.65625 1.414062,-6.542969 0.945312,-8.730469 0.945312,-11.214844 c 0,-3.890625 1.03125,-6.933594 3.101563,-9.128906 2.082031,-2.214844 4.976563,-3.320312 8.6875,-3.320312 2.304687,0 4.34375,0.503906 6.121094,1.515624 1.796875,1.019532 3.175781,2.484376 4.136719,4.394532 0.941406,1.871094 1.414062,4.050781 1.414062,6.539062 z m -1.792969,0 c 0,-2.203125 -0.40625,-4.117187 -1.222656,-5.734375 -0.796875,-1.585937 -1.9375,-2.800781 -3.421875,-3.644531 -1.5,-0.851562 -3.246094,-1.28125 -5.234375,-1.28125 -3.195313,0 -5.65625,0.917969 -7.382813,2.757812 -1.746093,1.851563 -2.617187,4.488282 -2.617187,7.902344 0,2.203125 0.410156,4.125 1.226563,5.757813 0.796874,1.597656 1.9375,2.820312 3.421874,3.671875 1.5,0.859375 3.246094,1.289062 5.230469,1.289062 3.167969,0 5.621094,-0.929687 7.363281,-2.792968 1.757813,-1.882813 2.636719,-4.523438 2.636719,-7.925782 z m 0,0"
           id="path42" />
      </g>
    </g>
    <g
       style="fill:#000000;fill-opacity:1"
       id="g46">
      <g
         transform="translate(121.84881,215.18924)"
         id="g45">
        <path
           style="stroke:none"
           d="m 23.828125,0.894531 h -6.992187 v -13.949219 c 0,-1.421874 -0.230469,-2.457031 -0.691407,-3.109374 -0.394531,-0.554688 -1.066406,-0.832032 -2.011719,-0.832032 -0.71875,0 -1.328124,0.113282 -1.828124,0.34375 -0.460938,0.214844 -0.835938,0.535156 -1.125,0.964844 -0.660157,0.992188 -0.988282,2.714844 -0.988282,5.171875 V 0.894531 H 2.304688 V -23.246094 H 8.53125 l 1.007812,3.507813 -0.863281,0.246093 v -0.894531 h 0.339844 v 0.894531 L 8.257812,-19.96875 c 0.773438,-1.230469 1.835938,-2.15625 3.191407,-2.785156 1.3125,-0.609375 2.792969,-0.910156 4.445312,-0.910156 2.851563,0 5.039063,0.792968 6.5625,2.382812 1.511719,1.578125 2.269531,3.816406 2.269531,6.707031 v 15.46875 z m 0,-1.789062 V 0 h -0.894531 v -14.574219 c 0,-2.410156 -0.589844,-4.234375 -1.769532,-5.46875 -1.171874,-1.21875 -2.925781,-1.832031 -5.269531,-1.832031 -1.390625,0 -2.621093,0.25 -3.691406,0.746094 -1.035156,0.480468 -1.84375,1.183594 -2.429687,2.113281 l -0.261719,0.417969 H 8 l -1.003906,-3.507813 0.859375,-0.246093 v 0.898437 h -4.65625 v -0.898437 H 4.09375 V 0 H 3.199219 V -0.894531 H 9.296875 V 0 H 8.398438 v -10.515625 c 0,-2.820313 0.433593,-4.875 1.292968,-6.164063 0.472656,-0.710937 1.09375,-1.242187 1.863282,-1.597656 0.734374,-0.339844 1.59375,-0.511718 2.578124,-0.511718 0.753907,0 1.414063,0.128906 1.988282,0.378906 0.605468,0.269531 1.101562,0.671875 1.480468,1.207031 0.683594,0.964844 1.027344,2.34375 1.027344,4.148437 V 0 h -0.898437 v -0.894531 z m 0,0"
           id="path44" />
      </g>
    </g>
    <g
       style="fill:#000000;fill-opacity:1"
       id="g48">
      <g
         transform="translate(147.52307,215.18924)"
         id="g47">
        <path
           style="stroke:none"
           d=""
           id="path46" />
      </g>
    </g>
    <g
       style="fill:#000000;fill-opacity:1"
       id="g50">
      <g
         transform="translate(156.92782,215.18924)"
         id="g49">
        <path
           style="stroke:none"
           d="m 9.875,-16.367188 h 2.039062 c 1.699219,0 2.9375,-0.3125 3.722657,-0.9375 0.71875,-0.574218 1.078125,-1.433593 1.078125,-2.585937 0,-1.183594 -0.292969,-2.03125 -0.882813,-2.546875 -0.621093,-0.542969 -1.667969,-0.816406 -3.136719,-0.816406 H 9.875 v -0.894532 h 0.894531 v 8.675782 H 9.875 Z m -0.894531,1.789063 v -10.46875 h 3.714843 c 1.917969,0 3.355469,0.421875 4.316407,1.261719 0.996093,0.871094 1.496093,2.167968 1.496093,3.894531 0,1.726563 -0.585937,3.054687 -1.757812,3.988281 -1.109375,0.882813 -2.71875,1.324219 -4.835938,1.324219 z m 15.785156,-5.535156 c 0,3.425781 -1.089844,6.058593 -3.265625,7.902343 C 19.367188,-10.402344 16.378906,-9.5 12.535156,-9.5 H 9.875 v -0.894531 h 0.894531 V 0.894531 H 2.78125 V -30.125 h 10.234375 c 3.757813,0 6.644531,0.832031 8.65625,2.496094 2.0625,1.707031 3.09375,4.210937 3.09375,7.515625 z m -1.792969,0 c 0,-2.742188 -0.8125,-4.789063 -2.441406,-6.136719 -1.679688,-1.386719 -4.1875,-2.082031 -7.515625,-2.082031 H 3.679688 v -0.894531 H 4.574219 V 0 H 3.679688 V -0.894531 H 9.875 V 0 H 8.980469 v -11.292969 h 3.554687 c 3.40625,0 6.007813,-0.761719 7.808594,-2.285156 1.753906,-1.488281 2.628906,-3.664063 2.628906,-6.535156 z m 0,0"
           id="path48" />
      </g>
    </g>
    <g
       style="fill:#000000;fill-opacity:1"
       id="g52">
      <g
         transform="translate(181.40285,215.18924)"
         id="g51">
        <path
           style="stroke:none"
           d="m 15.671875,-23.664062 c 0.890625,0 1.644531,0.06641 2.253906,0.199218 l 0.761719,0.167969 -0.609375,7.570313 -1.039063,-0.28125 c -0.417968,-0.113282 -0.9375,-0.167969 -1.566406,-0.167969 -1.710937,0 -3.027344,0.417969 -3.941406,1.261719 -0.894531,0.820312 -1.339844,2 -1.339844,3.539062 V 0.894531 H 2.304688 v -24.140625 h 6.21875 l 1.0625,4.445313 -0.871094,0.207031 v -0.894531 h 0.300781 v 0.894531 l -0.785156,-0.433594 c 0.765625,-1.382812 1.800781,-2.496094 3.105469,-3.34375 1.328124,-0.863281 2.773437,-1.292968 4.335937,-1.292968 z m 0,1.789062 c -1.207031,0 -2.328125,0.335938 -3.359375,1.003906 -1.054688,0.6875 -1.890625,1.589844 -2.511719,2.710938 l -0.257812,0.464844 H 8.007812 l -1.0625,-4.445313 0.871094,-0.210937 v 0.898437 H 3.199219 v -0.898437 H 4.09375 V 0 H 3.199219 V -0.894531 H 9.296875 V 0 H 8.398438 v -11.375 c 0,-2.0625 0.640624,-3.679688 1.921874,-4.859375 1.257813,-1.15625 2.972657,-1.734375 5.152344,-1.734375 0.785156,0 1.464844,0.07813 2.035156,0.230469 l -0.234374,0.867187 -0.894532,-0.07422 0.460938,-5.71875 0.890625,0.07422 -0.191407,0.875 C 17.058594,-21.820312 16.433594,-21.875 15.671875,-21.875 Z m 0,0"
           id="path50" />
      </g>
    </g>
    <g
       style="fill:#000000;fill-opacity:1"
       id="g54">
      <g
         transform="translate(198.76248,215.18924)"
         id="g53">
        <path
           style="stroke:none"
           d="m 2.042969,-28.128906 c 0,-1.257813 0.375,-2.226563 1.128906,-2.898438 0.722656,-0.652344 1.75,-0.976562 3.085937,-0.976562 1.335938,0 2.363282,0.324218 3.085938,0.976562 0.753906,0.671875 1.128906,1.640625 1.128906,2.898438 0,1.203125 -0.371094,2.15625 -1.109375,2.859375 -0.726562,0.691406 -1.761719,1.035156 -3.105469,1.035156 -1.335937,0 -2.367187,-0.324219 -3.089843,-0.980469 -0.75,-0.675781 -1.125,-1.648437 -1.125,-2.914062 z m 1.792969,0 c 0,0.734375 0.175781,1.261718 0.53125,1.585937 0.382812,0.34375 1.015624,0.519531 1.890624,0.519531 0.867188,0 1.492188,-0.183593 1.871094,-0.542968 0.367188,-0.351563 0.550782,-0.871094 0.550782,-1.5625 0,-0.726563 -0.175782,-1.25 -0.53125,-1.566406 -0.382813,-0.34375 -1.011719,-0.515626 -1.890626,-0.515626 -0.878906,0 -1.507812,0.171876 -1.890624,0.515626 -0.355469,0.316406 -0.53125,0.839843 -0.53125,1.566406 z M 9.296875,0.894531 H 2.304688 v -24.140625 h 7.886718 V 0.894531 Z m 0,-1.789062 V 0 H 8.398438 v -22.351562 h 0.898437 v 0.898437 H 3.199219 v -0.898437 H 4.09375 V 0 H 3.199219 v -0.894531 z m 0,0"
           id="path52" />
      </g>
    </g>
    <g
       style="fill:#000000;fill-opacity:1"
       id="g56">
      <g
         transform="translate(210.02604,215.18924)"
         id="g55">
        <path
           style="stroke:none"
           d="M 7.027344,-10.921875 -1.082031,-23.246094 H 8 l 4.601562,7.546875 -0.765624,0.464844 -0.765626,-0.46875 4.640626,-7.542969 h 9.089843 l -8.203125,12.328125 -0.746094,-0.496093 0.746094,-0.5 8.546875,12.808593 H 16.03125 L 11.070312,-7.1875 11.835938,-7.65625 12.597656,-7.1875 7.617188,0.894531 H -1.46875 l 8.5,-12.804687 0.746094,0.496094 z M 8.851562,-11.414062 0.945312,0.496094 0.199219,0 V -0.894531 H 7.117188 V 0 L 6.355469,-0.46875 11.835938,-9.367188 17.296875,-0.46875 16.53125,0 v -0.894531 h 6.9375 V 0 l -0.742188,0.496094 -7.949218,-11.910156 7.605468,-11.433594 0.746094,0.496094 v 0.898437 h -6.914062 v -0.898437 l 0.761718,0.46875 -5.144531,8.363281 -5.101562,-8.363281 0.765625,-0.46875 v 0.898437 H 0.578125 v -0.898437 l 0.75,-0.492188 7.195313,10.9375 z m 0,0"
           id="path54" />
      </g>
    </g>
    <g
       style="fill:#000000;fill-opacity:1"
       id="g58">
      <g
         transform="translate(15.202686,176.70397)"
         id="g57">
        <path
           style="stroke:none"
           d="M 3.671875,0 V -29.21875 H 9.875 V -5.125 H 21.734375 V 0 Z m 0,0"
           id="path56" />
      </g>
    </g>
    <g
       style="fill:#000000;fill-opacity:1"
       id="g60">
      <g
         transform="translate(37.099386,176.70397)"
         id="g59">
        <path
           style="stroke:none"
           d="M 17.390625,0 16.21875,-3.03125 h -0.171875 c -1.023437,1.292969 -2.078125,2.1875 -3.171875,2.6875 -1.085938,0.5 -2.496094,0.75 -4.234375,0.75 -2.148437,0 -3.839844,-0.613281 -5.078125,-1.84375 -1.230469,-1.226562 -1.84375,-2.972656 -1.84375,-5.234375 0,-2.375 0.828125,-4.125 2.484375,-5.25 1.664063,-1.125 4.171875,-1.75 7.515625,-1.875 l 3.875,-0.109375 v -0.984375 c 0,-2.269531 -1.164062,-3.40625 -3.484375,-3.40625 -1.78125,0 -3.882813,0.542969 -6.296875,1.625 L 3.796875,-20.78125 c 2.570313,-1.351562 5.425781,-2.03125 8.5625,-2.03125 2.988281,0 5.28125,0.65625 6.875,1.96875 1.601563,1.304688 2.40625,3.289062 2.40625,5.953125 V 0 Z m -1.796875,-10.359375 -2.359375,0.07813 c -1.773437,0.0625 -3.09375,0.386719 -3.96875,0.96875 -0.867187,0.585938 -1.296875,1.476562 -1.296875,2.671875 0,1.71875 0.988281,2.578125 2.96875,2.578125 1.40625,0 2.53125,-0.40625 3.375,-1.21875 0.851562,-0.8125 1.28125,-1.890625 1.28125,-3.234375 z m 0,0"
           id="path58" />
      </g>
    </g>
    <g
       style="fill:#000000;fill-opacity:1"
       id="g62">
      <g
         transform="translate(60.595054,176.70397)"
         id="g61">
        <path
           style="stroke:none"
           d=""
           id="path60" />
      </g>
    </g>
    <g
       style="fill:#000000;fill-opacity:1"
       id="g64">
      <g
         transform="translate(69.999808,176.70397)"
         id="g63">
        <path
           style="stroke:none"
           d="m 3.671875,-29.21875 h 9.09375 c 4.144531,0 7.15625,0.589844 9.03125,1.765625 1.875,1.179687 2.8125,3.054687 2.8125,5.625 0,1.75 -0.414063,3.1875 -1.234375,4.3125 -0.824219,1.117187 -1.914062,1.78125 -3.265625,2 v 0.203125 c 1.851563,0.417969 3.1875,1.195312 4,2.328125 0.820313,1.125 1.234375,2.632813 1.234375,4.515625 0,2.65625 -0.964844,4.734375 -2.890625,6.234375 C 20.523438,-0.742188 17.910156,0 14.609375,0 H 3.671875 Z M 9.875,-17.65625 h 3.59375 c 1.675781,0 2.890625,-0.253906 3.640625,-0.765625 0.757813,-0.519531 1.140625,-1.382813 1.140625,-2.59375 0,-1.113281 -0.414062,-1.910156 -1.234375,-2.390625 -0.8125,-0.488281 -2.109375,-0.734375 -3.890625,-0.734375 h -3.25 z m 0,4.921875 V -5.125 h 4.03125 c 1.707031,0 2.96875,-0.320312 3.78125,-0.96875 0.8125,-0.65625 1.21875,-1.65625 1.21875,-3 0,-2.425781 -1.730469,-3.640625 -5.1875,-3.640625 z m 0,0"
           id="path62" />
      </g>
    </g>
    <g
       style="fill:#000000;fill-opacity:1"
       id="g66">
      <g
         transform="translate(96.273679,176.70397)"
         id="g65">
        <path
           style="stroke:none"
           d="m 8.0625,-11.21875 c 0,2.21875 0.359375,3.898438 1.078125,5.03125 0.726563,1.125 1.910156,1.6875 3.546875,1.6875 1.625,0 2.789062,-0.5625 3.5,-1.6875 0.71875,-1.125 1.078125,-2.800781 1.078125,-5.03125 0,-2.207031 -0.359375,-3.863281 -1.078125,-4.96875 -0.71875,-1.101562 -1.898438,-1.65625 -3.53125,-1.65625 -1.625,0 -2.796875,0.554688 -3.515625,1.65625 -0.71875,1.09375 -1.078125,2.75 -1.078125,4.96875 z m 15.4375,0 c 0,3.648438 -0.960938,6.496094 -2.875,8.546875 C 18.707031,-0.617188 16.035156,0.40625 12.609375,0.40625 10.460938,0.40625 8.570312,-0.0625 6.9375,-1 5.300781,-1.945312 4.039062,-3.300781 3.15625,-5.0625 c -0.875,-1.757812 -1.3125,-3.8125 -1.3125,-6.15625 0,-3.644531 0.953125,-6.476562 2.859375,-8.5 1.90625,-2.03125 4.582031,-3.046875 8.03125,-3.046875 2.144531,0 4.035156,0.46875 5.671875,1.40625 1.644531,0.929687 2.90625,2.265625 3.78125,4.015625 0.875,1.742188 1.3125,3.78125 1.3125,6.125 z m 0,0"
           id="path64" />
      </g>
    </g>
    <g
       style="fill:#000000;fill-opacity:1"
       id="g68">
      <g
         transform="translate(120.38894,176.70397)"
         id="g67">
        <path
           style="stroke:none"
           d="m 23.828125,0 h -6.09375 v -13.046875 c 0,-1.613281 -0.289063,-2.820313 -0.859375,-3.625 -0.574219,-0.8125 -1.492188,-1.21875 -2.75,-1.21875 -1.699219,0 -2.929688,0.574219 -3.6875,1.71875 -0.761719,1.136719 -1.140625,3.023437 -1.140625,5.65625 V 0 h -6.09375 v -22.34375 h 4.65625 l 0.8125,2.859375 h 0.34375 c 0.675781,-1.082031 1.609375,-1.898437 2.796875,-2.453125 1.195312,-0.550781 2.554688,-0.828125 4.078125,-0.828125 2.601563,0 4.578125,0.703125 5.921875,2.109375 1.34375,1.40625 2.015625,3.433594 2.015625,6.078125 z m 0,0"
           id="path66" />
      </g>
    </g>
    <g
       style="fill:#000000;fill-opacity:1"
       id="g70">
      <g
         transform="translate(146.0632,176.70397)"
         id="g69">
        <path
           style="stroke:none"
           d="m 23.828125,0 h -6.09375 v -13.046875 c 0,-1.613281 -0.289063,-2.820313 -0.859375,-3.625 -0.574219,-0.8125 -1.492188,-1.21875 -2.75,-1.21875 -1.699219,0 -2.929688,0.574219 -3.6875,1.71875 -0.761719,1.136719 -1.140625,3.023437 -1.140625,5.65625 V 0 h -6.09375 v -22.34375 h 4.65625 l 0.8125,2.859375 h 0.34375 c 0.675781,-1.082031 1.609375,-1.898437 2.796875,-2.453125 1.195312,-0.550781 2.554688,-0.828125 4.078125,-0.828125 2.601563,0 4.578125,0.703125 5.921875,2.109375 1.34375,1.40625 2.015625,3.433594 2.015625,6.078125 z m 0,0"
           id="path68" />
      </g>
    </g>
    <g
       style="fill:#000000;fill-opacity:1"
       id="g72">
      <g
         transform="translate(171.73746,176.70397)"
         id="g71">
        <path
           style="stroke:none"
           d="m 12.453125,-18.4375 c -1.292969,0 -2.308594,0.414062 -3.046875,1.234375 -0.730469,0.824219 -1.148438,1.984375 -1.25,3.484375 h 8.546875 c -0.02344,-1.5 -0.414063,-2.660156 -1.171875,-3.484375 -0.761719,-0.820313 -1.789062,-1.234375 -3.078125,-1.234375 z M 13.3125,0.40625 c -3.59375,0 -6.40625,-0.992188 -8.4375,-2.984375 -2.023438,-1.988281 -3.03125,-4.800781 -3.03125,-8.4375 0,-3.738281 0.929688,-6.628906 2.796875,-8.671875 1.875,-2.050781 4.460937,-3.078125 7.765625,-3.078125 3.164062,0 5.625,0.902344 7.375,2.703125 1.757812,1.792969 2.640625,4.277344 2.640625,7.453125 V -9.65625 H 8.015625 c 0.0625,1.730469 0.570313,3.085938 1.53125,4.0625 0.96875,0.96875 2.316406,1.453125 4.046875,1.453125 1.34375,0 2.613281,-0.140625 3.8125,-0.421875 1.195312,-0.28125 2.453125,-0.722656 3.765625,-1.328125 v 4.71875 C 20.097656,-0.640625 18.957031,-0.242188 17.75,0.015625 16.539062,0.273438 15.0625,0.40625 13.3125,0.40625 Z m 0,0"
           id="path70" />
      </g>
    </g>
    <g
       style="fill:#000000;fill-opacity:1"
       id="g74">
      <g
         transform="translate(194.69347,176.70397)"
         id="g73">
        <path
           style="stroke:none"
           d=""
           id="path72" />
      </g>
    </g>
    <g
       style="fill:#000000;fill-opacity:1"
       id="g76">
      <g
         transform="translate(204.09822,176.70397)"
         id="g75">
        <path
           style="stroke:none"
           d="m 9.875,-15.46875 h 2.03125 c 1.90625,0 3.332031,-0.375 4.28125,-1.125 0.945312,-0.757812 1.421875,-1.859375 1.421875,-3.296875 0,-1.445313 -0.398437,-2.515625 -1.1875,-3.203125 -0.792969,-0.695312 -2.039063,-1.046875 -3.734375,-1.046875 H 9.875 Z m 13.984375,-4.640625 c 0,3.148437 -0.984375,5.554687 -2.953125,7.21875 -1.960938,1.667969 -4.75,2.5 -8.375,2.5 H 9.875 V 0 H 3.671875 v -29.21875 h 9.34375 c 3.539063,0 6.234375,0.765625 8.078125,2.296875 1.84375,1.523437 2.765625,3.792969 2.765625,6.8125 z m 0,0"
           id="path74" />
      </g>
    </g>
    <g
       style="fill:#000000;fill-opacity:1"
       id="g78">
      <g
         transform="translate(228.57325,176.70397)"
         id="g77">
        <path
           style="stroke:none"
           d="m 9.296875,0 h -6.09375 v -31.109375 h 6.09375 z m 0,0"
           id="path76" />
      </g>
    </g>
    <g
       style="fill:#000000;fill-opacity:1"
       id="g80">
      <g
         transform="translate(239.83683,176.70397)"
         id="g79">
        <path
           style="stroke:none"
           d="M 17.390625,0 16.21875,-3.03125 h -0.171875 c -1.023437,1.292969 -2.078125,2.1875 -3.171875,2.6875 -1.085938,0.5 -2.496094,0.75 -4.234375,0.75 -2.148437,0 -3.839844,-0.613281 -5.078125,-1.84375 -1.230469,-1.226562 -1.84375,-2.972656 -1.84375,-5.234375 0,-2.375 0.828125,-4.125 2.484375,-5.25 1.664063,-1.125 4.171875,-1.75 7.515625,-1.875 l 3.875,-0.109375 v -0.984375 c 0,-2.269531 -1.164062,-3.40625 -3.484375,-3.40625 -1.78125,0 -3.882813,0.542969 -6.296875,1.625 L 3.796875,-20.78125 c 2.570313,-1.351562 5.425781,-2.03125 8.5625,-2.03125 2.988281,0 5.28125,0.65625 6.875,1.96875 1.601563,1.304688 2.40625,3.289062 2.40625,5.953125 V 0 Z m -1.796875,-10.359375 -2.359375,0.07813 c -1.773437,0.0625 -3.09375,0.386719 -3.96875,0.96875 -0.867187,0.585938 -1.296875,1.476562 -1.296875,2.671875 0,1.71875 0.988281,2.578125 2.96875,2.578125 1.40625,0 2.53125,-0.40625 3.375,-1.21875 0.851562,-0.8125 1.28125,-1.890625 1.28125,-3.234375 z m 0,0"
           id="path78" />
      </g>
    </g>
    <g
       style="fill:#000000;fill-opacity:1"
       id="g82">
      <g
         transform="translate(263.33248,176.70397)"
         id="g81">
        <path
           style="stroke:none"
           d="m 12.453125,-4.375 c 1.539063,0 2.671875,-0.441406 3.390625,-1.328125 0.726562,-0.882813 1.125,-2.4375 1.1875,-4.65625 v -0.734375 c 0,-2.394531 -0.371094,-4.113281 -1.109375,-5.15625 -0.742187,-1.039062 -1.929687,-1.5625 -3.5625,-1.5625 -2.867187,0 -4.296875,2.257812 -4.296875,6.765625 0,2.230469 0.351562,3.902344 1.0625,5.015625 0.707031,1.105469 1.816406,1.65625 3.328125,1.65625 z M 10.28125,0.40625 c -2.648438,0 -4.714844,-1.015625 -6.203125,-3.046875 -1.492187,-2.039063 -2.234375,-4.875 -2.234375,-8.5 0,-3.644531 0.757812,-6.492187 2.28125,-8.546875 1.53125,-2.050781 3.617188,-3.078125 6.265625,-3.078125 1.414063,0 2.648437,0.265625 3.703125,0.796875 1.050781,0.53125 1.976562,1.359375 2.78125,2.484375 h 0.15625 l 0.546875,-2.859375 h 5.15625 V 9.828125 h -6.125 v -9.375 c 0,-0.8125 0.08594,-1.925781 0.265625,-3.34375 H 16.609375 C 15.953125,-1.816406 15.082031,-1 14,-0.4375 12.925781,0.125 11.6875,0.40625 10.28125,0.40625 Z m 0,0"
           id="path80" />
      </g>
    </g>
    <g
       style="fill:#000000;fill-opacity:1"
       id="g84">
      <g
         transform="translate(288.00739,176.70397)"
         id="g83">
        <path
           style="stroke:none"
           d="m 19.03125,0 -0.828125,-2.859375 h -0.3125 c -0.65625,1.042969 -1.585937,1.851563 -2.78125,2.421875 -1.199219,0.5625 -2.5625,0.84375 -4.09375,0.84375 -2.625,0 -4.605469,-0.703125 -5.9375,-2.109375 -1.335937,-1.40625 -2,-3.429687 -2,-6.078125 v -14.5625 h 6.09375 v 13.046875 c 0,1.617187 0.285156,2.828125 0.859375,3.640625 0.570312,0.804688 1.484375,1.203125 2.734375,1.203125 1.707031,0 2.941406,-0.566406 3.703125,-1.703125 0.757812,-1.144531 1.140625,-3.035156 1.140625,-5.671875 V -22.34375 h 6.09375 V 0 Z m 0,0"
           id="path82" />
      </g>
    </g>
    <g
       style="fill:#000000;fill-opacity:1"
       id="g86">
      <g
         transform="translate(313.68165,176.70397)"
         id="g85">
        <path
           style="stroke:none"
           d="m 12.453125,-18.4375 c -1.292969,0 -2.308594,0.414062 -3.046875,1.234375 -0.730469,0.824219 -1.148438,1.984375 -1.25,3.484375 h 8.546875 c -0.02344,-1.5 -0.414063,-2.660156 -1.171875,-3.484375 -0.761719,-0.820313 -1.789062,-1.234375 -3.078125,-1.234375 z M 13.3125,0.40625 c -3.59375,0 -6.40625,-0.992188 -8.4375,-2.984375 -2.023438,-1.988281 -3.03125,-4.800781 -3.03125,-8.4375 0,-3.738281 0.929688,-6.628906 2.796875,-8.671875 1.875,-2.050781 4.460937,-3.078125 7.765625,-3.078125 3.164062,0 5.625,0.902344 7.375,2.703125 1.757812,1.792969 2.640625,4.277344 2.640625,7.453125 V -9.65625 H 8.015625 c 0.0625,1.730469 0.570313,3.085938 1.53125,4.0625 0.96875,0.96875 2.316406,1.453125 4.046875,1.453125 1.34375,0 2.613281,-0.140625 3.8125,-0.421875 1.195312,-0.28125 2.453125,-0.722656 3.765625,-1.328125 v 4.71875 C 20.097656,-0.640625 18.957031,-0.242188 17.75,0.015625 16.539062,0.273438 15.0625,0.40625 13.3125,0.40625 Z m 0,0"
           id="path84" />
      </g>
    </g>
    <g
       style="fill:#000000;fill-opacity:1"
       id="g88">
      <g
         transform="translate(336.63765,176.70397)"
         id="g87">
        <path
           style="stroke:none"
           d="M 9.171875,-4.296875 C 8.484375,-1.609375 7.3125,1.582031 5.65625,5.28125 H 1.265625 C 2.128906,1.726562 2.800781,-1.613281 3.28125,-4.75 H 8.875 Z m 0,0"
           id="path86" />
      </g>
    </g>
    <g
       style="fill:#ffffff;fill-opacity:1"
       id="g90">
      <g
         transform="translate(12.884996,174.68924)"
         id="g89">
        <path
           style="stroke:none"
           d="M 3.671875,0 V -29.21875 H 9.875 V -5.125 H 21.734375 V 0 Z m 0,0"
           id="path88" />
      </g>
    </g>
    <g
       style="fill:#ffffff;fill-opacity:1"
       id="g92">
      <g
         transform="translate(34.781696,174.68924)"
         id="g91">
        <path
           style="stroke:none"
           d="M 17.390625,0 16.21875,-3.03125 h -0.171875 c -1.023437,1.292969 -2.078125,2.1875 -3.171875,2.6875 -1.085938,0.5 -2.496094,0.75 -4.234375,0.75 -2.148437,0 -3.839844,-0.613281 -5.078125,-1.84375 -1.230469,-1.226562 -1.84375,-2.972656 -1.84375,-5.234375 0,-2.375 0.828125,-4.125 2.484375,-5.25 1.664063,-1.125 4.171875,-1.75 7.515625,-1.875 l 3.875,-0.109375 v -0.984375 c 0,-2.269531 -1.164062,-3.40625 -3.484375,-3.40625 -1.78125,0 -3.882813,0.542969 -6.296875,1.625 L 3.796875,-20.78125 c 2.570313,-1.351562 5.425781,-2.03125 8.5625,-2.03125 2.988281,0 5.28125,0.65625 6.875,1.96875 1.601563,1.304688 2.40625,3.289062 2.40625,5.953125 V 0 Z m -1.796875,-10.359375 -2.359375,0.07813 c -1.773437,0.0625 -3.09375,0.386719 -3.96875,0.96875 -0.867187,0.585938 -1.296875,1.476562 -1.296875,2.671875 0,1.71875 0.988281,2.578125 2.96875,2.578125 1.40625,0 2.53125,-0.40625 3.375,-1.21875 0.851562,-0.8125 1.28125,-1.890625 1.28125,-3.234375 z m 0,0"
           id="path90" />
      </g>
    </g>
    <g
       style="fill:#ffffff;fill-opacity:1"
       id="g94">
      <g
         transform="translate(58.277365,174.68924)"
         id="g93">
        <path
           style="stroke:none"
           d=""
           id="path92" />
      </g>
    </g>
    <g
       style="fill:#ffffff;fill-opacity:1"
       id="g96">
      <g
         transform="translate(67.682119,174.68924)"
         id="g95">
        <path
           style="stroke:none"
           d="m 3.671875,-29.21875 h 9.09375 c 4.144531,0 7.15625,0.589844 9.03125,1.765625 1.875,1.179687 2.8125,3.054687 2.8125,5.625 0,1.75 -0.414063,3.1875 -1.234375,4.3125 -0.824219,1.117187 -1.914062,1.78125 -3.265625,2 v 0.203125 c 1.851563,0.417969 3.1875,1.195312 4,2.328125 0.820313,1.125 1.234375,2.632813 1.234375,4.515625 0,2.65625 -0.964844,4.734375 -2.890625,6.234375 C 20.523438,-0.742188 17.910156,0 14.609375,0 H 3.671875 Z M 9.875,-17.65625 h 3.59375 c 1.675781,0 2.890625,-0.253906 3.640625,-0.765625 0.757813,-0.519531 1.140625,-1.382813 1.140625,-2.59375 0,-1.113281 -0.414062,-1.910156 -1.234375,-2.390625 -0.8125,-0.488281 -2.109375,-0.734375 -3.890625,-0.734375 h -3.25 z m 0,4.921875 V -5.125 h 4.03125 c 1.707031,0 2.96875,-0.320312 3.78125,-0.96875 0.8125,-0.65625 1.21875,-1.65625 1.21875,-3 0,-2.425781 -1.730469,-3.640625 -5.1875,-3.640625 z m 0,0"
           id="path94" />
      </g>
    </g>
    <g
       style="fill:#ffffff;fill-opacity:1"
       id="g98">
      <g
         transform="translate(93.95599,174.68924)"
         id="g97">
        <path
           style="stroke:none"
           d="m 8.0625,-11.21875 c 0,2.21875 0.359375,3.898438 1.078125,5.03125 0.726563,1.125 1.910156,1.6875 3.546875,1.6875 1.625,0 2.789062,-0.5625 3.5,-1.6875 0.71875,-1.125 1.078125,-2.800781 1.078125,-5.03125 0,-2.207031 -0.359375,-3.863281 -1.078125,-4.96875 -0.71875,-1.101562 -1.898438,-1.65625 -3.53125,-1.65625 -1.625,0 -2.796875,0.554688 -3.515625,1.65625 -0.71875,1.09375 -1.078125,2.75 -1.078125,4.96875 z m 15.4375,0 c 0,3.648438 -0.960938,6.496094 -2.875,8.546875 C 18.707031,-0.617188 16.035156,0.40625 12.609375,0.40625 10.460938,0.40625 8.570312,-0.0625 6.9375,-1 5.300781,-1.945312 4.039062,-3.300781 3.15625,-5.0625 c -0.875,-1.757812 -1.3125,-3.8125 -1.3125,-6.15625 0,-3.644531 0.953125,-6.476562 2.859375,-8.5 1.90625,-2.03125 4.582031,-3.046875 8.03125,-3.046875 2.144531,0 4.035156,0.46875 5.671875,1.40625 1.644531,0.929687 2.90625,2.265625 3.78125,4.015625 0.875,1.742188 1.3125,3.78125 1.3125,6.125 z m 0,0"
           id="path96" />
      </g>
    </g>
    <g
       style="fill:#ffffff;fill-opacity:1"
       id="g100">
      <g
         transform="translate(118.07125,174.68924)"
         id="g99">
        <path
           style="stroke:none"
           d="m 23.828125,0 h -6.09375 v -13.046875 c 0,-1.613281 -0.289063,-2.820313 -0.859375,-3.625 -0.574219,-0.8125 -1.492188,-1.21875 -2.75,-1.21875 -1.699219,0 -2.929688,0.574219 -3.6875,1.71875 -0.761719,1.136719 -1.140625,3.023437 -1.140625,5.65625 V 0 h -6.09375 v -22.34375 h 4.65625 l 0.8125,2.859375 h 0.34375 c 0.675781,-1.082031 1.609375,-1.898437 2.796875,-2.453125 1.195312,-0.550781 2.554688,-0.828125 4.078125,-0.828125 2.601563,0 4.578125,0.703125 5.921875,2.109375 1.34375,1.40625 2.015625,3.433594 2.015625,6.078125 z m 0,0"
           id="path98" />
      </g>
    </g>
    <g
       style="fill:#ffffff;fill-opacity:1"
       id="g102">
      <g
         transform="translate(143.74551,174.68924)"
         id="g101">
        <path
           style="stroke:none"
           d="m 23.828125,0 h -6.09375 v -13.046875 c 0,-1.613281 -0.289063,-2.820313 -0.859375,-3.625 -0.574219,-0.8125 -1.492188,-1.21875 -2.75,-1.21875 -1.699219,0 -2.929688,0.574219 -3.6875,1.71875 -0.761719,1.136719 -1.140625,3.023437 -1.140625,5.65625 V 0 h -6.09375 v -22.34375 h 4.65625 l 0.8125,2.859375 h 0.34375 c 0.675781,-1.082031 1.609375,-1.898437 2.796875,-2.453125 1.195312,-0.550781 2.554688,-0.828125 4.078125,-0.828125 2.601563,0 4.578125,0.703125 5.921875,2.109375 1.34375,1.40625 2.015625,3.433594 2.015625,6.078125 z m 0,0"
           id="path100" />
      </g>
    </g>
    <g
       style="fill:#ffffff;fill-opacity:1"
       id="g104">
      <g
         transform="translate(169.41977,174.68924)"
         id="g103">
        <path
           style="stroke:none"
           d="m 12.453125,-18.4375 c -1.292969,0 -2.308594,0.414062 -3.046875,1.234375 -0.730469,0.824219 -1.148438,1.984375 -1.25,3.484375 h 8.546875 c -0.02344,-1.5 -0.414063,-2.660156 -1.171875,-3.484375 -0.761719,-0.820313 -1.789062,-1.234375 -3.078125,-1.234375 z M 13.3125,0.40625 c -3.59375,0 -6.40625,-0.992188 -8.4375,-2.984375 -2.023438,-1.988281 -3.03125,-4.800781 -3.03125,-8.4375 0,-3.738281 0.929688,-6.628906 2.796875,-8.671875 1.875,-2.050781 4.460937,-3.078125 7.765625,-3.078125 3.164062,0 5.625,0.902344 7.375,2.703125 1.757812,1.792969 2.640625,4.277344 2.640625,7.453125 V -9.65625 H 8.015625 c 0.0625,1.730469 0.570313,3.085938 1.53125,4.0625 0.96875,0.96875 2.316406,1.453125 4.046875,1.453125 1.34375,0 2.613281,-0.140625 3.8125,-0.421875 1.195312,-0.28125 2.453125,-0.722656 3.765625,-1.328125 v 4.71875 C 20.097656,-0.640625 18.957031,-0.242188 17.75,0.015625 16.539062,0.273438 15.0625,0.40625 13.3125,0.40625 Z m 0,0"
           id="path102" />
      </g>
    </g>
    <g
       style="fill:#ffffff;fill-opacity:1"
       id="g106">
      <g
         transform="translate(192.37578,174.68924)"
         id="g105">
        <path
           style="stroke:none"
           d=""
           id="path104" />
      </g>
    </g>
    <g
       style="fill:#ffffff;fill-opacity:1"
       id="g108">
      <g
         transform="translate(201.78053,174.68924)"
         id="g107">
        <path
           style="stroke:none"
           d="m 9.875,-15.46875 h 2.03125 c 1.90625,0 3.332031,-0.375 4.28125,-1.125 0.945312,-0.757812 1.421875,-1.859375 1.421875,-3.296875 0,-1.445313 -0.398437,-2.515625 -1.1875,-3.203125 -0.792969,-0.695312 -2.039063,-1.046875 -3.734375,-1.046875 H 9.875 Z m 13.984375,-4.640625 c 0,3.148437 -0.984375,5.554687 -2.953125,7.21875 -1.960938,1.667969 -4.75,2.5 -8.375,2.5 H 9.875 V 0 H 3.671875 v -29.21875 h 9.34375 c 3.539063,0 6.234375,0.765625 8.078125,2.296875 1.84375,1.523437 2.765625,3.792969 2.765625,6.8125 z m 0,0"
           id="path106" />
      </g>
    </g>
    <g
       style="fill:#ffffff;fill-opacity:1"
       id="g110">
      <g
         transform="translate(226.25556,174.68924)"
         id="g109">
        <path
           style="stroke:none"
           d="m 9.296875,0 h -6.09375 v -31.109375 h 6.09375 z m 0,0"
           id="path108" />
      </g>
    </g>
    <g
       style="fill:#ffffff;fill-opacity:1"
       id="g112">
      <g
         transform="translate(237.51914,174.68924)"
         id="g111">
        <path
           style="stroke:none"
           d="M 17.390625,0 16.21875,-3.03125 h -0.171875 c -1.023437,1.292969 -2.078125,2.1875 -3.171875,2.6875 -1.085938,0.5 -2.496094,0.75 -4.234375,0.75 -2.148437,0 -3.839844,-0.613281 -5.078125,-1.84375 -1.230469,-1.226562 -1.84375,-2.972656 -1.84375,-5.234375 0,-2.375 0.828125,-4.125 2.484375,-5.25 1.664063,-1.125 4.171875,-1.75 7.515625,-1.875 l 3.875,-0.109375 v -0.984375 c 0,-2.269531 -1.164062,-3.40625 -3.484375,-3.40625 -1.78125,0 -3.882813,0.542969 -6.296875,1.625 L 3.796875,-20.78125 c 2.570313,-1.351562 5.425781,-2.03125 8.5625,-2.03125 2.988281,0 5.28125,0.65625 6.875,1.96875 1.601563,1.304688 2.40625,3.289062 2.40625,5.953125 V 0 Z m -1.796875,-10.359375 -2.359375,0.07813 c -1.773437,0.0625 -3.09375,0.386719 -3.96875,0.96875 -0.867187,0.585938 -1.296875,1.476562 -1.296875,2.671875 0,1.71875 0.988281,2.578125 2.96875,2.578125 1.40625,0 2.53125,-0.40625 3.375,-1.21875 0.851562,-0.8125 1.28125,-1.890625 1.28125,-3.234375 z m 0,0"
           id="path110" />
      </g>
    </g>
    <g
       style="fill:#ffffff;fill-opacity:1"
       id="g114">
      <g
         transform="translate(261.01479,174.68924)"
         id="g113">
        <path
           style="stroke:none"
           d="m 12.453125,-4.375 c 1.539063,0 2.671875,-0.441406 3.390625,-1.328125 0.726562,-0.882813 1.125,-2.4375 1.1875,-4.65625 v -0.734375 c 0,-2.394531 -0.371094,-4.113281 -1.109375,-5.15625 -0.742187,-1.039062 -1.929687,-1.5625 -3.5625,-1.5625 -2.867187,0 -4.296875,2.257812 -4.296875,6.765625 0,2.230469 0.351562,3.902344 1.0625,5.015625 0.707031,1.105469 1.816406,1.65625 3.328125,1.65625 z M 10.28125,0.40625 c -2.648438,0 -4.714844,-1.015625 -6.203125,-3.046875 -1.492187,-2.039063 -2.234375,-4.875 -2.234375,-8.5 0,-3.644531 0.757812,-6.492187 2.28125,-8.546875 1.53125,-2.050781 3.617188,-3.078125 6.265625,-3.078125 1.414063,0 2.648437,0.265625 3.703125,0.796875 1.050781,0.53125 1.976562,1.359375 2.78125,2.484375 h 0.15625 l 0.546875,-2.859375 h 5.15625 V 9.828125 h -6.125 v -9.375 c 0,-0.8125 0.08594,-1.925781 0.265625,-3.34375 H 16.609375 C 15.953125,-1.816406 15.082031,-1 14,-0.4375 12.925781,0.125 11.6875,0.40625 10.28125,0.40625 Z m 0,0"
           id="path112" />
      </g>
    </g>
    <g
       style="fill:#ffffff;fill-opacity:1"
       id="g116">
      <g
         transform="translate(285.6897,174.68924)"
         id="g115">
        <path
           style="stroke:none"
           d="m 19.03125,0 -0.828125,-2.859375 h -0.3125 c -0.65625,1.042969 -1.585937,1.851563 -2.78125,2.421875 -1.199219,0.5625 -2.5625,0.84375 -4.09375,0.84375 -2.625,0 -4.605469,-0.703125 -5.9375,-2.109375 -1.335937,-1.40625 -2,-3.429687 -2,-6.078125 v -14.5625 h 6.09375 v 13.046875 c 0,1.617187 0.285156,2.828125 0.859375,3.640625 0.570312,0.804688 1.484375,1.203125 2.734375,1.203125 1.707031,0 2.941406,-0.566406 3.703125,-1.703125 0.757812,-1.144531 1.140625,-3.035156 1.140625,-5.671875 V -22.34375 h 6.09375 V 0 Z m 0,0"
           id="path114" />
      </g>
    </g>
    <g
       style="fill:#ffffff;fill-opacity:1"
       id="g118">
      <g
         transform="translate(311.36397,174.68924)"
         id="g117">
        <path
           style="stroke:none"
           d="m 12.453125,-18.4375 c -1.292969,0 -2.308594,0.414062 -3.046875,1.234375 -0.730469,0.824219 -1.148438,1.984375 -1.25,3.484375 h 8.546875 c -0.02344,-1.5 -0.414063,-2.660156 -1.171875,-3.484375 -0.761719,-0.820313 -1.789062,-1.234375 -3.078125,-1.234375 z M 13.3125,0.40625 c -3.59375,0 -6.40625,-0.992188 -8.4375,-2.984375 -2.023438,-1.988281 -3.03125,-4.800781 -3.03125,-8.4375 0,-3.738281 0.929688,-6.628906 2.796875,-8.671875 1.875,-2.050781 4.460937,-3.078125 7.765625,-3.078125 3.164062,0 5.625,0.902344 7.375,2.703125 1.757812,1.792969 2.640625,4.277344 2.640625,7.453125 V -9.65625 H 8.015625 c 0.0625,1.730469 0.570313,3.085938 1.53125,4.0625 0.96875,0.96875 2.316406,1.453125 4.046875,1.453125 1.34375,0 2.613281,-0.140625 3.8125,-0.421875 1.195312,-0.28125 2.453125,-0.722656 3.765625,-1.328125 v 4.71875 C 20.097656,-0.640625 18.957031,-0.242188 17.75,0.015625 16.539062,0.273438 15.0625,0.40625 13.3125,0.40625 Z m 0,0"
           id="path116" />
      </g>
    </g>
    <g
       style="fill:#ffffff;fill-opacity:1"
       id="g120">
      <g
         transform="translate(334.31997,174.68924)"
         id="g119">
        <path
           style="stroke:none"
           d="M 9.171875,-4.296875 C 8.484375,-1.609375 7.3125,1.582031 5.65625,5.28125 H 1.265625 C 2.128906,1.726562 2.800781,-1.613281 3.28125,-4.75 H 8.875 Z m 0,0"
           id="path118" />
      </g>
    </g>
    <g
       style="fill:#000000;fill-opacity:1"
       id="g122">
      <g
         transform="translate(347.2886,176.70397)"
         id="g121">
        <path
           style="stroke:none"
           d=""
           id="path120" />
      </g>
    </g>
    <g
       style="fill:#ffffff;fill-opacity:1"
       id="g124">
      <g
         transform="translate(344.97091,174.68924)"
         id="g123">
        <path
           style="stroke:none"
           d=""
           id="path122" />
      </g>
    </g>
    <g
       style="fill:#000000;fill-opacity:1"
       id="g126">
      <g
         transform="translate(15.202686,217.20397)"
         id="g125">
        <path
           style="stroke:none"
           d="M 17.390625,0 16.21875,-3.03125 h -0.171875 c -1.023437,1.292969 -2.078125,2.1875 -3.171875,2.6875 -1.085938,0.5 -2.496094,0.75 -4.234375,0.75 -2.148437,0 -3.839844,-0.613281 -5.078125,-1.84375 -1.230469,-1.226562 -1.84375,-2.972656 -1.84375,-5.234375 0,-2.375 0.828125,-4.125 2.484375,-5.25 1.664063,-1.125 4.171875,-1.75 7.515625,-1.875 l 3.875,-0.109375 v -0.984375 c 0,-2.269531 -1.164062,-3.40625 -3.484375,-3.40625 -1.78125,0 -3.882813,0.542969 -6.296875,1.625 L 3.796875,-20.78125 c 2.570313,-1.351562 5.425781,-2.03125 8.5625,-2.03125 2.988281,0 5.28125,0.65625 6.875,1.96875 1.601563,1.304688 2.40625,3.289062 2.40625,5.953125 V 0 Z m -1.796875,-10.359375 -2.359375,0.07813 c -1.773437,0.0625 -3.09375,0.386719 -3.96875,0.96875 -0.867187,0.585938 -1.296875,1.476562 -1.296875,2.671875 0,1.71875 0.988281,2.578125 2.96875,2.578125 1.40625,0 2.53125,-0.40625 3.375,-1.21875 0.851562,-0.8125 1.28125,-1.890625 1.28125,-3.234375 z m 0,0"
           id="path124" />
      </g>
    </g>
    <g
       style="fill:#000000;fill-opacity:1"
       id="g128">
      <g
         transform="translate(38.698354,217.20397)"
         id="g127">
        <path
           style="stroke:none"
           d="m 19.03125,0 -0.828125,-2.859375 h -0.3125 c -0.65625,1.042969 -1.585937,1.851563 -2.78125,2.421875 -1.199219,0.5625 -2.5625,0.84375 -4.09375,0.84375 -2.625,0 -4.605469,-0.703125 -5.9375,-2.109375 -1.335937,-1.40625 -2,-3.429687 -2,-6.078125 v -14.5625 h 6.09375 v 13.046875 c 0,1.617187 0.285156,2.828125 0.859375,3.640625 0.570312,0.804688 1.484375,1.203125 2.734375,1.203125 1.707031,0 2.941406,-0.566406 3.703125,-1.703125 0.757812,-1.144531 1.140625,-3.035156 1.140625,-5.671875 V -22.34375 h 6.09375 V 0 Z m 0,0"
           id="path126" />
      </g>
    </g>
    <g
       style="fill:#000000;fill-opacity:1"
       id="g130">
      <g
         transform="translate(64.372612,217.20397)"
         id="g129">
        <path
           style="stroke:none"
           d=""
           id="path128" />
      </g>
    </g>
    <g
       style="fill:#000000;fill-opacity:1"
       id="g132">
      <g
         transform="translate(73.777366,217.20397)"
         id="g131">
        <path
           style="stroke:none"
           d="m 3.671875,-29.21875 h 9.09375 c 4.144531,0 7.15625,0.589844 9.03125,1.765625 1.875,1.179687 2.8125,3.054687 2.8125,5.625 0,1.75 -0.414063,3.1875 -1.234375,4.3125 -0.824219,1.117187 -1.914062,1.78125 -3.265625,2 v 0.203125 c 1.851563,0.417969 3.1875,1.195312 4,2.328125 0.820313,1.125 1.234375,2.632813 1.234375,4.515625 0,2.65625 -0.964844,4.734375 -2.890625,6.234375 C 20.523438,-0.742188 17.910156,0 14.609375,0 H 3.671875 Z M 9.875,-17.65625 h 3.59375 c 1.675781,0 2.890625,-0.253906 3.640625,-0.765625 0.757813,-0.519531 1.140625,-1.382813 1.140625,-2.59375 0,-1.113281 -0.414062,-1.910156 -1.234375,-2.390625 -0.8125,-0.488281 -2.109375,-0.734375 -3.890625,-0.734375 h -3.25 z m 0,4.921875 V -5.125 h 4.03125 c 1.707031,0 2.96875,-0.320312 3.78125,-0.96875 0.8125,-0.65625 1.21875,-1.65625 1.21875,-3 0,-2.425781 -1.730469,-3.640625 -5.1875,-3.640625 z m 0,0"
           id="path130" />
      </g>
    </g>
    <g
       style="fill:#000000;fill-opacity:1"
       id="g134">
      <g
         transform="translate(100.05124,217.20397)"
         id="g133">
        <path
           style="stroke:none"
           d="m 8.0625,-11.21875 c 0,2.21875 0.359375,3.898438 1.078125,5.03125 0.726563,1.125 1.910156,1.6875 3.546875,1.6875 1.625,0 2.789062,-0.5625 3.5,-1.6875 0.71875,-1.125 1.078125,-2.800781 1.078125,-5.03125 0,-2.207031 -0.359375,-3.863281 -1.078125,-4.96875 -0.71875,-1.101562 -1.898438,-1.65625 -3.53125,-1.65625 -1.625,0 -2.796875,0.554688 -3.515625,1.65625 -0.71875,1.09375 -1.078125,2.75 -1.078125,4.96875 z m 15.4375,0 c 0,3.648438 -0.960938,6.496094 -2.875,8.546875 C 18.707031,-0.617188 16.035156,0.40625 12.609375,0.40625 10.460938,0.40625 8.570312,-0.0625 6.9375,-1 5.300781,-1.945312 4.039062,-3.300781 3.15625,-5.0625 c -0.875,-1.757812 -1.3125,-3.8125 -1.3125,-6.15625 0,-3.644531 0.953125,-6.476562 2.859375,-8.5 1.90625,-2.03125 4.582031,-3.046875 8.03125,-3.046875 2.144531,0 4.035156,0.46875 5.671875,1.40625 1.644531,0.929687 2.90625,2.265625 3.78125,4.015625 0.875,1.742188 1.3125,3.78125 1.3125,6.125 z m 0,0"
           id="path132" />
      </g>
    </g>
    <g
       style="fill:#000000;fill-opacity:1"
       id="g136">
      <g
         transform="translate(124.1665,217.20397)"
         id="g135">
        <path
           style="stroke:none"
           d="m 23.828125,0 h -6.09375 v -13.046875 c 0,-1.613281 -0.289063,-2.820313 -0.859375,-3.625 -0.574219,-0.8125 -1.492188,-1.21875 -2.75,-1.21875 -1.699219,0 -2.929688,0.574219 -3.6875,1.71875 -0.761719,1.136719 -1.140625,3.023437 -1.140625,5.65625 V 0 h -6.09375 v -22.34375 h 4.65625 l 0.8125,2.859375 h 0.34375 c 0.675781,-1.082031 1.609375,-1.898437 2.796875,-2.453125 1.195312,-0.550781 2.554688,-0.828125 4.078125,-0.828125 2.601563,0 4.578125,0.703125 5.921875,2.109375 1.34375,1.40625 2.015625,3.433594 2.015625,6.078125 z m 0,0"
           id="path134" />
      </g>
    </g>
    <g
       style="fill:#000000;fill-opacity:1"
       id="g138">
      <g
         transform="translate(149.84076,217.20397)"
         id="g137">
        <path
           style="stroke:none"
           d=""
           id="path136" />
      </g>
    </g>
    <g
       style="fill:#000000;fill-opacity:1"
       id="g140">
      <g
         transform="translate(159.24551,217.20397)"
         id="g139">
        <path
           style="stroke:none"
           d="m 9.875,-15.46875 h 2.03125 c 1.90625,0 3.332031,-0.375 4.28125,-1.125 0.945312,-0.757812 1.421875,-1.859375 1.421875,-3.296875 0,-1.445313 -0.398437,-2.515625 -1.1875,-3.203125 -0.792969,-0.695312 -2.039063,-1.046875 -3.734375,-1.046875 H 9.875 Z m 13.984375,-4.640625 c 0,3.148437 -0.984375,5.554687 -2.953125,7.21875 -1.960938,1.667969 -4.75,2.5 -8.375,2.5 H 9.875 V 0 H 3.671875 v -29.21875 h 9.34375 c 3.539063,0 6.234375,0.765625 8.078125,2.296875 1.84375,1.523437 2.765625,3.792969 2.765625,6.8125 z m 0,0"
           id="path138" />
      </g>
    </g>
    <g
       style="fill:#000000;fill-opacity:1"
       id="g142">
      <g
         transform="translate(183.72054,217.20397)"
         id="g141">
        <path
           style="stroke:none"
           d="m 15.671875,-22.765625 c 0.820313,0 1.507813,0.05859 2.0625,0.171875 l -0.46875,5.71875 c -0.492187,-0.132812 -1.089844,-0.203125 -1.796875,-0.203125 -1.949219,0 -3.464844,0.5 -4.546875,1.5 -1.085937,1 -1.625,2.402344 -1.625,4.203125 V 0 H 3.203125 V -22.34375 H 7.8125 l 0.90625,3.75 h 0.296875 c 0.6875,-1.25 1.617187,-2.253906 2.796875,-3.015625 1.1875,-0.769531 2.472656,-1.15625 3.859375,-1.15625 z m 0,0"
           id="path140" />
      </g>
    </g>
    <g
       style="fill:#000000;fill-opacity:1"
       id="g144">
      <g
         transform="translate(201.08016,217.20397)"
         id="g143">
        <path
           style="stroke:none"
           d="m 2.9375,-28.125 c 0,-1.988281 1.101562,-2.984375 3.3125,-2.984375 2.21875,0 3.328125,0.996094 3.328125,2.984375 0,0.949219 -0.277344,1.6875 -0.828125,2.21875 -0.554688,0.523438 -1.386719,0.78125 -2.5,0.78125 -2.210938,0 -3.3125,-1 -3.3125,-3 z M 9.296875,0 h -6.09375 v -22.34375 h 6.09375 z m 0,0"
           id="path142" />
      </g>
    </g>
    <g
       style="fill:#000000;fill-opacity:1"
       id="g146">
      <g
         transform="translate(212.34373,217.20397)"
         id="g145">
        <path
           style="stroke:none"
           d="M 7.78125,-11.40625 0.578125,-22.34375 H 7.5 l 4.328125,7.109375 4.390625,-7.109375 H 23.125 L 15.84375,-11.40625 23.46875,0 h -6.9375 L 11.828125,-7.65625 7.109375,0 h -6.90625 z m 0,0"
           id="path144" />
      </g>
    </g>
    <g
       style="fill:#ffffff;fill-opacity:1"
       id="g148">
      <g
         transform="translate(12.884996,215.18924)"
         id="g147">
        <path
           style="stroke:none"
           d="M 17.390625,0 16.21875,-3.03125 h -0.171875 c -1.023437,1.292969 -2.078125,2.1875 -3.171875,2.6875 -1.085938,0.5 -2.496094,0.75 -4.234375,0.75 -2.148437,0 -3.839844,-0.613281 -5.078125,-1.84375 -1.230469,-1.226562 -1.84375,-2.972656 -1.84375,-5.234375 0,-2.375 0.828125,-4.125 2.484375,-5.25 1.664063,-1.125 4.171875,-1.75 7.515625,-1.875 l 3.875,-0.109375 v -0.984375 c 0,-2.269531 -1.164062,-3.40625 -3.484375,-3.40625 -1.78125,0 -3.882813,0.542969 -6.296875,1.625 L 3.796875,-20.78125 c 2.570313,-1.351562 5.425781,-2.03125 8.5625,-2.03125 2.988281,0 5.28125,0.65625 6.875,1.96875 1.601563,1.304688 2.40625,3.289062 2.40625,5.953125 V 0 Z m -1.796875,-10.359375 -2.359375,0.07813 c -1.773437,0.0625 -3.09375,0.386719 -3.96875,0.96875 -0.867187,0.585938 -1.296875,1.476562 -1.296875,2.671875 0,1.71875 0.988281,2.578125 2.96875,2.578125 1.40625,0 2.53125,-0.40625 3.375,-1.21875 0.851562,-0.8125 1.28125,-1.890625 1.28125,-3.234375 z m 0,0"
           id="path146" />
      </g>
    </g>
    <g
       style="fill:#ffffff;fill-opacity:1"
       id="g150">
      <g
         transform="translate(36.380665,215.18924)"
         id="g149">
        <path
           style="stroke:none"
           d="m 19.03125,0 -0.828125,-2.859375 h -0.3125 c -0.65625,1.042969 -1.585937,1.851563 -2.78125,2.421875 -1.199219,0.5625 -2.5625,0.84375 -4.09375,0.84375 -2.625,0 -4.605469,-0.703125 -5.9375,-2.109375 -1.335937,-1.40625 -2,-3.429687 -2,-6.078125 v -14.5625 h 6.09375 v 13.046875 c 0,1.617187 0.285156,2.828125 0.859375,3.640625 0.570312,0.804688 1.484375,1.203125 2.734375,1.203125 1.707031,0 2.941406,-0.566406 3.703125,-1.703125 0.757812,-1.144531 1.140625,-3.035156 1.140625,-5.671875 V -22.34375 h 6.09375 V 0 Z m 0,0"
           id="path148" />
      </g>
    </g>
    <g
       style="fill:#ffffff;fill-opacity:1"
       id="g152">
      <g
         transform="translate(62.054922,215.18924)"
         id="g151">
        <path
           style="stroke:none"
           d=""
           id="path150" />
      </g>
    </g>
    <g
       style="fill:#ffffff;fill-opacity:1"
       id="g154">
      <g
         transform="translate(71.459677,215.18924)"
         id="g153">
        <path
           style="stroke:none"
           d="m 3.671875,-29.21875 h 9.09375 c 4.144531,0 7.15625,0.589844 9.03125,1.765625 1.875,1.179687 2.8125,3.054687 2.8125,5.625 0,1.75 -0.414063,3.1875 -1.234375,4.3125 -0.824219,1.117187 -1.914062,1.78125 -3.265625,2 v 0.203125 c 1.851563,0.417969 3.1875,1.195312 4,2.328125 0.820313,1.125 1.234375,2.632813 1.234375,4.515625 0,2.65625 -0.964844,4.734375 -2.890625,6.234375 C 20.523438,-0.742188 17.910156,0 14.609375,0 H 3.671875 Z M 9.875,-17.65625 h 3.59375 c 1.675781,0 2.890625,-0.253906 3.640625,-0.765625 0.757813,-0.519531 1.140625,-1.382813 1.140625,-2.59375 0,-1.113281 -0.414062,-1.910156 -1.234375,-2.390625 -0.8125,-0.488281 -2.109375,-0.734375 -3.890625,-0.734375 h -3.25 z m 0,4.921875 V -5.125 h 4.03125 c 1.707031,0 2.96875,-0.320312 3.78125,-0.96875 0.8125,-0.65625 1.21875,-1.65625 1.21875,-3 0,-2.425781 -1.730469,-3.640625 -5.1875,-3.640625 z m 0,0"
           id="path152" />
      </g>
    </g>
    <g
       style="fill:#ffffff;fill-opacity:1"
       id="g156">
      <g
         transform="translate(97.733547,215.18924)"
         id="g155">
        <path
           style="stroke:none"
           d="m 8.0625,-11.21875 c 0,2.21875 0.359375,3.898438 1.078125,5.03125 0.726563,1.125 1.910156,1.6875 3.546875,1.6875 1.625,0 2.789062,-0.5625 3.5,-1.6875 0.71875,-1.125 1.078125,-2.800781 1.078125,-5.03125 0,-2.207031 -0.359375,-3.863281 -1.078125,-4.96875 -0.71875,-1.101562 -1.898438,-1.65625 -3.53125,-1.65625 -1.625,0 -2.796875,0.554688 -3.515625,1.65625 -0.71875,1.09375 -1.078125,2.75 -1.078125,4.96875 z m 15.4375,0 c 0,3.648438 -0.960938,6.496094 -2.875,8.546875 C 18.707031,-0.617188 16.035156,0.40625 12.609375,0.40625 10.460938,0.40625 8.570312,-0.0625 6.9375,-1 5.300781,-1.945312 4.039062,-3.300781 3.15625,-5.0625 c -0.875,-1.757812 -1.3125,-3.8125 -1.3125,-6.15625 0,-3.644531 0.953125,-6.476562 2.859375,-8.5 1.90625,-2.03125 4.582031,-3.046875 8.03125,-3.046875 2.144531,0 4.035156,0.46875 5.671875,1.40625 1.644531,0.929687 2.90625,2.265625 3.78125,4.015625 0.875,1.742188 1.3125,3.78125 1.3125,6.125 z m 0,0"
           id="path154" />
      </g>
    </g>
    <g
       style="fill:#ffffff;fill-opacity:1"
       id="g158">
      <g
         transform="translate(121.84881,215.18924)"
         id="g157">
        <path
           style="stroke:none"
           d="m 23.828125,0 h -6.09375 v -13.046875 c 0,-1.613281 -0.289063,-2.820313 -0.859375,-3.625 -0.574219,-0.8125 -1.492188,-1.21875 -2.75,-1.21875 -1.699219,0 -2.929688,0.574219 -3.6875,1.71875 -0.761719,1.136719 -1.140625,3.023437 -1.140625,5.65625 V 0 h -6.09375 v -22.34375 h 4.65625 l 0.8125,2.859375 h 0.34375 c 0.675781,-1.082031 1.609375,-1.898437 2.796875,-2.453125 1.195312,-0.550781 2.554688,-0.828125 4.078125,-0.828125 2.601563,0 4.578125,0.703125 5.921875,2.109375 1.34375,1.40625 2.015625,3.433594 2.015625,6.078125 z m 0,0"
           id="path156" />
      </g>
    </g>
    <g
       style="fill:#ffffff;fill-opacity:1"
       id="g160">
      <g
         transform="translate(147.52307,215.18924)"
         id="g159">
        <path
           style="stroke:none"
           d=""
           id="path158" />
      </g>
    </g>
    <g
       style="fill:#ffffff;fill-opacity:1"
       id="g162">
      <g
         transform="translate(156.92782,215.18924)"
         id="g161">
        <path
           style="stroke:none"
           d="m 9.875,-15.46875 h 2.03125 c 1.90625,0 3.332031,-0.375 4.28125,-1.125 0.945312,-0.757812 1.421875,-1.859375 1.421875,-3.296875 0,-1.445313 -0.398437,-2.515625 -1.1875,-3.203125 -0.792969,-0.695312 -2.039063,-1.046875 -3.734375,-1.046875 H 9.875 Z m 13.984375,-4.640625 c 0,3.148437 -0.984375,5.554687 -2.953125,7.21875 -1.960938,1.667969 -4.75,2.5 -8.375,2.5 H 9.875 V 0 H 3.671875 v -29.21875 h 9.34375 c 3.539063,0 6.234375,0.765625 8.078125,2.296875 1.84375,1.523437 2.765625,3.792969 2.765625,6.8125 z m 0,0"
           id="path160" />
      </g>
    </g>
    <g
       style="fill:#ffffff;fill-opacity:1"
       id="g164">
      <g
         transform="translate(181.40285,215.18924)"
         id="g163">
        <path
           style="stroke:none"
           d="m 15.671875,-22.765625 c 0.820313,0 1.507813,0.05859 2.0625,0.171875 l -0.46875,5.71875 c -0.492187,-0.132812 -1.089844,-0.203125 -1.796875,-0.203125 -1.949219,0 -3.464844,0.5 -4.546875,1.5 -1.085937,1 -1.625,2.402344 -1.625,4.203125 V 0 H 3.203125 V -22.34375 H 7.8125 l 0.90625,3.75 h 0.296875 c 0.6875,-1.25 1.617187,-2.253906 2.796875,-3.015625 1.1875,-0.769531 2.472656,-1.15625 3.859375,-1.15625 z m 0,0"
           id="path162" />
      </g>
    </g>
    <g
       style="fill:#ffffff;fill-opacity:1"
       id="g166">
      <g
         transform="translate(198.76248,215.18924)"
         id="g165">
        <path
           style="stroke:none"
           d="m 2.9375,-28.125 c 0,-1.988281 1.101562,-2.984375 3.3125,-2.984375 2.21875,0 3.328125,0.996094 3.328125,2.984375 0,0.949219 -0.277344,1.6875 -0.828125,2.21875 -0.554688,0.523438 -1.386719,0.78125 -2.5,0.78125 -2.210938,0 -3.3125,-1 -3.3125,-3 z M 9.296875,0 h -6.09375 v -22.34375 h 6.09375 z m 0,0"
           id="path164" />
      </g>
    </g>
    <g
       style="fill:#ffffff;fill-opacity:1"
       id="g168">
      <g
         transform="translate(210.02604,215.18924)"
         id="g167">
        <path
           style="stroke:none"
           d="M 7.78125,-11.40625 0.578125,-22.34375 H 7.5 l 4.328125,7.109375 4.390625,-7.109375 H 23.125 L 15.84375,-11.40625 23.46875,0 h -6.9375 L 11.828125,-7.65625 7.109375,0 h -6.90625 z m 0,0"
           id="path166" />
      </g>
    </g>
  </g>
</svg>
