<?xml version="1.0" encoding="UTF-8" standalone="no"?>
<svg
   width="302"
   zoomAndPan="magnify"
   viewBox="0 0 226.5 264.58593"
   height="352.78125"
   preserveAspectRatio="xMidYMid"
   version="1.0"
   id="svg40"
   sodipodi:docname="3.svg"
   inkscape:version="1.3 (0e150ed, 2023-07-21)"
   xmlns:inkscape="http://www.inkscape.org/namespaces/inkscape"
   xmlns:sodipodi="http://sodipodi.sourceforge.net/DTD/sodipodi-0.dtd"
   xmlns="http://www.w3.org/2000/svg"
   xmlns:svg="http://www.w3.org/2000/svg">
  <sodipodi:namedview
     id="namedview40"
     pagecolor="#ffffff"
     bordercolor="#000000"
     borderopacity="0.25"
     inkscape:showpageshadow="2"
     inkscape:pageopacity="0.0"
     inkscape:pagecheckerboard="0"
     inkscape:deskcolor="#d1d1d1"
     inkscape:zoom="0.472"
     inkscape:cx="150.42373"
     inkscape:cy="175.84746"
     inkscape:window-width="1472"
     inkscape:window-height="449"
     inkscape:window-x="0"
     inkscape:window-y="25"
     inkscape:window-maximized="0"
     inkscape:current-layer="svg40" />
  <defs
     id="defs13">
    <g
       id="g1" />
    <clipPath
       id="221e1ccfb3">
      <path
         d="M 74.175781,55 H 300.67578 V 320 H 74.175781 Z m 0,0"
         clip-rule="nonzero"
         id="path1" />
    </clipPath>
    <clipPath
       id="335313516e">
      <path
         d="m 196.36719,70.738281 h 20.73828 v 20.738281 h -20.73828 z m 0,0"
         clip-rule="nonzero"
         id="path2" />
    </clipPath>
    <clipPath
       id="158d8baa66">
      <path
         d="m 206.73437,70.738281 c -5.72656,0 -10.36718,4.640625 -10.36718,10.371094 0,5.726563 4.64062,10.367187 10.36718,10.367187 5.73047,0 10.3711,-4.640624 10.3711,-10.367187 0,-5.730469 -4.64063,-10.371094 -10.3711,-10.371094 z m 0,0"
         clip-rule="nonzero"
         id="path3" />
    </clipPath>
    <clipPath
       id="2c01abc9c2">
      <path
         d="M 0.367188,0.738281 H 21.105469 V 21.476562 H 0.367188 Z m 0,0"
         clip-rule="nonzero"
         id="path4" />
    </clipPath>
    <clipPath
       id="9340f3fed5">
      <path
         d="m 10.734375,0.738281 c -5.726563,0 -10.367187,4.640625 -10.367187,10.371094 0,5.726563 4.640624,10.367187 10.367187,10.367187 5.730469,0 10.371094,-4.640624 10.371094,-10.367187 0,-5.730469 -4.640625,-10.371094 -10.371094,-10.371094 z m 0,0"
         clip-rule="nonzero"
         id="path5" />
    </clipPath>
    <clipPath
       id="dbeb1994f8">
      <rect
         x="0"
         width="22"
         y="0"
         height="22"
         id="rect5" />
    </clipPath>
    <clipPath
       id="e02139c9f7">
      <path
         d="m 196.36719,70.738281 h 20.73047 V 91.46875 h -20.73047 z m 0,0"
         clip-rule="nonzero"
         id="path6" />
    </clipPath>
    <clipPath
       id="15f86a1689">
      <path
         d="m 206.73047,70.738281 c -5.72266,0 -10.36328,4.640625 -10.36328,10.363281 0,5.726563 4.64062,10.367188 10.36328,10.367188 5.72656,0 10.36719,-4.640625 10.36719,-10.367188 0,-5.722656 -4.64063,-10.363281 -10.36719,-10.363281 z m 0,0"
         clip-rule="nonzero"
         id="path7" />
    </clipPath>
    <clipPath
       id="d60344b7a9">
      <path
         d="m 152.14453,244.82812 h 20.73828 v 20.73829 h -20.73828 z m 0,0"
         clip-rule="nonzero"
         id="path8" />
    </clipPath>
    <clipPath
       id="a6bb461690">
      <path
         d="m 162.51172,244.82812 c -5.72656,0 -10.36719,4.64063 -10.36719,10.3711 0,5.72656 4.64063,10.36719 10.36719,10.36719 5.72656,0 10.37109,-4.64063 10.37109,-10.36719 0,-5.73047 -4.64453,-10.3711 -10.37109,-10.3711 z m 0,0"
         clip-rule="nonzero"
         id="path9" />
    </clipPath>
    <clipPath
       id="997f8a722d">
      <path
         d="M 0.144531,0.828125 H 20.882812 V 21.566406 H 0.144531 Z m 0,0"
         clip-rule="nonzero"
         id="path10" />
    </clipPath>
    <clipPath
       id="a29306778e">
      <path
         d="m 10.511719,0.828125 c -5.726563,0 -10.367188,4.640625 -10.367188,10.371094 0,5.726562 4.640625,10.367187 10.367188,10.367187 5.726562,0 10.371093,-4.640625 10.371093,-10.367187 0,-5.730469 -4.644531,-10.371094 -10.371093,-10.371094 z m 0,0"
         clip-rule="nonzero"
         id="path11" />
    </clipPath>
    <clipPath
       id="bba788c2bb">
      <rect
         x="0"
         width="21"
         y="0"
         height="22"
         id="rect11" />
    </clipPath>
    <clipPath
       id="8f589c9354">
      <path
         d="M 152.14453,244.82812 H 172.875 v 20.73047 h -20.73047 z m 0,0"
         clip-rule="nonzero"
         id="path12" />
    </clipPath>
    <clipPath
       id="29be1fab80">
      <path
         d="m 162.50781,244.82812 c -5.72265,0 -10.36328,4.64063 -10.36328,10.36329 0,5.72656 4.64063,10.36718 10.36328,10.36718 5.72656,0 10.36719,-4.64062 10.36719,-10.36718 0,-5.72266 -4.64063,-10.36329 -10.36719,-10.36329 z m 0,0"
         clip-rule="nonzero"
         id="path13" />
    </clipPath>
  </defs>
  <path
     fill="#000000"
     d="M 224.04297,17.191406 V 209.45312 c 0,8.0625 -6.52734,14.58984 -14.58984,14.58984 h -18.88282 l 4.52735,7.25391 19.125,30.6875 -30.6836,-19.12891 -30.17968,-18.8125 H 17.191407 c -8.0625,0 -14.589844,-6.52734 -14.589844,-14.58984 V 17.191406 c 0,-8.0625 6.527344,-14.589843 14.589844,-14.589843 H 209.45313 c 8.0625,0 14.58984,6.527343 14.58984,14.589843 z m 0,0"
     fill-opacity="1"
     fill-rule="nonzero"
     id="path14" />
  <g
     clip-path="url(#221e1ccfb3)"
     id="g15"
     transform="translate(-74.175781,-55.191406)">
    <path
       fill="#000000"
       d="m 288.39844,319.77734 c -0.46485,0 -0.94922,-0.13281 -1.375,-0.39062 L 226.79297,281.83203 H 91.367188 c -9.480469,0 -17.191407,-7.70703 -17.191407,-17.1875 V 72.382812 c 0,-9.480468 7.710938,-17.191406 17.191407,-17.191406 H 283.62891 c 9.47656,0 17.1875,7.710938 17.1875,17.191406 V 264.64453 c 0,9.48047 -7.71094,17.1875 -17.1875,17.1875 h -14.19922 l 21.16797,33.96484 c 0.63671,1.02735 0.49609,2.35547 -0.36329,3.21094 -0.49609,0.50781 -1.15625,0.76953 -1.83593,0.76953 z M 91.367188,60.394531 c -6.605469,0 -11.988282,5.382813 -11.988282,11.988281 V 264.64453 c 0,6.60547 5.382813,11.98828 11.988282,11.98828 H 227.53516 c 0.48046,0 0.96093,0.12891 1.375,0.39063 l 51.36328,32.01172 -17.72266,-28.42188 c -0.49609,-0.80859 -0.51953,-1.80859 -0.0664,-2.64062 0.45704,-0.82032 1.32813,-1.33985 2.27735,-1.33985 h 18.8789 c 6.60547,0 11.98829,-5.38281 11.98829,-11.98828 V 72.382812 c 0,-6.605468 -5.38282,-11.988281 -11.98829,-11.988281 z m 0,0"
       fill-opacity="1"
       fill-rule="nonzero"
       id="path15" />
  </g>
  <g
     fill="#ffffff"
     fill-opacity="1"
     id="g18"
     transform="translate(-74.175781,-55.191406)">
    <g
       transform="translate(121.04298,226.61782)"
       id="g17">
      <g
         id="g16">
        <path
           d="m 5.601562,-118.24219 0.714844,-0.71875 h 30.394532 c 2.542968,0 5.007812,0.53906 7.390624,1.60938 2.386719,1.07422 4.492188,2.52343 6.320313,4.35156 1.828125,1.82812 3.277344,3.93359 4.347656,6.31641 1.074219,2.38671 1.609375,4.84765 1.609375,7.390621 V -74.5 c 0,1.351562 -0.175781,2.742188 -0.535156,4.171875 -0.355469,1.433594 -0.773438,2.703125 -1.25,3.816406 -0.398438,0.714844 -0.933594,1.527344 -1.609375,2.441407 -0.675781,0.914062 -1.015625,1.847656 -1.015625,2.804687 0,0.394531 0.08203,0.773437 0.238281,1.128906 0.160157,0.359375 0.320313,0.695313 0.476563,1.015625 0.957031,1.667969 1.808594,3.394532 2.5625,5.183594 0.757812,1.789062 1.132812,3.675781 1.132812,5.664062 v 28.605469 c 0,2.621094 -0.535156,5.125 -1.609375,7.511719 -1.070312,2.382812 -2.5,4.46875 -4.289062,6.257812 -1.789063,1.785157 -3.875,3.214844 -6.257813,4.289063 C 41.839844,-0.535156 39.335938,0 36.710938,0 H 6.078125 L 5.601562,-0.476562 Z m 15.019532,105.011721 c 0.07813,0.07813 0.238281,0.117188 0.476562,0.117188 0.07813,0 0.160156,0.04297 0.238282,0.121093 h 14.660156 c 1.910156,0 3.617187,-0.753906 5.128906,-2.265624 1.507812,-1.507813 2.261719,-3.21875 2.261719,-5.125 v -26.9375 c 0,-0.320313 -0.09766,-0.933594 -0.296875,-1.847657 -0.199219,-0.914062 -0.496094,-1.53125 -0.894532,-1.847656 l -2.503906,-2.503906 c -0.316406,-0.398438 -0.933594,-0.695313 -1.847656,-0.894531 -0.914062,-0.199219 -1.527344,-0.296876 -1.847656,-0.296876 H 21.335938 c -0.554688,0 -1.113282,0.238282 -1.667969,0.714844 -0.554688,0.476563 -0.835938,0.992188 -0.835938,1.550782 v 37.1875 c 0,0.558593 0.199219,0.992187 0.597657,1.3125 0.398437,0.316406 0.792968,0.554687 1.191406,0.714843 z m 0,-54.949219 c 0.07813,0.07813 0.238281,0.117188 0.476562,0.117188 0.07813,0 0.160156,0.03906 0.238282,0.121094 h 14.660156 c 1.910156,0 3.617187,-0.757813 5.128906,-2.265625 1.507812,-1.511719 2.261719,-3.21875 2.261719,-5.125 v -23.246094 c 0,-1.667965 -0.675781,-3.277345 -2.023438,-4.824215 -1.351562,-1.55079 -2.902343,-2.32422 -4.652343,-2.32422 H 21.097656 c -0.636718,0 -1.171875,0.21875 -1.609375,0.65234 -0.4375,0.4375 -0.65625,0.97656 -0.65625,1.60938 v 33.257809 c 0,0.554687 0.199219,0.992187 0.597657,1.3125 0.398437,0.316406 0.792968,0.554687 1.191406,0.714843 z m 0,0"
           id="path16" />
      </g>
    </g>
  </g>
  <g
     fill="#ffffff"
     fill-opacity="1"
     id="g21"
     transform="translate(-74.175781,-55.191406)">
    <g
       transform="translate(194.34673,226.61782)"
       id="g20">
      <g
         id="g19">
        <path
           d="m 5.601562,-118.96094 h 31.109376 c 1.828124,0 3.695312,0.33985 5.605468,1.01563 1.90625,0.67578 3.652344,1.48828 5.242188,2.4414 2.304687,2.22657 4.351562,4.62891 6.140625,7.21485 1.789062,2.58203 2.679687,5.58203 2.679687,8.996091 v 32.304688 c 0,3.417969 -0.890625,6.417969 -2.679687,9 -1.789063,2.582031 -3.835938,4.984375 -6.140625,7.210937 -1.589844,0.875 -3.335938,1.6875 -5.242188,2.441406 -1.910156,0.757813 -3.777344,1.132813 -5.605468,1.132813 H 20.859375 c -0.476563,0 -0.992187,0.320313 -1.550781,0.953125 -0.554688,0.636719 -0.832032,1.191406 -0.832032,1.671875 V -0.476562 L 17.878906,0 H 5.601562 Z m 14.902344,58.410159 c 0,0.07813 0.117188,0.117187 0.355469,0.117187 0.07813,0 0.160156,0.03906 0.238281,0.121094 h 14.898438 c 0.796875,0 1.609375,-0.199219 2.445312,-0.597656 0.835938,-0.398438 1.609375,-0.914063 2.324219,-1.550782 0.714844,-0.632812 1.292969,-1.347656 1.726563,-2.144531 0.4375,-0.792969 0.65625,-1.589843 0.65625,-2.382812 v -32.304688 c 0,-0.792971 -0.21875,-1.585941 -0.65625,-2.382811 -0.433594,-0.79297 -1.011719,-1.50781 -1.726563,-2.14453 -0.714844,-0.63672 -1.488281,-1.15235 -2.324219,-1.55078 -0.835937,-0.39844 -1.648437,-0.59375 -2.445312,-0.59375 H 21.097656 c -0.636718,0 -1.210937,0.3164 -1.726562,0.95312 -0.519532,0.63281 -0.777344,1.23047 -0.777344,1.78516 v 40.171872 c 0,0.476563 0.21875,0.972657 0.65625,1.488282 0.4375,0.515625 0.855469,0.855468 1.253906,1.015625 z m 0,0"
           id="path18" />
      </g>
    </g>
  </g>
  <g
     clip-path="url(#335313516e)"
     id="g27"
     transform="translate(-74.175781,-55.191406)">
    <g
       clip-path="url(#158d8baa66)"
       id="g26">
      <g
         transform="translate(196,70)"
         id="g25">
        <g
           clip-path="url(#dbeb1994f8)"
           id="g24">
          <g
             clip-path="url(#2c01abc9c2)"
             id="g23">
            <g
               clip-path="url(#9340f3fed5)"
               id="g22">
              <path
                 fill="#000000"
                 d="M 0.367188,0.738281 H 21.105469 V 21.476562 H 0.367188 Z m 0,0"
                 fill-opacity="1"
                 fill-rule="nonzero"
                 id="path21" />
            </g>
          </g>
        </g>
      </g>
    </g>
  </g>
  <g
     clip-path="url(#e02139c9f7)"
     id="g29"
     transform="translate(-74.175781,-55.191406)">
    <g
       clip-path="url(#15f86a1689)"
       id="g28">
      <path
         stroke-linecap="butt"
         transform="matrix(0.75,0,0,0.75,196.36637,70.738003)"
         fill="none"
         stroke-linejoin="miter"
         d="m 13.818799,3.70527e-4 c -7.630208,0 -13.81770794,6.187500473 -13.81770794,13.817708473 0,7.635417 6.18749994,13.822917 13.81770794,13.822917 7.635417,0 13.822917,-6.1875 13.822917,-13.822917 0,-7.630208 -6.1875,-13.817708473 -13.822917,-13.817708473 z m 0,0"
         stroke="#ffffff"
         stroke-width="20"
         stroke-opacity="1"
         stroke-miterlimit="4"
         id="path27" />
    </g>
  </g>
  <g
     clip-path="url(#d60344b7a9)"
     id="g35"
     transform="translate(-74.175781,-55.191406)">
    <g
       clip-path="url(#a6bb461690)"
       id="g34">
      <g
         transform="translate(152,244)"
         id="g33">
        <g
           clip-path="url(#bba788c2bb)"
           id="g32">
          <g
             clip-path="url(#997f8a722d)"
             id="g31">
            <g
               clip-path="url(#a29306778e)"
               id="g30">
              <path
                 fill="#000000"
                 d="M 0.144531,0.828125 H 20.882812 V 21.566406 H 0.144531 Z m 0,0"
                 fill-opacity="1"
                 fill-rule="nonzero"
                 id="path29" />
            </g>
          </g>
        </g>
      </g>
    </g>
  </g>
  <g
     clip-path="url(#8f589c9354)"
     id="g37"
     transform="translate(-74.175781,-55.191406)">
    <g
       clip-path="url(#29be1fab80)"
       id="g36">
      <path
         stroke-linecap="butt"
         transform="matrix(0.75,0,0,0.75,152.14296,244.82776)"
         fill="none"
         stroke-linejoin="miter"
         d="m 13.819804,4.91036e-4 c -7.630208,0 -13.81770808,6.187499964 -13.81770808,13.817707964 0,7.635417 6.18750008,13.822917 13.81770808,13.822917 7.635417,0 13.822917,-6.1875 13.822917,-13.822917 0,-7.630208 -6.1875,-13.817707964 -13.822917,-13.817707964 z m 0,0"
         stroke="#ffffff"
         stroke-width="20"
         stroke-opacity="1"
         stroke-miterlimit="4"
         id="path35" />
    </g>
  </g>
  <g
     fill="#ffffff"
     fill-opacity="1"
     id="g40"
     transform="translate(-74.175781,-55.191406)">
    <g
       transform="translate(182.18041,226.62256)"
       id="g39">
      <g
         id="g38">
        <path
           d="m 4.886719,-12.875 h 10.25 c 0.476562,0 1.054687,-0.257812 1.730469,-0.773438 0.675781,-0.515624 1.011718,-1.050781 1.011718,-1.609374 v -88.207028 c 0,-0.47657 -0.277344,-0.99219 -0.832031,-1.54688 -0.558594,-0.55859 -1.074219,-0.83594 -1.550781,-0.83594 H 5.363281 l -0.476562,-0.59765 v -12.03516 l 0.476562,-0.48047 h 38.5 l 0.238281,0.24219 c 0,0.0781 0.04297,0.15625 0.121094,0.23828 0,0.0781 0.03906,0.15625 0.117188,0.23828 v 11.79688 l -0.476563,0.59765 h -10.25 c -0.554687,0 -1.074219,0.25782 -1.550781,0.77344 -0.476562,0.51953 -0.714844,1.05469 -0.714844,1.60938 v 88.207028 c 0,0.476562 0.28125,0.992187 0.835938,1.550781 0.554687,0.554687 1.113281,0.832031 1.667968,0.832031 h 10.011719 l 0.476563,0.597656 V -0.476562 L 43.863281,0 H 4.886719 Z m 0,0"
           id="path37" />
      </g>
    </g>
  </g>
</svg>
