<?xml version="1.0" encoding="UTF-8" standalone="no"?>
<svg
   width="364.11978"
   zoomAndPan="magnify"
   viewBox="0 0 273.08984 77.800779"
   height="103.73438"
   preserveAspectRatio="xMidYMid"
   version="1.0"
   id="svg72"
   sodipodi:docname="1.svg"
   inkscape:version="1.3 (0e150ed, 2023-07-21)"
   xmlns:inkscape="http://www.inkscape.org/namespaces/inkscape"
   xmlns:sodipodi="http://sodipodi.sourceforge.net/DTD/sodipodi-0.dtd"
   xmlns="http://www.w3.org/2000/svg"
   xmlns:svg="http://www.w3.org/2000/svg">
  <sodipodi:namedview
     id="namedview72"
     pagecolor="#ffffff"
     bordercolor="#000000"
     borderopacity="0.25"
     inkscape:showpageshadow="2"
     inkscape:pageopacity="0.0"
     inkscape:pagecheckerboard="0"
     inkscape:deskcolor="#d1d1d1"
     inkscape:zoom="0.472"
     inkscape:cx="182.20339"
     inkscape:cy="42.372881"
     inkscape:window-width="1472"
     inkscape:window-height="449"
     inkscape:window-x="0"
     inkscape:window-y="25"
     inkscape:window-maximized="0"
     inkscape:current-layer="svg72" />
  <defs
     id="defs10">
    <g
       id="g1" />
    <clipPath
       id="96b0f9bd77">
      <path
         d="M 50.914062,155.72266 H 324.25391 v 63.55468 H 50.914062 Z m 0,0"
         clip-rule="nonzero"
         id="path1" />
    </clipPath>
    <clipPath
       id="ce4cdaab10">
      <path
         d="M 56.164062,155.72266 H 318.83594 c 2.89843,0 5.25,2.35156 5.25,5.25 v 53.05468 c 0,2.89844 -2.35157,5.25 -5.25,5.25 H 56.164062 c -2.898437,0 -5.25,-2.35156 -5.25,-5.25 v -53.05468 c 0,-2.89844 2.351563,-5.25 5.25,-5.25 z m 0,0"
         clip-rule="nonzero"
         id="path2" />
    </clipPath>
    <clipPath
       id="3aa449b485">
      <path
         d="M 0.914062,0.722656 H 274.23828 V 64.277344 H 0.914062 Z m 0,0"
         clip-rule="nonzero"
         id="path3" />
    </clipPath>
    <clipPath
       id="12c6e313c9">
      <path
         d="M 6.164062,0.722656 H 268.83594 c 2.89843,0 5.25,2.351563 5.25,5.25 v 53.054688 c 0,2.898437 -2.35157,5.25 -5.25,5.25 H 6.164062 c -2.898437,0 -5.25,-2.351563 -5.25,-5.25 V 5.972656 c 0,-2.898437 2.351563,-5.25 5.25,-5.25 z m 0,0"
         clip-rule="nonzero"
         id="path4" />
    </clipPath>
    <clipPath
       id="692d3e0751">
      <rect
         x="0"
         width="275"
         y="0"
         height="65"
         id="rect4" />
    </clipPath>
    <clipPath
       id="7773b66dd7">
      <path
         d="M 50.921875,155.72266 H 323.91406 v 63.75 H 50.921875 Z m 0,0"
         clip-rule="nonzero"
         id="path5" />
    </clipPath>
    <clipPath
       id="db7a9f5b10">
      <path
         d="M 56.171875,155.72266 H 318.82031 c 2.90235,0 5.25,2.35156 5.25,5.25 v 53.05078 c 0,2.89843 -2.34765,5.25 -5.25,5.25 H 56.171875 c -2.898437,0 -5.25,-2.35157 -5.25,-5.25 v -53.05078 c 0,-2.89844 2.351563,-5.25 5.25,-5.25 z m 0,0"
         clip-rule="nonzero"
         id="path6" />
    </clipPath>
    <clipPath
       id="c2724c2cff">
      <path
         d="M 154.31641,213 H 220.625 v 20.52734 h -66.30859 z m 0,0"
         clip-rule="nonzero"
         id="path7" />
    </clipPath>
    <clipPath
       id="efe2fd46cb">
      <path
         d="m 194.63281,231.60156 24.86328,-14.4375 c 0.86719,-0.5039 1.28907,-1.52734 1.02735,-2.5 -0.26172,-0.96875 -1.14063,-1.64453 -2.14453,-1.64453 h -61.75782 c -1.0039,0 -1.88281,0.67578 -2.14453,1.64453 -0.26172,0.97266 0.16016,1.9961 1.02735,2.5 l 24.86328,14.4375 c 4.41015,2.5625 9.85547,2.5625 14.26562,0 z m 0,0"
         clip-rule="nonzero"
         id="path8" />
    </clipPath>
    <clipPath
       id="cacd3e4a8e">
      <path
         d="M 0.316406,0 H 66.625 V 20.527344 H 0.316406 Z m 0,0"
         clip-rule="nonzero"
         id="path9" />
    </clipPath>
    <clipPath
       id="1c3bbaa3a7">
      <path
         d="m 40.632812,18.601562 24.863282,-14.4375 c 0.867187,-0.503906 1.289062,-1.527343 1.027344,-2.5 C 66.261719,0.695312 65.382812,0.0195312 64.378906,0.0195312 H 2.621094 c -1.003906,0 -1.882813,0.6757808 -2.144532,1.6445308 -0.261718,0.972657 0.160157,1.996094 1.027344,2.5 l 24.863282,14.4375 c 4.410156,2.5625 9.855468,2.5625 14.265624,0 z m 0,0"
         clip-rule="nonzero"
         id="path10" />
    </clipPath>
    <clipPath
       id="8a811b8cf3">
      <rect
         x="0"
         width="67"
         y="0"
         height="21"
         id="rect10" />
    </clipPath>
  </defs>
  <g
     clip-path="url(#96b0f9bd77)"
     id="g16"
     transform="translate(-50.914062,-155.72266)">
    <g
       clip-path="url(#ce4cdaab10)"
       id="g15">
      <g
         transform="translate(50,155)"
         id="g14">
        <g
           clip-path="url(#692d3e0751)"
           id="g13">
          <g
             clip-path="url(#3aa449b485)"
             id="g12">
            <g
               clip-path="url(#12c6e313c9)"
               id="g11">
              <path
                 fill="#000000"
                 d="M 0.914062,0.722656 H 274.00391 V 64.277344 H 0.914062 Z m 0,0"
                 fill-opacity="1"
                 fill-rule="nonzero"
                 id="path11" />
            </g>
          </g>
        </g>
      </g>
    </g>
  </g>
  <g
     clip-path="url(#7773b66dd7)"
     id="g18"
     transform="translate(-50.914062,-155.72266)">
    <g
       clip-path="url(#db7a9f5b10)"
       id="g17">
      <path
         stroke-linecap="butt"
         transform="matrix(0.75,0,0,0.75,50.921183,155.72208)"
         fill="none"
         stroke-linejoin="miter"
         d="M 7.000923,7.69168e-4 H 357.19886 c 3.86979,0 7,3.135416832 7,7.000000832 v 70.734379 c 0,3.864584 -3.13021,7.000001 -7,7.000001 H 7.000923 c -3.864583,0 -7.000000008,-3.135417 -7.000000008,-7.000001 V 7.00077 C 9.22992e-4,3.136186 3.13634,7.69168e-4 7.000923,7.69168e-4 Z m 0,0"
         stroke="#000000"
         stroke-width="8"
         stroke-opacity="1"
         stroke-miterlimit="4"
         id="path16" />
    </g>
  </g>
  <g
     fill="#ffffff"
     fill-opacity="1"
     id="g21"
     transform="translate(-50.914062,-155.72266)">
    <g
       transform="translate(70.004882,201.74999)"
       id="g20">
      <g
         id="g19">
        <path
           d="m 1.410156,-29.820312 0.121094,-0.121094 h 3.027344 l 0.152344,0.121094 v 25.980468 c 0,0.121094 0.078124,0.25 0.238281,0.390625 0.160156,0.140625 0.300781,0.210938 0.421875,0.210938 h 8.699218 l 0.121094,0.148437 v 2.96875 L 14.070312,0 H 1.53125 L 1.410156,-0.121094 Z m 0,0"
           id="path18" />
      </g>
    </g>
  </g>
  <g
     fill="#ffffff"
     fill-opacity="1"
     id="g24"
     transform="translate(-50.914062,-155.72266)">
    <g
       transform="translate(84.644873,201.74999)"
       id="g23">
      <g
         id="g22">
        <path
           d="m 1.050781,-0.421875 4.019531,-29.519531 h 4.558594 c 0.082032,0 0.132813,0.06641 0.152344,0.195312 0.019531,0.132813 0.027344,0.207032 0.027344,0.226563 l 3.960937,29.097656 v 0.183594 c 0,0.039062 0,0.089843 0,0.1484372 C 13.769531,-0.03125 13.730469,0 13.648438,0 h -3.089844 l -0.02734,-0.03125 c -0.01953,0 -0.03125,-0.0078125 -0.03125,-0.0273438 0,-0.0195312 -0.01172,-0.0664062 -0.03125,-0.1367182 -0.01953,-0.070313 -0.02734,-0.125 -0.02734,-0.164063 0,-0.0625 -0.01953,-0.234375 -0.0625,-0.527344 -0.03906,-0.289062 -0.08203,-0.601562 -0.132812,-0.941406 -0.05078,-0.34375 -0.09766,-0.65625 -0.136719,-0.945313 -0.03907,-0.292968 -0.0586,-0.476562 -0.0586,-0.554687 C 10.011719,-3.53125 9.941406,-3.726562 9.839844,-3.914062 9.738281,-4.105469 9.570312,-4.199219 9.328125,-4.199219 H 5.429688 c -0.21875,0 -0.375,0.097657 -0.464844,0.300781 C 4.875,-3.699219 4.820312,-3.511719 4.800781,-3.328125 4.78125,-3.210938 4.75,-3.011719 4.710938,-2.730469 4.671875,-2.449219 4.625,-2.15625 4.574219,-1.84375 c -0.050781,0.308594 -0.089844,0.605469 -0.121094,0.882812 -0.027344,0.28125 -0.054687,0.480469 -0.074219,0.601563 0,0.019531 -0.015625,0.085937 -0.042968,0.195313 C 4.304688,-0.0546875 4.261719,0 4.199219,0 H 1.109375 C 1.070312,0 1.050781,-0.0195312 1.050781,-0.0585938 Z m 4.4375,-7.949219 c 0,0.160156 0.035157,0.332032 0.105469,0.511719 C 5.664062,-7.679688 5.800781,-7.589844 6,-7.589844 h 2.761719 c 0.199219,0 0.34375,-0.089844 0.433593,-0.269531 0.089844,-0.179687 0.132813,-0.351563 0.132813,-0.511719 v -0.148437 l -1.167969,-8.640625 c -0.039062,-0.21875 -0.121094,-0.425782 -0.238281,-0.613282 -0.121094,-0.191406 -0.300781,-0.285156 -0.542969,-0.285156 -0.238281,0 -0.410156,0.09766 -0.507812,0.296875 -0.101563,0.203125 -0.171875,0.402344 -0.210938,0.601563 l -1.171875,8.640625 z m 0,0"
           id="path21" />
      </g>
    </g>
  </g>
  <g
     fill="#ffffff"
     fill-opacity="1"
     id="g27"
     transform="translate(-50.914062,-155.72266)">
    <g
       transform="translate(99.464856,201.74999)"
       id="g26">
      <g
         id="g25">
        <path
           d="m 1.410156,-29.761719 0.179688,-0.179687 h 7.648437 c 0.640625,0 1.261719,0.136718 1.863281,0.40625 0.597657,0.269531 1.128907,0.636718 1.589844,1.09375 0.457032,0.460937 0.824219,0.992187 1.09375,1.589844 0.269532,0.601562 0.40625,1.222656 0.40625,1.863281 V -18.75 c 0,0.339844 -0.04687,0.691406 -0.136718,1.050781 -0.08984,0.359375 -0.195313,0.679688 -0.316407,0.960938 -0.09766,0.179687 -0.234375,0.382812 -0.402343,0.613281 -0.171876,0.230469 -0.257813,0.464844 -0.257813,0.703125 0,0.101563 0.02344,0.195313 0.0625,0.285156 0.03906,0.08984 0.07813,0.175781 0.121094,0.257813 0.238281,0.417968 0.453125,0.855468 0.644531,1.304687 0.1875,0.449219 0.285156,0.925781 0.285156,1.425781 v 7.199219 c 0,0.660157 -0.136718,1.289063 -0.40625,1.890625 -0.269531,0.597656 -0.628906,1.125 -1.082031,1.574219 -0.449219,0.449219 -0.972656,0.808594 -1.574219,1.078125 C 10.53125,-0.136719 9.898438,0 9.238281,0 H 1.53125 L 1.410156,-0.121094 Z m 3.78125,26.433594 c 0.019532,0.019531 0.058594,0.027344 0.117188,0.027344 0.019531,0 0.042968,0.011719 0.0625,0.03125 h 3.6875 c 0.480468,0 0.910156,-0.191407 1.292968,-0.570313 0.378907,-0.378906 0.570313,-0.808594 0.570313,-1.289062 v -6.78125 c 0,-0.07813 -0.02734,-0.234375 -0.07813,-0.464844 -0.04687,-0.230469 -0.125,-0.386719 -0.222656,-0.464844 L 9.988281,-13.46875 c -0.078125,-0.101562 -0.234375,-0.175781 -0.464843,-0.226562 -0.226563,-0.05078 -0.382813,-0.07422 -0.464844,-0.07422 h -3.6875 c -0.140625,0 -0.28125,0.05859 -0.421875,0.179687 -0.140625,0.121094 -0.210938,0.25 -0.210938,0.390625 v 9.359375 c 0,0.140625 0.050781,0.25 0.152344,0.328125 0.097656,0.082031 0.199219,0.140625 0.300781,0.183594 z m 0,-13.832031 c 0.019532,0.01953 0.058594,0.03125 0.117188,0.03125 0.019531,0 0.042968,0.0078 0.0625,0.02734 h 3.6875 c 0.480468,0 0.910156,-0.1875 1.292968,-0.570313 0.378907,-0.378906 0.570313,-0.808594 0.570313,-1.289063 v -5.847656 c 0,-0.421875 -0.171875,-0.828125 -0.511719,-1.214844 -0.339844,-0.390624 -0.730468,-0.585937 -1.171875,-0.585937 H 5.308594 c -0.160156,0 -0.292969,0.05469 -0.402344,0.164063 -0.109375,0.109374 -0.167969,0.246093 -0.167969,0.40625 v 8.367187 c 0,0.140625 0.050781,0.25 0.152344,0.332031 0.097656,0.07813 0.199219,0.140625 0.300781,0.179688 z m 0,0"
           id="path24" />
      </g>
    </g>
  </g>
  <g
     fill="#ffffff"
     fill-opacity="1"
     id="g30"
     transform="translate(-50.914062,-155.72266)">
    <g
       transform="translate(115.03484,201.74999)"
       id="g29">
      <g
         id="g28">
        <path
           d="m 7.710938,-29.941406 c 0.757812,0 1.484374,0.125 2.175781,0.375 0.6875,0.25 1.3125,0.601562 1.875,1.050781 0.558593,0.449219 1.035156,0.984375 1.421875,1.605469 0.390625,0.621094 0.667968,1.300781 0.828125,2.039062 0.01953,0.08203 0.04297,0.257813 0.07422,0.527344 0.02734,0.269531 0.04297,0.445312 0.04297,0.523438 v 17.761718 c 0,0.378906 -0.05078,0.757813 -0.148437,1.136719 -0.101563,0.382813 -0.21875,0.742187 -0.359375,1.082031 -0.519532,1.199219 -1.3125,2.140625 -2.371094,2.820313 C 10.191406,-0.339844 9.011719,0 7.710938,0 6.890625,0 6.101562,-0.15625 5.339844,-0.464844 4.578125,-0.773438 3.90625,-1.203125 3.316406,-1.753906 2.726562,-2.304688 2.25,-2.949219 1.890625,-3.691406 1.53125,-4.429688 1.351562,-5.21875 1.351562,-6.058594 v -17.820312 c 0,-0.839844 0.179688,-1.632813 0.539063,-2.371094 0.359375,-0.738281 0.835937,-1.378906 1.425781,-1.921875 0.589844,-0.539063 1.261719,-0.96875 2.023438,-1.289063 0.761718,-0.320312 1.550781,-0.480468 2.371094,-0.480468 z m 0,3.269531 c -0.382813,0 -0.757813,0.08203 -1.125,0.242187 -0.371094,0.160157 -0.699219,0.378907 -0.992188,0.660157 -0.289062,0.28125 -0.523438,0.597656 -0.703125,0.960937 -0.179687,0.359375 -0.269531,0.730469 -0.269531,1.109375 v 17.460938 c 0,0.398437 0.089844,0.777343 0.269531,1.136719 0.179687,0.363281 0.410156,0.675781 0.6875,0.945312 0.28125,0.269531 0.605469,0.484375 0.976563,0.644531 0.371093,0.160157 0.753906,0.242188 1.15625,0.242188 0.378906,0 0.757812,-0.082031 1.140624,-0.242188 0.378907,-0.160156 0.71875,-0.375 1.019532,-0.644531 0.300781,-0.269531 0.539062,-0.582031 0.71875,-0.945312 0.179687,-0.359376 0.269531,-0.738282 0.269531,-1.136719 v -17.402344 c 0,-0.398437 -0.08984,-0.78125 -0.269531,-1.140625 -0.179688,-0.359375 -0.417969,-0.679688 -0.71875,-0.957031 -0.300782,-0.28125 -0.640625,-0.507813 -1.019532,-0.675781 -0.382812,-0.171876 -0.761718,-0.257813 -1.140624,-0.257813 z m 0,0"
           id="path27" />
      </g>
    </g>
  </g>
  <g
     fill="#ffffff"
     fill-opacity="1"
     id="g33"
     transform="translate(-50.914062,-155.72266)">
    <g
       transform="translate(130.57483,201.74999)"
       id="g32">
      <g
         id="g31">
        <path
           d="m 1.410156,-29.941406 h 3.238282 l 4.863281,14.820312 c 0.136719,0.320313 0.347656,0.480469 0.628906,0.480469 0.160156,0 0.335937,-0.05469 0.523437,-0.164063 0.191407,-0.109374 0.285157,-0.273437 0.285157,-0.496093 v -14.640625 h 3.121093 l 0.121094,0.121094 V -0.121094 L 14.070312,0 H 10.949219 L 6.089844,-14.820312 c -0.039063,-0.101563 -0.136719,-0.203126 -0.285156,-0.316407 -0.148438,-0.109375 -0.285157,-0.164062 -0.40625,-0.164062 -0.160157,0 -0.324219,0.0625 -0.492188,0.179687 C 4.734375,-15 4.648438,-14.839844 4.648438,-14.640625 V -0.121094 L 4.5,0 H 1.410156 Z m 0,0"
           id="path30" />
      </g>
    </g>
  </g>
  <g
     fill="#ffffff"
     fill-opacity="1"
     id="g36"
     transform="translate(-50.914062,-155.72266)">
    <g
       transform="translate(146.26481,201.74999)"
       id="g35">
      <g
         id="g34">
        <path
           d="m 1.410156,-29.941406 h 3.238282 l 4.863281,14.820312 c 0.136719,0.320313 0.347656,0.480469 0.628906,0.480469 0.160156,0 0.335937,-0.05469 0.523437,-0.164063 0.191407,-0.109374 0.285157,-0.273437 0.285157,-0.496093 v -14.640625 h 3.121093 l 0.121094,0.121094 V -0.121094 L 14.070312,0 H 10.949219 L 6.089844,-14.820312 c -0.039063,-0.101563 -0.136719,-0.203126 -0.285156,-0.316407 -0.148438,-0.109375 -0.285157,-0.164062 -0.40625,-0.164062 -0.160157,0 -0.324219,0.0625 -0.492188,0.179687 C 4.734375,-15 4.648438,-14.839844 4.648438,-14.640625 V -0.121094 L 4.5,0 H 1.410156 Z m 0,0"
           id="path33" />
      </g>
    </g>
  </g>
  <g
     fill="#ffffff"
     fill-opacity="1"
     id="g39"
     transform="translate(-50.914062,-155.72266)">
    <g
       transform="translate(161.9548,201.74999)"
       id="g38">
      <g
         id="g37">
        <path
           d="m 14.070312,-29.941406 c 0,0.01953 0.0078,0.03125 0.03125,0.03125 l 0.02734,0.03125 c 0,0.01953 0.0078,0.02734 0.01563,0.02734 0.01172,0 0.01563,0.01172 0.01563,0.03125 0,0.01953 0.01172,0.03906 0.03125,0.05859 v 2.972657 l -0.121094,0.148437 H 5.25 c -0.140625,0 -0.269531,0.07422 -0.390625,0.226563 -0.121094,0.148437 -0.179687,0.292968 -0.179687,0.433593 v 8.699219 c 0,0.140625 0.058593,0.285156 0.179687,0.4375 0.121094,0.148438 0.25,0.222656 0.390625,0.222656 h 4.980469 l 0.121093,0.152344 v 3 l -0.121093,0.117188 H 5.371094 c -0.160156,0 -0.316406,0.08594 -0.464844,0.257812 -0.152344,0.167969 -0.226562,0.332031 -0.226562,0.492188 v 8.703124 c 0,0.160157 0.082031,0.308594 0.242187,0.449219 0.15625,0.140625 0.308594,0.210938 0.449219,0.210938 h 8.699218 l 0.121094,0.148437 v 2.96875 L 14.070312,0 H 1.410156 v -29.941406 z m 0,0"
           id="path36" />
      </g>
    </g>
  </g>
  <g
     fill="#ffffff"
     fill-opacity="1"
     id="g42"
     transform="translate(-50.914062,-155.72266)">
    <g
       transform="translate(177.13478,201.74999)"
       id="g41">
      <g
         id="g40">
        <path
           d="m 1.410156,-29.941406 h 7.828125 c 0.460938,0 0.933594,0.08594 1.410157,0.257812 0.480468,0.167969 0.921874,0.375 1.320312,0.613282 0.582031,0.558593 1.097656,1.164062 1.546875,1.816406 0.449219,0.648437 0.675781,1.402344 0.675781,2.265625 v 8.128906 c 0,0.859375 -0.226562,1.613281 -0.675781,2.265625 -0.449219,0.648438 -0.964844,1.253906 -1.546875,1.8125 -0.398438,0.222656 -0.839844,0.425781 -1.320312,0.617188 -0.476563,0.1875 -0.949219,0.285156 -1.410157,0.285156 H 5.25 c -0.121094,0 -0.25,0.07813 -0.390625,0.238281 -0.140625,0.160156 -0.210937,0.300781 -0.210937,0.421875 V -0.121094 L 4.5,0 H 1.410156 Z m 3.75,14.703125 c 0,0.01953 0.03125,0.02734 0.089844,0.02734 0.019531,0 0.039062,0.01172 0.058594,0.03125 h 3.75 c 0.203125,0 0.40625,-0.05078 0.617187,-0.148437 0.210938,-0.101563 0.402344,-0.230469 0.585938,-0.390625 0.179687,-0.160156 0.324219,-0.339844 0.433593,-0.542969 0.109376,-0.199219 0.164063,-0.398437 0.164063,-0.597656 v -8.128906 c 0,-0.203125 -0.05469,-0.402344 -0.164063,-0.601563 -0.109374,-0.199218 -0.253906,-0.378906 -0.433593,-0.539062 -0.183594,-0.160156 -0.375,-0.292969 -0.585938,-0.390625 -0.210937,-0.101563 -0.414062,-0.152344 -0.617187,-0.152344 h -3.75 c -0.160156,0 -0.304688,0.08203 -0.433594,0.242187 -0.128906,0.160157 -0.195312,0.308594 -0.195312,0.449219 v 10.109375 c 0,0.121094 0.054687,0.246094 0.164062,0.375 0.109375,0.132813 0.214844,0.214844 0.316406,0.257813 z m 0,0"
           id="path39" />
      </g>
    </g>
  </g>
  <g
     fill="#ffffff"
     fill-opacity="1"
     id="g45"
     transform="translate(-50.914062,-155.72266)">
    <g
       transform="translate(192.13477,201.74999)"
       id="g44">
      <g
         id="g43">
        <path
           d="m 1.410156,-29.820312 0.121094,-0.121094 h 3.027344 l 0.152344,0.121094 v 25.980468 c 0,0.121094 0.078124,0.25 0.238281,0.390625 0.160156,0.140625 0.300781,0.210938 0.421875,0.210938 h 8.699218 l 0.121094,0.148437 v 2.96875 L 14.070312,0 H 1.53125 L 1.410156,-0.121094 Z m 0,0"
           id="path42" />
      </g>
    </g>
  </g>
  <g
     fill="#ffffff"
     fill-opacity="1"
     id="g48"
     transform="translate(-50.914062,-155.72266)">
    <g
       transform="translate(206.77476,201.74999)"
       id="g47">
      <g
         id="g46">
        <path
           d="m 1.050781,-0.421875 4.019531,-29.519531 h 4.558594 c 0.082032,0 0.132813,0.06641 0.152344,0.195312 0.019531,0.132813 0.027344,0.207032 0.027344,0.226563 l 3.960937,29.097656 v 0.183594 c 0,0.039062 0,0.089843 0,0.1484372 C 13.769531,-0.03125 13.730469,0 13.648438,0 h -3.089844 l -0.02734,-0.03125 c -0.01953,0 -0.03125,-0.0078125 -0.03125,-0.0273438 0,-0.0195312 -0.01172,-0.0664062 -0.03125,-0.1367182 -0.01953,-0.070313 -0.02734,-0.125 -0.02734,-0.164063 0,-0.0625 -0.01953,-0.234375 -0.0625,-0.527344 -0.03906,-0.289062 -0.08203,-0.601562 -0.132812,-0.941406 -0.05078,-0.34375 -0.09766,-0.65625 -0.136719,-0.945313 -0.03907,-0.292968 -0.0586,-0.476562 -0.0586,-0.554687 C 10.011719,-3.53125 9.941406,-3.726562 9.839844,-3.914062 9.738281,-4.105469 9.570312,-4.199219 9.328125,-4.199219 H 5.429688 c -0.21875,0 -0.375,0.097657 -0.464844,0.300781 C 4.875,-3.699219 4.820312,-3.511719 4.800781,-3.328125 4.78125,-3.210938 4.75,-3.011719 4.710938,-2.730469 4.671875,-2.449219 4.625,-2.15625 4.574219,-1.84375 c -0.050781,0.308594 -0.089844,0.605469 -0.121094,0.882812 -0.027344,0.28125 -0.054687,0.480469 -0.074219,0.601563 0,0.019531 -0.015625,0.085937 -0.042968,0.195313 C 4.304688,-0.0546875 4.261719,0 4.199219,0 H 1.109375 C 1.070312,0 1.050781,-0.0195312 1.050781,-0.0585938 Z m 4.4375,-7.949219 c 0,0.160156 0.035157,0.332032 0.105469,0.511719 C 5.664062,-7.679688 5.800781,-7.589844 6,-7.589844 h 2.761719 c 0.199219,0 0.34375,-0.089844 0.433593,-0.269531 0.089844,-0.179687 0.132813,-0.351563 0.132813,-0.511719 v -0.148437 l -1.167969,-8.640625 c -0.039062,-0.21875 -0.121094,-0.425782 -0.238281,-0.613282 -0.121094,-0.191406 -0.300781,-0.285156 -0.542969,-0.285156 -0.238281,0 -0.410156,0.09766 -0.507812,0.296875 -0.101563,0.203125 -0.171875,0.402344 -0.210938,0.601563 l -1.171875,8.640625 z m 0,0"
           id="path45" />
      </g>
    </g>
  </g>
  <g
     fill="#ffffff"
     fill-opacity="1"
     id="g51"
     transform="translate(-50.914062,-155.72266)">
    <g
       transform="translate(221.59474,201.74999)"
       id="g50">
      <g
         id="g49">
        <path
           d="m 7.710938,-29.941406 c 0.757812,0 1.480468,0.125 2.160156,0.375 0.679687,0.25 1.292968,0.597656 1.84375,1.035156 0.550781,0.441406 1.019531,0.964844 1.410156,1.578125 0.390625,0.609375 0.664062,1.28125 0.824219,2.023437 0.03906,0.121094 0.08203,0.328126 0.121093,0.628907 0.03906,0.300781 0.05859,0.480469 0.05859,0.539062 v 17.703125 c 0,0.296875 -0.03906,0.632813 -0.117187,1.003906 -0.08203,0.371094 -0.183594,0.695313 -0.300781,0.976563 -0.101563,0.257813 -0.191407,0.472656 -0.269532,0.644531 -0.08203,0.167969 -0.160156,0.382813 -0.242187,0.644532 v 0.027343 c 0,0.042969 0.01953,0.113281 0.0625,0.210938 0.03906,0.101562 0.07813,0.171875 0.117187,0.210937 l 0.75,0.871094 v 1.347656 l -0.02734,0.0312502 c 0,0.0195313 -0.01172,0.03125 -0.03125,0.03125 -0.01953,0.0195313 -0.03906,0.0273438 -0.05859,0.0273438 -0.02344,0 -0.04297,0.0117188 -0.0625,0.03125 h -1.050781 l -1.046876,-1.050781 h -0.179687 c -0.101563,0 -0.183594,0 -0.242187,0 -0.05859,0 -0.128907,0.019531 -0.210938,0.0625 -0.597656,0.277343 -1.171875,0.511719 -1.722656,0.703125 C 8.945312,-0.09375 8.328125,0 7.648438,0 6.828125,0 6.039062,-0.160156 5.28125,-0.480469 4.519531,-0.800781 3.851562,-1.230469 3.269531,-1.769531 2.691406,-2.308594 2.226562,-2.949219 1.875,-3.691406 1.523438,-4.429688 1.351562,-5.21875 1.351562,-6.058594 v -17.820312 c 0,-0.839844 0.179688,-1.632813 0.539063,-2.371094 0.359375,-0.738281 0.835937,-1.386719 1.425781,-1.933594 0.589844,-0.550781 1.261719,-0.980468 2.023438,-1.292968 0.761718,-0.308594 1.550781,-0.464844 2.371094,-0.464844 z m -0.03125,3.269531 c -0.378907,0 -0.75,0.08203 -1.109376,0.242187 -0.359374,0.160157 -0.683593,0.378907 -0.976562,0.660157 -0.289062,0.28125 -0.523438,0.597656 -0.703125,0.960937 -0.179687,0.359375 -0.269531,0.730469 -0.269531,1.109375 v 17.519531 c 0,0.398438 0.089844,0.78125 0.269531,1.140626 0.179687,0.359374 0.414063,0.667968 0.703125,0.929687 0.292969,0.257813 0.621094,0.464844 0.992188,0.613281 0.367187,0.152344 0.753906,0.226563 1.152343,0.226563 0.28125,0 0.582031,-0.050781 0.902344,-0.152344 0.320313,-0.097656 0.480469,-0.316406 0.480469,-0.65625 0,-0.121094 -0.00781,-0.207031 -0.015625,-0.257813 -0.011719,-0.050781 -0.066407,-0.125 -0.164063,-0.222656 L 7.769531,-5.910156 v -2.488282 c 0,-0.042968 0.019531,-0.0625 0.058594,-0.0625 0.042969,0 0.070313,0 0.09375,0 H 8.011719 L 9.75,-6.660156 c 0.039062,0.039062 0.101562,0.070312 0.179688,0.089844 0.082031,0.019531 0.140624,0.03125 0.179687,0.03125 0.140625,0 0.289063,-0.054688 0.449219,-0.164063 0.160156,-0.113281 0.242187,-0.246094 0.242187,-0.40625 v -16.769531 c 0,-0.382813 -0.09766,-0.742188 -0.285156,-1.082032 -0.191406,-0.339843 -0.4375,-0.632812 -0.734375,-0.882812 -0.300781,-0.25 -0.636719,-0.453125 -1.007812,-0.601562 -0.367188,-0.148438 -0.734376,-0.226563 -1.09375,-0.226563 z m 0,0"
           id="path48" />
      </g>
    </g>
  </g>
  <g
     fill="#ffffff"
     fill-opacity="1"
     id="g54"
     transform="translate(-50.914062,-155.72266)">
    <g
       transform="translate(237.13473,201.74999)"
       id="g53">
      <g
         id="g52">
        <path
           d="m 4.5,-29.941406 0.148438,0.121094 v 23.582031 c 0,0.019531 0.015624,0.109375 0.046874,0.269531 0.03125,0.160156 0.066407,0.277344 0.105469,0.359375 0.179688,0.699219 0.542969,1.253906 1.09375,1.664063 0.550781,0.410156 1.175781,0.617187 1.875,0.617187 0.378907,0 0.753907,-0.082031 1.125,-0.242187 0.371094,-0.160157 0.707031,-0.375 1.003907,-0.644532 0.300781,-0.269531 0.542968,-0.585937 0.722656,-0.945312 0.179687,-0.359375 0.269531,-0.738282 0.269531,-1.140625 v -23.640625 h 3.121094 l 0.117187,0.121094 v 23.699218 c 0,0.859375 -0.175781,1.660156 -0.523437,2.402344 -0.351563,0.738281 -0.820313,1.382812 -1.410157,1.933594 -0.589843,0.550781 -1.269531,0.984375 -2.039062,1.304687 C 9.386719,-0.160156 8.578125,0 7.738281,0 6.921875,0 6.128906,-0.160156 5.371094,-0.480469 4.609375,-0.800781 3.933594,-1.230469 3.34375,-1.769531 2.753906,-2.308594 2.285156,-2.949219 1.933594,-3.691406 1.585938,-4.429688 1.410156,-5.21875 1.410156,-6.058594 v -23.882812 z m 0,0"
           id="path51" />
      </g>
    </g>
  </g>
  <g
     fill="#ffffff"
     fill-opacity="1"
     id="g57"
     transform="translate(-50.914062,-155.72266)">
    <g
       transform="translate(252.67472,201.74999)"
       id="g56">
      <g
         id="g55">
        <path
           d="m 14.070312,-29.941406 c 0,0.01953 0.0078,0.03125 0.03125,0.03125 l 0.02734,0.03125 c 0,0.01953 0.0078,0.02734 0.01563,0.02734 0.01172,0 0.01563,0.01172 0.01563,0.03125 0,0.01953 0.01172,0.03906 0.03125,0.05859 v 2.972657 l -0.121094,0.148437 H 5.25 c -0.140625,0 -0.269531,0.07422 -0.390625,0.226563 -0.121094,0.148437 -0.179687,0.292968 -0.179687,0.433593 v 8.699219 c 0,0.140625 0.058593,0.285156 0.179687,0.4375 0.121094,0.148438 0.25,0.222656 0.390625,0.222656 h 4.980469 l 0.121093,0.152344 v 3 l -0.121093,0.117188 H 5.371094 c -0.160156,0 -0.316406,0.08594 -0.464844,0.257812 -0.152344,0.167969 -0.226562,0.332031 -0.226562,0.492188 v 8.703124 c 0,0.160157 0.082031,0.308594 0.242187,0.449219 0.15625,0.140625 0.308594,0.210938 0.449219,0.210938 h 8.699218 l 0.121094,0.148437 v 2.96875 L 14.070312,0 H 1.410156 v -29.941406 z m 0,0"
           id="path54" />
      </g>
    </g>
  </g>
  <g
     fill="#ffffff"
     fill-opacity="1"
     id="g60"
     transform="translate(-50.914062,-155.72266)">
    <g
       transform="translate(267.8547,201.74999)"
       id="g59">
      <g
         id="g58">
        <path
           d="m 3.449219,-3.421875 c 0.460937,0 0.871093,0.0625 1.230469,0.183594 0.359374,0.117187 0.589843,0.277343 0.691406,0.476562 l 0.027344,0.152344 v 2.339844 c 0,0.078125 -0.058594,0.1796872 -0.179688,0.300781 C 5.058594,0.191406 4.824219,0.316406 4.515625,0.40625 4.203125,0.496094 3.851562,0.539062 3.449219,0.539062 2.929688,0.539062 2.476562,0.464844 2.085938,0.316406 1.695312,0.164062 1.5,-0.03125 1.5,-0.269531 v -2.339844 c 0,-0.21875 0.195312,-0.410156 0.585938,-0.570313 0.390624,-0.160156 0.84375,-0.242187 1.363281,-0.242187 z m 0,0"
           id="path57" />
      </g>
    </g>
  </g>
  <g
     fill="#ffffff"
     fill-opacity="1"
     id="g63"
     transform="translate(-50.914062,-155.72266)">
    <g
       transform="translate(274.75469,201.74999)"
       id="g62">
      <g
         id="g61">
        <path
           d="m 1.410156,-29.941406 h 12.601563 l 0.179687,0.179687 v 2.910157 l -0.179687,0.210937 H 5.25 c -0.140625,0 -0.269531,0.07422 -0.390625,0.226563 -0.121094,0.148437 -0.179687,0.292968 -0.179687,0.433593 v 8.699219 c 0,0.140625 0.058593,0.285156 0.179687,0.4375 0.121094,0.148438 0.25,0.222656 0.390625,0.222656 h 4.980469 l 0.121093,0.152344 v 3 l -0.121093,0.117188 H 5.308594 c -0.117188,0 -0.257813,0.09766 -0.417969,0.285156 -0.160156,0.191406 -0.242187,0.347656 -0.242187,0.464844 V -0.121094 L 4.5,0 H 1.410156 Z m 0,0"
           id="path60" />
      </g>
    </g>
  </g>
  <g
     fill="#ffffff"
     fill-opacity="1"
     id="g66"
     transform="translate(-50.914062,-155.72266)">
    <g
       transform="translate(289.45467,201.74999)"
       id="g65">
      <g
         id="g64">
        <path
           d="m 1.410156,-29.941406 h 7.828125 c 0.601563,0 1.191407,0.132812 1.773438,0.390625 0.578125,0.261719 1.101562,0.609375 1.574219,1.050781 0.46875,0.441406 0.84375,0.945312 1.125,1.515625 0.277343,0.570313 0.417968,1.164063 0.417968,1.785156 v 8.578125 c 0,0.699219 -0.203125,1.386719 -0.613281,2.054688 -0.410156,0.671875 -0.886719,1.226562 -1.425781,1.667968 -0.140625,0.09766 -0.285156,0.1875 -0.433594,0.269532 -0.152344,0.07813 -0.292969,0.160156 -0.421875,0.238281 -0.128906,0.08203 -0.234375,0.179687 -0.3125,0.300781 -0.08203,0.121094 -0.121094,0.28125 -0.121094,0.480469 v 0.179687 l 3.269531,11.070313 v 0.089844 c 0,0.039062 -0.01172,0.09375 -0.03125,0.164062 C 14.019531,-0.0351562 13.988281,0 13.949219,0 H 10.769531 L 7.351562,-11.308594 C 7.308594,-11.429688 7.238281,-11.550781 7.140625,-11.671875 7.039062,-11.789062 6.921875,-11.851562 6.78125,-11.851562 H 5.25 c -0.121094,0 -0.25,0.07812 -0.390625,0.226562 -0.140625,0.148438 -0.210937,0.285156 -0.210937,0.40625 V -0.121094 L 4.5,0 H 1.410156 Z m 3.75,14.703125 c 0,0.01953 0.03125,0.02734 0.089844,0.02734 0.019531,0 0.039062,0.01172 0.058594,0.03125 h 3.75 c 0.203125,0 0.40625,-0.05078 0.617187,-0.148437 0.210938,-0.101563 0.402344,-0.230469 0.585938,-0.390625 0.179687,-0.160156 0.324219,-0.339844 0.433593,-0.542969 0.109376,-0.199219 0.164063,-0.398437 0.164063,-0.597656 v -8.128906 c 0,-0.203125 -0.05469,-0.402344 -0.164063,-0.601563 -0.109374,-0.199218 -0.253906,-0.378906 -0.433593,-0.539062 -0.183594,-0.160156 -0.375,-0.292969 -0.585938,-0.390625 -0.210937,-0.101563 -0.414062,-0.152344 -0.617187,-0.152344 h -3.75 c -0.160156,0 -0.304688,0.08203 -0.433594,0.242187 -0.128906,0.160157 -0.195312,0.308594 -0.195312,0.449219 v 10.109375 c 0,0.121094 0.054687,0.246094 0.164062,0.375 0.109375,0.132813 0.214844,0.214844 0.316406,0.257813 z m 0,0"
           id="path63" />
      </g>
    </g>
  </g>
  <g
     clip-path="url(#c2724c2cff)"
     id="g72"
     transform="translate(-50.914062,-155.72266)">
    <g
       clip-path="url(#efe2fd46cb)"
       id="g71">
      <g
         transform="translate(154,213)"
         id="g70">
        <g
           clip-path="url(#8a811b8cf3)"
           id="g69">
          <g
             clip-path="url(#cacd3e4a8e)"
             id="g68">
            <g
               clip-path="url(#1c3bbaa3a7)"
               id="g67">
              <path
                 fill="#000000"
                 d="M -5.628906,0.0195312 H 72.664062 V 22.746094 H -5.628906 Z m 0,0"
                 fill-opacity="1"
                 fill-rule="nonzero"
                 id="path66" />
            </g>
          </g>
        </g>
      </g>
    </g>
  </g>
</svg>
