<svg xmlns="http://www.w3.org/2000/svg" xmlns:xlink="http://www.w3.org/1999/xlink" width="500" zoomAndPan="magnify" viewBox="0 0 375 374.999991" height="500" preserveAspectRatio="xMidYMid meet" version="1.0"><defs><g/><clipPath id="3e2bbd6bd9"><path d="M 74.175781 55 L 300.675781 55 L 300.675781 320 L 74.175781 320 Z M 74.175781 55 " clip-rule="nonzero"/></clipPath><clipPath id="57fbe321d9"><path d="M 196.367188 70.738281 L 217.105469 70.738281 L 217.105469 91.476562 L 196.367188 91.476562 Z M 196.367188 70.738281 " clip-rule="nonzero"/></clipPath><clipPath id="ff4fe0580d"><path d="M 206.734375 70.738281 C 201.007812 70.738281 196.367188 75.378906 196.367188 81.109375 C 196.367188 86.835938 201.007812 91.476562 206.734375 91.476562 C 212.464844 91.476562 217.105469 86.835938 217.105469 81.109375 C 217.105469 75.378906 212.464844 70.738281 206.734375 70.738281 Z M 206.734375 70.738281 " clip-rule="nonzero"/></clipPath><clipPath id="31a015a0c6"><path d="M 0.367188 0.738281 L 21.105469 0.738281 L 21.105469 21.476562 L 0.367188 21.476562 Z M 0.367188 0.738281 " clip-rule="nonzero"/></clipPath><clipPath id="e34c63aff9"><path d="M 10.734375 0.738281 C 5.007812 0.738281 0.367188 5.378906 0.367188 11.109375 C 0.367188 16.835938 5.007812 21.476562 10.734375 21.476562 C 16.464844 21.476562 21.105469 16.835938 21.105469 11.109375 C 21.105469 5.378906 16.464844 0.738281 10.734375 0.738281 Z M 10.734375 0.738281 " clip-rule="nonzero"/></clipPath><clipPath id="a0beb64895"><rect x="0" width="22" y="0" height="22"/></clipPath><clipPath id="ca042d07cd"><path d="M 196.367188 70.738281 L 217.097656 70.738281 L 217.097656 91.46875 L 196.367188 91.46875 Z M 196.367188 70.738281 " clip-rule="nonzero"/></clipPath><clipPath id="09c8f6a0d3"><path d="M 206.730469 70.738281 C 201.007812 70.738281 196.367188 75.378906 196.367188 81.101562 C 196.367188 86.828125 201.007812 91.46875 206.730469 91.46875 C 212.457031 91.46875 217.097656 86.828125 217.097656 81.101562 C 217.097656 75.378906 212.457031 70.738281 206.730469 70.738281 Z M 206.730469 70.738281 " clip-rule="nonzero"/></clipPath><clipPath id="f06ddedbc6"><path d="M 152.144531 244.828125 L 172.882812 244.828125 L 172.882812 265.566406 L 152.144531 265.566406 Z M 152.144531 244.828125 " clip-rule="nonzero"/></clipPath><clipPath id="8c5732eab6"><path d="M 162.511719 244.828125 C 156.785156 244.828125 152.144531 249.46875 152.144531 255.199219 C 152.144531 260.925781 156.785156 265.566406 162.511719 265.566406 C 168.238281 265.566406 172.882812 260.925781 172.882812 255.199219 C 172.882812 249.46875 168.238281 244.828125 162.511719 244.828125 Z M 162.511719 244.828125 " clip-rule="nonzero"/></clipPath><clipPath id="214e96226b"><path d="M 0.144531 0.828125 L 20.882812 0.828125 L 20.882812 21.566406 L 0.144531 21.566406 Z M 0.144531 0.828125 " clip-rule="nonzero"/></clipPath><clipPath id="26a88765a8"><path d="M 10.511719 0.828125 C 4.785156 0.828125 0.144531 5.46875 0.144531 11.199219 C 0.144531 16.925781 4.785156 21.566406 10.511719 21.566406 C 16.238281 21.566406 20.882812 16.925781 20.882812 11.199219 C 20.882812 5.46875 16.238281 0.828125 10.511719 0.828125 Z M 10.511719 0.828125 " clip-rule="nonzero"/></clipPath><clipPath id="d4bc7430e3"><rect x="0" width="21" y="0" height="22"/></clipPath><clipPath id="449f9cf4be"><path d="M 152.144531 244.828125 L 172.875 244.828125 L 172.875 265.558594 L 152.144531 265.558594 Z M 152.144531 244.828125 " clip-rule="nonzero"/></clipPath><clipPath id="4acabe18f7"><path d="M 162.507812 244.828125 C 156.785156 244.828125 152.144531 249.46875 152.144531 255.191406 C 152.144531 260.917969 156.785156 265.558594 162.507812 265.558594 C 168.234375 265.558594 172.875 260.917969 172.875 255.191406 C 172.875 249.46875 168.234375 244.828125 162.507812 244.828125 Z M 162.507812 244.828125 " clip-rule="nonzero"/></clipPath></defs><path fill="#ffffff" d="M 298.21875 72.382812 L 298.21875 264.644531 C 298.21875 272.707031 291.691406 279.234375 283.628906 279.234375 L 264.746094 279.234375 L 269.273438 286.488281 L 288.398438 317.175781 L 257.714844 298.046875 L 227.535156 279.234375 L 91.367188 279.234375 C 83.304688 279.234375 76.777344 272.707031 76.777344 264.644531 L 76.777344 72.382812 C 76.777344 64.320312 83.304688 57.792969 91.367188 57.792969 L 283.628906 57.792969 C 291.691406 57.792969 298.21875 64.320312 298.21875 72.382812 Z M 298.21875 72.382812 " fill-opacity="1" fill-rule="nonzero"/><g clip-path="url(#3e2bbd6bd9)"><path fill="#ffffff" d="M 288.398438 319.777344 C 287.933594 319.777344 287.449219 319.644531 287.023438 319.386719 L 226.792969 281.832031 L 91.367188 281.832031 C 81.886719 281.832031 74.175781 274.125 74.175781 264.644531 L 74.175781 72.382812 C 74.175781 62.902344 81.886719 55.191406 91.367188 55.191406 L 283.628906 55.191406 C 293.105469 55.191406 300.816406 62.902344 300.816406 72.382812 L 300.816406 264.644531 C 300.816406 274.125 293.105469 281.832031 283.628906 281.832031 L 269.429688 281.832031 L 290.597656 315.796875 C 291.234375 316.824219 291.09375 318.152344 290.234375 319.007812 C 289.738281 319.515625 289.078125 319.777344 288.398438 319.777344 Z M 91.367188 60.394531 C 84.761719 60.394531 79.378906 65.777344 79.378906 72.382812 L 79.378906 264.644531 C 79.378906 271.25 84.761719 276.632812 91.367188 276.632812 L 227.535156 276.632812 C 228.015625 276.632812 228.496094 276.761719 228.910156 277.023438 L 280.273438 309.035156 L 262.550781 280.613281 C 262.054688 279.804688 262.03125 278.804688 262.484375 277.972656 C 262.941406 277.152344 263.8125 276.632812 264.761719 276.632812 L 283.640625 276.632812 C 290.246094 276.632812 295.628906 271.25 295.628906 264.644531 L 295.628906 72.382812 C 295.628906 65.777344 290.246094 60.394531 283.640625 60.394531 Z M 91.367188 60.394531 " fill-opacity="1" fill-rule="nonzero"/></g><g fill="#000000" fill-opacity="1"><g transform="translate(121.042979, 226.617758)"><g><path d="M 5.601562 -118.242188 L 6.316406 -118.960938 L 36.710938 -118.960938 C 39.253906 -118.960938 41.71875 -118.421875 44.101562 -117.351562 C 46.488281 -116.277344 48.59375 -114.828125 50.421875 -113 C 52.25 -111.171875 53.699219 -109.066406 54.769531 -106.683594 C 55.84375 -104.296875 56.378906 -101.835938 56.378906 -99.292969 L 56.378906 -74.5 C 56.378906 -73.148438 56.203125 -71.757812 55.84375 -70.328125 C 55.488281 -68.894531 55.070312 -67.625 54.59375 -66.511719 C 54.195312 -65.796875 53.660156 -64.984375 52.984375 -64.070312 C 52.308594 -63.15625 51.96875 -62.222656 51.96875 -61.265625 C 51.96875 -60.871094 52.050781 -60.492188 52.207031 -60.136719 C 52.367188 -59.777344 52.527344 -59.441406 52.683594 -59.121094 C 53.640625 -57.453125 54.492188 -55.726562 55.246094 -53.9375 C 56.003906 -52.148438 56.378906 -50.261719 56.378906 -48.273438 L 56.378906 -19.667969 C 56.378906 -17.046875 55.84375 -14.542969 54.769531 -12.15625 C 53.699219 -9.773438 52.269531 -7.6875 50.480469 -5.898438 C 48.691406 -4.113281 46.605469 -2.683594 44.222656 -1.609375 C 41.839844 -0.535156 39.335938 0 36.710938 0 L 6.078125 0 L 5.601562 -0.476562 Z M 20.621094 -13.230469 C 20.699219 -13.152344 20.859375 -13.113281 21.097656 -13.113281 C 21.175781 -13.113281 21.257812 -13.070312 21.335938 -12.992188 L 35.996094 -12.992188 C 37.90625 -12.992188 39.613281 -13.746094 41.125 -15.257812 C 42.632812 -16.765625 43.386719 -18.476562 43.386719 -20.382812 L 43.386719 -47.320312 C 43.386719 -47.640625 43.289062 -48.253906 43.089844 -49.167969 C 42.890625 -50.082031 42.59375 -50.699219 42.195312 -51.015625 L 39.691406 -53.519531 C 39.375 -53.917969 38.757812 -54.214844 37.84375 -54.414062 C 36.929688 -54.613281 36.316406 -54.710938 35.996094 -54.710938 L 21.335938 -54.710938 C 20.78125 -54.710938 20.222656 -54.472656 19.667969 -53.996094 C 19.113281 -53.519531 18.832031 -53.003906 18.832031 -52.445312 L 18.832031 -15.257812 C 18.832031 -14.699219 19.03125 -14.265625 19.429688 -13.945312 C 19.828125 -13.628906 20.222656 -13.390625 20.621094 -13.230469 Z M 20.621094 -68.179688 C 20.699219 -68.101562 20.859375 -68.0625 21.097656 -68.0625 C 21.175781 -68.0625 21.257812 -68.023438 21.335938 -67.941406 L 35.996094 -67.941406 C 37.90625 -67.941406 39.613281 -68.699219 41.125 -70.207031 C 42.632812 -71.71875 43.386719 -73.425781 43.386719 -75.332031 L 43.386719 -98.578125 C 43.386719 -100.246094 42.710938 -101.855469 41.363281 -103.402344 C 40.011719 -104.953125 38.460938 -105.726562 36.710938 -105.726562 L 21.097656 -105.726562 C 20.460938 -105.726562 19.925781 -105.507812 19.488281 -105.074219 C 19.050781 -104.636719 18.832031 -104.097656 18.832031 -103.464844 L 18.832031 -70.207031 C 18.832031 -69.652344 19.03125 -69.214844 19.429688 -68.894531 C 19.828125 -68.578125 20.222656 -68.339844 20.621094 -68.179688 Z M 20.621094 -68.179688 "/></g></g></g><g fill="#000000" fill-opacity="1"><g transform="translate(194.346731, 226.617758)"><g><path d="M 5.601562 -118.960938 L 36.710938 -118.960938 C 38.539062 -118.960938 40.40625 -118.621094 42.316406 -117.945312 C 44.222656 -117.269531 45.96875 -116.457031 47.558594 -115.503906 C 49.863281 -113.277344 51.910156 -110.875 53.699219 -108.289062 C 55.488281 -105.707031 56.378906 -102.707031 56.378906 -99.292969 L 56.378906 -66.988281 C 56.378906 -63.570312 55.488281 -60.570312 53.699219 -57.988281 C 51.910156 -55.40625 49.863281 -53.003906 47.558594 -50.777344 C 45.96875 -49.902344 44.222656 -49.089844 42.316406 -48.335938 C 40.40625 -47.578125 38.539062 -47.203125 36.710938 -47.203125 L 20.859375 -47.203125 C 20.382812 -47.203125 19.867188 -46.882812 19.308594 -46.25 C 18.753906 -45.613281 18.476562 -45.058594 18.476562 -44.578125 L 18.476562 -0.476562 L 17.878906 0 L 5.601562 0 Z M 20.503906 -60.550781 C 20.503906 -60.472656 20.621094 -60.433594 20.859375 -60.433594 C 20.9375 -60.433594 21.019531 -60.394531 21.097656 -60.3125 L 35.996094 -60.3125 C 36.792969 -60.3125 37.605469 -60.511719 38.441406 -60.910156 C 39.277344 -61.308594 40.050781 -61.824219 40.765625 -62.460938 C 41.480469 -63.09375 42.058594 -63.808594 42.492188 -64.605469 C 42.929688 -65.398438 43.148438 -66.195312 43.148438 -66.988281 L 43.148438 -99.292969 C 43.148438 -100.085938 42.929688 -100.878906 42.492188 -101.675781 C 42.058594 -102.46875 41.480469 -103.183594 40.765625 -103.820312 C 40.050781 -104.457031 39.277344 -104.972656 38.441406 -105.371094 C 37.605469 -105.769531 36.792969 -105.964844 35.996094 -105.964844 L 21.097656 -105.964844 C 20.460938 -105.964844 19.886719 -105.648438 19.371094 -105.011719 C 18.851562 -104.378906 18.59375 -103.78125 18.59375 -103.226562 L 18.59375 -63.054688 C 18.59375 -62.578125 18.8125 -62.082031 19.25 -61.566406 C 19.6875 -61.050781 20.105469 -60.710938 20.503906 -60.550781 Z M 20.503906 -60.550781 "/></g></g></g><g fill="#000000" fill-opacity="1"><g transform="translate(182.180412, 226.622563)"><g><path d="M 4.886719 -12.875 L 15.136719 -12.875 C 15.613281 -12.875 16.191406 -13.132812 16.867188 -13.648438 C 17.542969 -14.164062 17.878906 -14.699219 17.878906 -15.257812 L 17.878906 -103.464844 C 17.878906 -103.941406 17.601562 -104.457031 17.046875 -105.011719 C 16.488281 -105.570312 15.972656 -105.847656 15.496094 -105.847656 L 5.363281 -105.847656 L 4.886719 -106.445312 L 4.886719 -118.480469 L 5.363281 -118.960938 L 43.863281 -118.960938 L 44.101562 -118.71875 C 44.101562 -118.640625 44.144531 -118.5625 44.222656 -118.480469 C 44.222656 -118.402344 44.261719 -118.324219 44.339844 -118.242188 L 44.339844 -106.445312 L 43.863281 -105.847656 L 33.613281 -105.847656 C 33.058594 -105.847656 32.539062 -105.589844 32.0625 -105.074219 C 31.585938 -104.554688 31.347656 -104.019531 31.347656 -103.464844 L 31.347656 -15.257812 C 31.347656 -14.78125 31.628906 -14.265625 32.183594 -13.707031 C 32.738281 -13.152344 33.296875 -12.875 33.851562 -12.875 L 43.863281 -12.875 L 44.339844 -12.277344 L 44.339844 -0.476562 L 43.863281 0 L 4.886719 0 Z M 4.886719 -12.875 "/></g></g></g><g clip-path="url(#57fbe321d9)"><g clip-path="url(#ff4fe0580d)"><g transform="matrix(1, 0, 0, 1, 196, 70)"><g clip-path="url(#a0beb64895)"><g clip-path="url(#31a015a0c6)"><g clip-path="url(#e34c63aff9)"><path fill="#ffffff" d="M 0.367188 0.738281 L 21.105469 0.738281 L 21.105469 21.476562 L 0.367188 21.476562 Z M 0.367188 0.738281 " fill-opacity="1" fill-rule="nonzero"/></g></g></g></g></g></g><g clip-path="url(#ca042d07cd)"><g clip-path="url(#09c8f6a0d3)"><path stroke-linecap="butt" transform="matrix(0.75, 0, 0, 0.75, 196.366369, 70.738003)" fill="none" stroke-linejoin="miter" d="M 13.818799 0.000370527 C 6.188591 0.000370527 0.00109106 6.187871 0.00109106 13.818079 C 0.00109106 21.453496 6.188591 27.640996 13.818799 27.640996 C 21.454216 27.640996 27.641716 21.453496 27.641716 13.818079 C 27.641716 6.187871 21.454216 0.000370527 13.818799 0.000370527 Z M 13.818799 0.000370527 " stroke="#000000" stroke-width="20" stroke-opacity="1" stroke-miterlimit="4"/></g></g><g clip-path="url(#f06ddedbc6)"><g clip-path="url(#8c5732eab6)"><g transform="matrix(1, 0, 0, 1, 152, 244)"><g clip-path="url(#d4bc7430e3)"><g clip-path="url(#214e96226b)"><g clip-path="url(#26a88765a8)"><path fill="#ffffff" d="M 0.144531 0.828125 L 20.882812 0.828125 L 20.882812 21.566406 L 0.144531 21.566406 Z M 0.144531 0.828125 " fill-opacity="1" fill-rule="nonzero"/></g></g></g></g></g></g><g clip-path="url(#449f9cf4be)"><g clip-path="url(#4acabe18f7)"><path stroke-linecap="butt" transform="matrix(0.75, 0, 0, 0.75, 152.142959, 244.827757)" fill="none" stroke-linejoin="miter" d="M 13.819804 0.000491036 C 6.189596 0.000491036 0.00209592 6.187991 0.00209592 13.818199 C 0.00209592 21.453616 6.189596 27.641116 13.819804 27.641116 C 21.455221 27.641116 27.642721 21.453616 27.642721 13.818199 C 27.642721 6.187991 21.455221 0.000491036 13.819804 0.000491036 Z M 13.819804 0.000491036 " stroke="#000000" stroke-width="20" stroke-opacity="1" stroke-miterlimit="4"/></g></g></svg>