<?xml version="1.0" encoding="UTF-8" standalone="no"?>
<svg
   width="437.92188"
   zoomAndPan="magnify"
   viewBox="0 0 328.44141 68.999998"
   height="92"
   preserveAspectRatio="xMidYMid"
   version="1.0"
   id="svg52"
   sodipodi:docname="plaque - factory.svg"
   inkscape:version="1.3 (0e150ed, 2023-07-21)"
   xmlns:inkscape="http://www.inkscape.org/namespaces/inkscape"
   xmlns:sodipodi="http://sodipodi.sourceforge.net/DTD/sodipodi-0.dtd"
   xmlns="http://www.w3.org/2000/svg"
   xmlns:svg="http://www.w3.org/2000/svg">
  <sodipodi:namedview
     id="namedview52"
     pagecolor="#ffffff"
     bordercolor="#000000"
     borderopacity="0.25"
     inkscape:showpageshadow="2"
     inkscape:pageopacity="0.0"
     inkscape:pagecheckerboard="0"
     inkscape:deskcolor="#d1d1d1"
     inkscape:zoom="1.456"
     inkscape:cx="219.09341"
     inkscape:cy="45.673077"
     inkscape:window-width="1472"
     inkscape:window-height="1212"
     inkscape:window-x="62"
     inkscape:window-y="25"
     inkscape:window-maximized="0"
     inkscape:current-layer="svg52" />
  <defs
     id="defs2">
    <g
       id="g1" />
    <clipPath
       id="6545604f32">
      <path
         d="M 23.273438,152.82422 H 351.75781 v 69 H 23.273438 Z m 0,0"
         clip-rule="nonzero"
         id="path1" />
    </clipPath>
    <clipPath
       id="59cc8fdb30">
      <path
         d="M 30.773438,152.82422 H 344.21484 c 1.99219,0 3.89844,0.79297 5.30469,2.19922 1.40625,1.40625 2.19531,3.3125 2.19531,5.30078 v 54.34375 c 0,1.98828 -0.78906,3.89453 -2.19531,5.30078 -1.40625,1.40625 -3.3125,2.19531 -5.30469,2.19531 H 30.773438 c -1.988282,0 -3.894532,-0.78906 -5.300782,-2.19531 -1.40625,-1.40625 -2.199218,-3.3125 -2.199218,-5.30078 v -54.34375 c 0,-1.98828 0.792968,-3.89453 2.199218,-5.30078 1.40625,-1.40625 3.3125,-2.19922 5.300782,-2.19922 z m 0,0"
         clip-rule="nonzero"
         id="path2" />
    </clipPath>
  </defs>
  <g
     clip-path="url(#6545604f32)"
     id="g4"
     transform="translate(-23.273438,-152.82422)">
    <g
       clip-path="url(#59cc8fdb30)"
       id="g3">
      <path
         stroke-linecap="butt"
         transform="matrix(0.75,0,0,0.75,23.27461,152.82523)"
         fill="none"
         stroke-linejoin="miter"
         d="M 9.998436,-0.00135362 H 427.92031 c 2.65625,0 5.19792,1.05729162 7.07292,2.93229162 1.875,1.875 2.92708,4.416667 2.92708,7.067708 V 82.45698 c 0,2.651042 -1.05208,5.192708 -2.92708,7.067708 -1.875,1.875 -4.41667,2.927084 -7.07292,2.927084 H 9.998436 c -2.651042,0 -5.192708,-1.052084 -7.067708,-2.927084 -1.875,-1.875 -2.93229188,-4.416666 -2.93229188,-7.067708 V 9.998646 c 0,-2.651041 1.05729188,-5.192708 2.93229188,-7.067708 1.875,-1.875 4.416666,-2.93229162 7.067708,-2.93229162 z m 0,0"
         stroke="#ffffff"
         stroke-width="10"
         stroke-opacity="1"
         stroke-miterlimit="4"
         id="path3" />
    </g>
  </g>
  <g
     fill="#ffffff"
     fill-opacity="1"
     id="g7"
     transform="translate(-23.273438,-152.82422)">
    <g
       transform="translate(37.500002,197.62499)"
       id="g6">
      <g
         id="g5">
        <path
           d="M 7.15625,-20.765625 V -4.5625 H 13.625 V 0 H 1.765625 v -20.765625 z m 0,0"
           id="path4" />
      </g>
    </g>
  </g>
  <g
     fill="#ffffff"
     fill-opacity="1"
     id="g10"
     transform="translate(-23.273438,-152.82422)">
    <g
       transform="translate(51.126035,197.62499)"
       id="g9">
      <g
         id="g8">
        <path
           d="M 13.765625,-20.765625 21.578125,0 h -5.75 l -1.34375,-3.609375 h -7.4375 L 5.609375,0 h -5.71875 L 7.875,-20.765625 Z M 8.53125,-7.734375 h 4.484375 L 10.8125,-14.34375 h -0.04687 z m 0,0"
           id="path7" />
      </g>
    </g>
  </g>
  <g
     fill="#ffffff"
     fill-opacity="1"
     id="g13"
     transform="translate(-23.273438,-152.82422)">
    <g
       transform="translate(72.624882,197.62499)"
       id="g12">
      <g
         id="g11">
        <path
           d="m 9.546875,-20.765625 c 4.039063,0 6.070313,1.804687 6.09375,5.40625 0,2.054687 -0.761719,3.464844 -2.28125,4.234375 v 0.0625 c 2.820313,0.398438 4.234375,2.15625 4.234375,5.28125 0,1.804688 -0.648438,3.21875 -1.9375,4.25 C 14.375,-0.507812 12.539062,0 10.15625,0 H 1.765625 v -20.765625 z m -2.390625,8.15625 h 0.578125 c 1.082031,0 1.84375,-0.160156 2.28125,-0.484375 0.445313,-0.332031 0.671875,-0.84375 0.671875,-1.53125 0,-0.675781 -0.21875,-1.175781 -0.65625,-1.5 -0.429688,-0.332031 -1.210938,-0.5 -2.34375,-0.5 H 7.15625 Z m 0,8.484375 h 0.6875 c 1.726562,0 2.875,-0.1875 3.4375,-0.5625 0.570312,-0.382812 0.859375,-0.929688 0.859375,-1.640625 0,-0.757813 -0.261719,-1.328125 -0.78125,-1.703125 -0.523437,-0.375 -1.398437,-0.5625 -2.625,-0.5625 H 7.15625 Z m 0,0"
           id="path10" />
      </g>
    </g>
  </g>
  <g
     fill="#ffffff"
     fill-opacity="1"
     id="g16"
     transform="translate(-23.273438,-152.82422)">
    <g
       transform="translate(91.260886,197.62499)"
       id="g15">
      <g
         id="g14">
        <path
           d="m 23.671875,-10.765625 c 0,2.199219 -0.496094,4.179687 -1.484375,5.9375 -0.992188,1.75 -2.367188,3.109375 -4.125,4.078125 -1.761719,0.957031 -3.664062,1.4375 -5.703125,1.4375 -2.261719,0 -4.28125,-0.492188 -6.0625,-1.46875 -1.773437,-0.976562 -3.148437,-2.332031 -4.125,-4.0625 -0.96875,-1.726562 -1.453125,-3.617188 -1.453125,-5.671875 0,-1.894531 0.441406,-3.65625 1.328125,-5.28125 0.894531,-1.632813 2.257813,-2.984375 4.09375,-4.046875 1.832031,-1.070312 3.851563,-1.609375 6.0625,-1.609375 2.007813,0 3.898437,0.464844 5.671875,1.390625 1.769531,0.929688 3.175781,2.214844 4.21875,3.859375 1.050781,1.648437 1.578125,3.460937 1.578125,5.4375 z m -11.46875,6.21875 c 1.664063,0 3.054687,-0.601563 4.171875,-1.8125 1.125,-1.207031 1.6875,-2.664063 1.6875,-4.375 0,-1.4375 -0.578125,-2.707031 -1.734375,-3.8125 -1.15625,-1.113281 -2.542969,-1.671875 -4.15625,-1.671875 -1.523437,0 -2.867187,0.539062 -4.03125,1.609375 -1.167969,1.074219 -1.773437,2.367187 -1.8125,3.875 0,1.78125 0.566406,3.261719 1.703125,4.4375 1.144531,1.167969 2.535156,1.75 4.171875,1.75 z m 0,0"
           id="path13" />
      </g>
    </g>
  </g>
  <g
     fill="#ffffff"
     fill-opacity="1"
     id="g19"
     transform="translate(-23.273438,-152.82422)">
    <g
       transform="translate(115.67763,197.62499)"
       id="g18">
      <g
         id="g17">
        <path
           d="M 7.15625,-20.765625 17.046875,-8.0625 h 0.04687 V -20.765625 H 22.5 V 0 h -5.40625 l -9.875,-12.71875 H 7.15625 V 0 H 1.765625 v -20.765625 z m 0,0"
           id="path16" />
      </g>
    </g>
  </g>
  <g
     fill="#ffffff"
     fill-opacity="1"
     id="g22"
     transform="translate(-23.273438,-152.82422)">
    <g
       transform="translate(139.92921,197.62499)"
       id="g21">
      <g
         id="g20">
        <path
           d="M 7.15625,-20.765625 17.046875,-8.0625 h 0.04687 V -20.765625 H 22.5 V 0 h -5.40625 l -9.875,-12.71875 H 7.15625 V 0 H 1.765625 v -20.765625 z m 0,0"
           id="path19" />
      </g>
    </g>
  </g>
  <g
     fill="#ffffff"
     fill-opacity="1"
     id="g25"
     transform="translate(-23.273438,-152.82422)">
    <g
       transform="translate(164.18078,197.62499)"
       id="g24">
      <g
         id="g23">
        <path
           d="M 13.578125,-20.765625 V -16.1875 H 7.15625 v 3.46875 H 13.25 v 4.5625 H 7.15625 v 3.59375 h 6.421875 V 0 h -11.8125 v -20.765625 z m 0,0"
           id="path22" />
      </g>
    </g>
  </g>
  <g
     fill="#ffffff"
     fill-opacity="1"
     id="g28"
     transform="translate(-23.273438,-152.82422)">
    <g
       transform="translate(179.32081,197.62499)"
       id="g27">
      <g
         id="g26">
        <path
           d="m 10.125,-20.765625 c 2.351562,0 4.179688,0.585937 5.484375,1.75 1.300781,1.167969 1.953125,2.859375 1.953125,5.078125 0,4.710938 -2.402344,7.0625 -7.203125,7.0625 H 7.15625 V 0 H 1.765625 v -20.765625 z m -2.96875,9.53125 H 8.3125 c 1.0625,0 1.804688,-0.07813 2.234375,-0.234375 0.4375,-0.15625 0.78125,-0.410156 1.03125,-0.765625 0.25,-0.363281 0.375,-0.875 0.375,-1.53125 0,-0.695313 -0.121094,-1.226563 -0.359375,-1.59375 -0.242188,-0.363281 -0.585938,-0.628906 -1.03125,-0.796875 -0.4375,-0.164062 -1.324219,-0.25 -2.65625,-0.25 h -0.75 z m 0,0"
           id="path25" />
      </g>
    </g>
  </g>
  <g
     fill="#ffffff"
     fill-opacity="1"
     id="g31"
     transform="translate(-23.273438,-152.82422)">
    <g
       transform="translate(197.51638,197.62499)"
       id="g30">
      <g
         id="g29">
        <path
           d="M 7.15625,-20.765625 V -4.5625 H 13.625 V 0 H 1.765625 v -20.765625 z m 0,0"
           id="path28" />
      </g>
    </g>
  </g>
  <g
     fill="#ffffff"
     fill-opacity="1"
     id="g34"
     transform="translate(-23.273438,-152.82422)">
    <g
       transform="translate(211.14241,197.62499)"
       id="g33">
      <g
         id="g32">
        <path
           d="M 13.765625,-20.765625 21.578125,0 h -5.75 l -1.34375,-3.609375 h -7.4375 L 5.609375,0 h -5.71875 L 7.875,-20.765625 Z M 8.53125,-7.734375 h 4.484375 L 10.8125,-14.34375 h -0.04687 z m 0,0"
           id="path31" />
      </g>
    </g>
  </g>
  <g
     fill="#ffffff"
     fill-opacity="1"
     id="g37"
     transform="translate(-23.273438,-152.82422)">
    <g
       transform="translate(232.64125,197.62499)"
       id="g36">
      <g
         id="g35">
        <path
           d="m 23.671875,-10.328125 c 0,2.71875 -0.890625,5.152344 -2.671875,7.296875 l 3.5,3.546875 -4.953125,0.78125 -1.65625,-1.953125 c -1.554687,0.894531 -3.449219,1.34375 -5.6875,1.34375 -2.230469,0 -4.21875,-0.5 -5.96875,-1.5 -1.75,-1 -3.109375,-2.363281 -4.078125,-4.09375 -0.960938,-1.738281 -1.4375,-3.609375 -1.4375,-5.609375 0,-2.125 0.515625,-4.007813 1.546875,-5.65625 1.039063,-1.644531 2.453125,-2.9375 4.234375,-3.875 1.78125,-0.9375 3.679688,-1.40625 5.703125,-1.40625 2.144531,0 4.097656,0.46875 5.859375,1.40625 1.757812,0.9375 3.132812,2.261719 4.125,3.96875 0.988281,1.710937 1.484375,3.625 1.484375,5.75 z m -11.453125,5.78125 c 0.570312,0 1.125,-0.085937 1.65625,-0.265625 l -3.328125,-3.3125 5.09375,-0.625 1.453125,1.515625 c 0.644531,-0.90625 0.96875,-1.925781 0.96875,-3.0625 0,-1.613281 -0.585938,-3.003906 -1.75,-4.171875 -1.167969,-1.164062 -2.539062,-1.75 -4.109375,-1.75 -1.542969,0 -2.90625,0.558594 -4.09375,1.671875 -1.1875,1.105469 -1.78125,2.375 -1.78125,3.8125 0,1.667969 0.550781,3.117187 1.65625,4.34375 1.113281,1.230469 2.523437,1.84375 4.234375,1.84375 z m 0,0"
           id="path34" />
      </g>
    </g>
  </g>
  <g
     fill="#ffffff"
     fill-opacity="1"
     id="g40"
     transform="translate(-23.273438,-152.82422)">
    <g
       transform="translate(257.058,197.62499)"
       id="g39">
      <g
         id="g38">
        <path
           d="m 7.046875,-20.765625 v 11.125 c 0,1.449219 0.117187,2.523437 0.359375,3.21875 0.238281,0.699219 0.617188,1.246094 1.140625,1.640625 0.519531,0.398438 1.238281,0.59375 2.15625,0.59375 1.226563,0 2.144531,-0.390625 2.75,-1.171875 0.613281,-0.78125 0.921875,-2.195313 0.921875,-4.25 v -11.15625 h 5.390625 V -8.84375 c 0,2.375 -0.304687,4.167969 -0.90625,5.375 -0.605469,1.210938 -1.605469,2.183594 -3,2.921875 -1.398437,0.726563 -3.117187,1.09375 -5.15625,1.09375 -1.960937,0 -3.636719,-0.339844 -5.03125,-1.015625 -1.398437,-0.675781 -2.417969,-1.632812 -3.0625,-2.875 -0.636719,-1.238281 -0.953125,-3.070312 -0.953125,-5.5 v -11.921875 z m 0,0"
           id="path37" />
      </g>
    </g>
  </g>
  <g
     fill="#ffffff"
     fill-opacity="1"
     id="g43"
     transform="translate(-23.273438,-152.82422)">
    <g
       transform="translate(278.47427,197.62499)"
       id="g42">
      <g
         id="g41">
        <path
           d="M 13.578125,-20.765625 V -16.1875 H 7.15625 v 3.46875 H 13.25 v 4.5625 H 7.15625 v 3.59375 h 6.421875 V 0 h -11.8125 v -20.765625 z m 0,0"
           id="path40" />
      </g>
    </g>
  </g>
  <g
     fill="#ffffff"
     fill-opacity="1"
     id="g46"
     transform="translate(-23.273438,-152.82422)">
    <g
       transform="translate(293.6143,197.62499)"
       id="g45">
      <g
         id="g44">
        <path
           d="m 7.953125,-2.671875 c 0,0.898437 -0.328125,1.65625 -0.984375,2.28125 -0.648438,0.625 -1.390625,0.9375 -2.234375,0.9375 -0.886719,0 -1.648437,-0.3125 -2.28125,-0.9375 -0.625,-0.625 -0.9375,-1.382813 -0.9375,-2.28125 0,-0.863281 0.3125,-1.613281 0.9375,-2.25 0.625,-0.644531 1.382813,-0.96875 2.28125,-0.96875 0.894531,0 1.65625,0.320313 2.28125,0.953125 0.625,0.636719 0.9375,1.390625 0.9375,2.265625 z m 0,0"
           id="path43" />
      </g>
    </g>
  </g>
  <g
     fill="#ffffff"
     fill-opacity="1"
     id="g49"
     transform="translate(-23.273438,-152.82422)">
    <g
       transform="translate(303.05618,197.62499)"
       id="g48">
      <g
         id="g47">
        <path
           d="M 13.6875,-20.765625 V -16.1875 H 7.15625 v 3.46875 h 5.921875 v 4.5625 H 7.15625 V 0 H 1.765625 v -20.765625 z m 0,0"
           id="path46" />
      </g>
    </g>
  </g>
  <g
     fill="#ffffff"
     fill-opacity="1"
     id="g52"
     transform="translate(-23.273438,-152.82422)">
    <g
       transform="translate(317.976,197.62499)"
       id="g51">
      <g
         id="g50">
        <path
           d="m 9.90625,-20.765625 c 2.1875,0 3.921875,0.558594 5.203125,1.671875 1.289063,1.117188 1.9375,2.6875 1.9375,4.71875 0,1.523438 -0.40625,2.8125 -1.21875,3.875 -0.804687,1.054688 -1.914063,1.71875 -3.328125,2 L 19.03125,0 H 12.3125 L 7.21875,-7.984375 H 7.15625 V 0 H 1.765625 v -20.765625 z m -2.75,9.3125 H 7.625 c 1.320312,0 2.285156,-0.207031 2.890625,-0.625 0.601563,-0.425781 0.90625,-1.082031 0.90625,-1.96875 0,-0.875 -0.296875,-1.519531 -0.890625,-1.9375 C 9.9375,-16.410156 8.96875,-16.625 7.625,-16.625 H 7.15625 Z m 0,0"
           id="path49" />
      </g>
    </g>
  </g>
</svg>
